<svg width="100" height="76" viewBox="0 0 100 76" fill="none" xmlns="http://www.w3.org/2000/svg">
<g clip-path="url(#clip0_85_244)">
<path d="M97.7339 15.6436C96.4181 13.8161 94.3713 12.5734 92.3245 12.3541C90.8625 8.47981 87.9386 5.11724 84.0643 2.92426C82.5292 2.04706 80.8479 1.38917 79.0935 0.950572C79.0204 0.804373 79.0204 0.731274 78.8742 0.658175C78.728 0.511976 78.5818 0.511976 78.3625 0.511976C78.1432 0.585075 77.9239 0.585075 77.7046 0.658175C75.731 0.292677 73.6842 0.146479 71.6374 0.292677C71.5643 0.219578 71.4912 0.146479 71.345 0.0733793C71.1988 0.000279834 70.9795 0.000279834 70.8333 0.0733793C70.614 0.219578 70.3216 0.292678 70.1023 0.438876H69.883C69.7368 0.438876 69.6637 0.438876 69.5175 0.511976C68.1286 0.731274 66.6666 0.950572 65.2777 1.38917C65.1315 1.31607 64.9122 1.31607 64.766 1.46227C64.6929 1.38917 64.6199 1.46227 64.5468 1.46227L64.4736 1.53537C62.0614 2.26636 59.7222 3.14355 57.6023 4.31315C57.383 4.31315 57.2368 4.38624 57.1637 4.60554C56.0672 5.26344 55.0438 5.84823 54.1666 6.50613C53.5087 7.01782 52.8508 7.52952 52.1199 8.26051C51.9006 8.26051 51.6813 8.47981 51.6082 8.69911C50.8041 9.5032 50 10.4535 49.3421 11.4038C49.269 11.4038 49.1228 11.4038 49.0497 11.4769C48.9035 11.55 48.8304 11.6962 48.7573 11.8424C48.7573 11.9886 48.6842 12.1348 48.6842 12.281V12.4272C45.0292 5.55584 36.9152 1.46227 27.997 2.04706C25.3655 2.19326 22.807 2.77806 20.4678 3.72835C20.2485 3.72835 20.1023 3.80145 19.9561 3.94765C18.421 4.67864 16.959 5.55584 15.7163 6.57923C13.8158 8.11432 12.1345 9.9418 10.5994 11.6231C9.64909 12.6465 8.9181 13.6699 8.2602 14.8395C8.114 14.9126 8.0409 15.0588 8.0409 15.205C7.60231 16.0091 7.30991 16.74 7.01751 17.471C6.72512 18.4213 6.43272 19.3716 6.14032 20.3219C5.99412 20.4681 5.92102 20.6874 5.99412 20.9067C4.82453 25.4389 4.97073 29.24 6.35962 32.3833C3.87424 35.0149 2.70465 38.743 3.21634 42.471C3.58184 45.3219 4.82453 48.0997 6.87131 50.4389C7.09061 50.7313 9.0643 52.7781 10.4532 53.5822C10.3801 53.6553 10.2339 53.6553 10.0877 53.7284C8.6257 54.24 7.60231 54.8248 6.57892 55.4827L6.50582 55.5558C4.09354 56.5792 1.16956 58.626 0.292368 61.4038C-0.219328 63.012 -3.00817e-05 64.6202 0.877163 66.1553C3.14324 70.0295 7.60231 74.3424 13.1579 75.1465C13.231 75.2927 13.4503 75.3658 13.5965 75.3658C13.7427 75.3658 13.8889 75.2927 14.0351 75.2196C16.3742 75.3658 19.5175 74.781 21.2719 72.8073C22.076 71.857 22.4415 70.6143 22.807 69.4447L22.8801 69.2985C23.0994 68.4944 23.3187 67.6903 23.538 66.8862C23.6111 66.8131 23.6842 66.6669 23.7573 66.5207C23.9766 65.3512 24.3421 64.1816 24.7076 63.1582C27.6315 65.3512 31.0672 66.8131 34.576 67.2517L34.6491 67.3248C34.7953 67.471 34.9415 67.471 35.1608 67.471C35.307 67.471 35.3801 67.3979 35.5263 67.3248C36.769 67.3979 38.0117 67.3979 39.1082 67.1786C40.9356 66.8862 43.4941 66.1553 45.3216 64.1085C46.7836 62.5003 47.5146 60.1611 47.5877 57.2371C47.6608 52.2664 46.345 47.1494 43.9327 42.8365C43.7134 42.471 43.4941 42.0324 43.2748 41.74C43.5672 41.5207 43.7865 41.2283 44.0058 40.936C44.152 40.936 44.3713 40.8629 44.5175 40.7898L44.6637 40.6436C45.4678 39.9126 46.2719 39.1816 46.7836 38.0851C48.1725 42.1786 50.2924 45.7605 52.997 48.6114C53.2894 48.9038 53.5818 49.1962 53.8742 49.4155C53.8742 49.6348 54.0204 49.8541 54.3128 49.9272C54.3859 49.9272 54.3859 49.9272 54.459 50.0003H54.5321C59.7222 54.6786 66.4473 57.164 73.3918 57.0178C73.538 57.164 73.7573 57.164 73.9766 57.0909C74.0497 57.0909 74.1228 57.0178 74.1959 57.0178C74.269 57.0178 74.269 57.0178 74.3421 56.9447C76.0234 56.8716 77.6315 56.5792 79.1666 56.2137C80.2631 55.9213 81.4327 55.5558 82.5292 55.1172C82.5292 55.1172 82.6023 55.1172 82.6754 55.0441C85.6725 53.8745 89.9122 51.6816 92.9824 47.7342C93.4941 47.0763 93.9327 46.4184 94.2982 45.5412C94.5175 45.4681 94.6637 45.2488 94.6637 44.9564V44.664C95.4678 42.8365 95.9064 40.7898 96.1988 39.1085C96.7836 35.9652 96.9298 32.9681 96.7105 30.0441C97.807 29.1669 98.6842 27.9974 99.269 26.6816C100.658 23.319 100.073 18.8599 97.7339 15.6436ZM94.152 32.6757C93.9327 32.6757 93.7134 32.8219 93.5672 33.0412C93.4941 33.2605 93.4941 33.4067 93.5672 33.626C94.4444 35.0149 94.8099 36.4769 94.8099 38.0851C94.8099 38.2313 94.8099 38.3044 94.883 38.4506C94.7368 39.1085 94.5906 39.9126 94.4444 40.7898C94.4444 40.2781 94.2982 39.8395 94.0058 39.3278C93.8596 39.1085 93.7134 39.0354 93.4941 39.0354C93.2748 39.0354 93.0555 39.1816 92.9093 39.4009C92.8362 39.6202 92.8362 39.7664 92.9093 39.9857C93.2017 40.4974 93.2017 41.3014 93.1286 41.9593C93.1286 42.1786 93.1286 42.3248 93.1286 42.5441V44.664C93.0555 44.8833 92.9093 45.1026 92.8362 45.3219C92.2514 46.4915 91.3742 47.6611 90.3508 48.6845C90.3508 48.6114 90.4239 48.4652 90.4239 48.3921C90.4239 48.2459 90.497 48.1728 90.497 48.0266C90.7894 46.857 91.0087 45.6143 91.0087 44.2254C91.0087 44.0061 90.9356 43.7868 90.7163 43.7137C90.497 43.5675 90.2777 43.5675 90.0584 43.7137C89.8391 43.7868 89.766 44.0061 89.766 44.2254C89.766 45.2488 89.6198 46.2722 89.4736 47.1494L89.4006 47.4418C89.2543 48.0266 89.035 49.2693 88.7427 49.6348C88.5234 49.7079 88.3772 49.8541 88.3041 50.0734C88.231 50.2196 88.3041 50.3658 88.3041 50.4389C87.2076 51.243 86.038 52.0471 84.7222 52.705C85.307 51.8278 85.8187 50.8775 86.1111 49.9272C86.1842 49.7079 86.1111 49.4886 85.9649 49.3424C85.8187 49.1962 85.5994 49.1231 85.3801 49.1231C85.1608 49.1962 85.0146 49.3424 84.9415 49.5617C84.3567 51.3892 83.2602 52.9243 81.7982 54.0207H81.7251C80.2631 54.6055 78.728 55.0441 77.1929 55.3365C78.5087 54.5324 79.6783 53.5822 80.7017 52.4857C80.8479 52.3395 80.921 52.1202 80.8479 51.9009C80.7748 51.6816 80.6286 51.5354 80.4093 51.4623C80.19 51.3892 79.9707 51.4623 79.8245 51.6085C78.0701 53.3629 76.0234 54.7517 73.7573 55.702C72.2953 55.7751 70.9064 55.7751 69.5175 55.6289C71.2719 54.971 72.8801 54.0207 74.3421 52.8512C74.4883 52.705 74.5614 52.5588 74.5614 52.3395C74.5614 52.1202 74.3421 51.9009 74.1228 51.8278C73.9035 51.7547 73.6842 51.7547 73.4649 51.9009C71.7105 53.2898 69.7368 54.3131 67.6169 54.971C67.4707 55.0441 67.3245 55.1172 67.2514 55.2634C65.7163 54.971 64.2543 54.5324 62.8655 54.0207C63.3772 54.0207 63.962 53.9476 64.5468 53.8745C65.9356 53.6552 67.0321 53.1436 68.2017 52.5588L68.7134 52.3395C68.9327 52.2664 69.0058 52.0471 69.0789 51.9009C69.0789 51.6816 69.0058 51.4623 68.7865 51.3161C68.5672 51.1699 68.3479 51.1699 68.1286 51.243L67.7631 51.4623C66.6666 51.974 65.5701 52.4857 64.3274 52.705C63.0117 52.9243 61.6228 52.8512 60.307 52.8512C60.307 52.8512 60.307 52.8512 60.2339 52.8512C59.0643 52.1933 57.8947 51.5354 56.8713 50.7313C58.2602 50.9506 59.7222 50.8775 61.1842 50.6582C61.4766 50.5851 61.6959 50.3658 61.6228 50.0003C61.5497 49.7079 61.2573 49.4155 60.8918 49.4886C58.845 49.781 56.7982 49.6348 54.7514 48.9769C51.2427 45.6874 48.6111 41.3745 47.1491 36.4038C47.2222 36.1845 47.2222 35.9652 47.2953 35.7459C47.2953 35.5997 47.2953 35.3804 47.1491 35.2342C47.076 35.088 46.9298 35.0149 46.7836 35.0149C46.0526 31.0675 45.7602 27.0471 46.1257 23.2459C46.1988 22.7342 46.2719 22.2225 46.345 21.6377C46.4181 21.857 46.4912 22.0032 46.5643 22.1494C47.0029 23.3921 47.5877 24.7079 48.3187 25.9506C48.3918 26.1699 48.6111 26.243 48.8304 26.243C49.0497 26.243 49.269 26.0968 49.4152 25.9506C49.4883 25.7313 49.4883 25.512 49.4152 25.3658C48.7573 24.1962 48.2456 23.0997 47.8801 22.0032C47.7339 21.4915 47.5146 20.9798 47.3684 20.4681C47.3684 20.395 47.2953 20.2488 47.2222 20.1026C47.1491 19.7371 47.0029 19.3716 47.0029 19.0792C47.0029 19.0061 47.076 18.933 47.076 18.933C47.4415 17.5441 47.9532 16.2284 48.538 15.0588C48.6111 17.0324 49.1228 18.933 50.0731 20.6874C50.1462 20.8336 50.2924 20.9798 50.4386 20.9798C50.5848 20.9798 50.731 20.9798 50.8772 20.9067C51.1696 20.7605 51.3158 20.395 51.1696 20.0295C50 17.7634 49.5614 15.205 49.9269 12.6465C50.3655 11.9155 50.8772 11.2576 51.3889 10.6728C51.3158 11.9886 51.3889 13.3044 51.6082 14.6202C51.6813 14.8395 51.7543 14.9857 51.9736 15.0588C52.1929 15.1319 52.4122 15.0588 52.6315 14.9126C52.7777 14.7664 52.8508 14.5471 52.8508 14.3278C52.5584 12.5734 52.5584 10.8921 52.8508 9.13771C53.8742 8.18742 55.0438 7.23712 56.3596 6.43303C55.6286 8.11432 55.19 9.9418 54.9707 11.6962C54.8245 12.1348 55.0438 12.4272 55.4093 12.4272C55.7017 12.5003 56.0672 12.281 56.1403 11.8424C56.4327 9.5763 57.0906 7.45642 58.114 5.40964C59.2836 4.75174 60.6725 4.16695 62.1345 3.65525C61.1842 4.89794 60.5263 6.28683 60.307 7.89502C60.307 8.11432 60.3801 8.33361 60.5263 8.47981C60.6725 8.62601 60.9649 8.69911 61.1842 8.62601C61.4035 8.55291 61.4766 8.40671 61.5497 8.18741C61.9152 5.92133 63.1579 4.02075 65.0584 2.77806C65.8625 2.55876 66.6666 2.33946 67.4707 2.19326C66.7397 3.14355 66.3742 4.24005 65.9356 5.40964C65.8625 5.70203 66.0087 6.06753 66.3011 6.14063C66.5935 6.21373 66.959 6.14063 67.1052 5.77513C67.4707 4.67864 67.8362 3.58215 68.6403 2.70496C69.152 2.19326 69.7368 1.90086 70.3947 1.68157C71.8567 1.53537 73.3187 1.46227 74.7807 1.53537C73.1725 2.19326 72.076 3.07046 71.345 4.31315C71.1988 4.60554 71.2719 4.97104 71.5643 5.11724C71.8567 5.26344 72.2222 5.19034 72.4415 4.89794C73.6111 2.99736 75.731 2.26636 77.9239 1.90086C78.9473 2.12016 79.8976 2.33946 80.8479 2.70496C79.3859 2.99736 78.1432 3.87455 77.3391 5.19034C77.1929 5.48274 77.266 5.84823 77.5584 5.99443C77.8508 6.21373 78.2163 6.14063 78.4356 5.84823C79.7514 3.80145 82.2368 3.21665 84.3567 4.45934C84.4298 4.53244 84.5029 4.53244 84.576 4.53244C87.7193 6.50613 89.9853 9.21081 91.228 12.3541C90.0584 12.4272 88.962 12.8658 88.0117 13.5968C87.2807 13.5968 86.4766 13.6699 85.7456 13.6699C84.6491 12.0617 83.0409 10.9652 80.921 10.3804C80.8479 10.2342 80.7748 10.1611 80.7017 10.088C80.5555 9.9418 80.3362 9.9418 80.19 10.0149C80.1169 10.0149 80.0438 10.088 79.9707 10.1611H79.8976C77.6315 9.7225 74.8538 9.8687 72.0029 10.4535C71.9298 10.3804 71.7836 10.3073 71.6374 10.2342C71.4181 10.1611 71.1988 10.3073 71.0526 10.5266C70.9795 10.5997 70.9795 10.6728 70.9064 10.7459C70.0292 11.0383 69.2251 11.4769 68.4941 11.9886C68.3479 11.9886 68.2017 12.0617 68.0555 12.1348C67.9093 12.2079 67.8362 12.3541 67.8362 12.5003C67.3976 12.8658 67.0321 13.2313 66.6666 13.6699C66.5204 13.6699 66.4473 13.743 66.3011 13.8161C66.1549 13.8892 66.0818 14.1085 66.0818 14.2547C66.0818 14.3278 66.0818 14.3278 66.0818 14.4009C64.766 16.1553 63.962 18.3482 63.6696 20.6874C63.0117 26.1699 64.5467 32.3102 67.7631 36.4038C70.614 40.0588 75.5848 42.2517 80.921 42.1055C83.7719 42.0324 86.2573 40.936 88.0117 38.8892C88.962 37.7927 89.6929 36.55 90.3508 35.5266C90.8625 34.7225 91.3742 33.7722 91.3742 32.7488C91.8128 32.4564 92.1783 32.164 92.3245 31.8716C92.3976 31.8716 92.4707 31.8716 92.6169 31.8716C91.959 34.2839 90.9356 37.2079 88.8888 39.474C86.769 41.74 83.7719 42.8365 80.7748 42.3979C80.5555 42.3979 80.3362 42.471 80.19 42.6172C80.0438 42.8365 79.9707 43.0558 80.1169 43.2751C80.19 43.4213 80.3362 43.5675 80.5555 43.6406C83.845 44.0792 86.9152 43.1289 89.3274 40.8629C92.1052 38.2313 93.2748 34.5032 94.0058 31.9447V31.8716C94.6637 31.7254 95.3947 31.5061 96.0526 31.1406C96.1257 32.3102 96.1257 33.4798 96.0526 34.6494C95.8333 34.1377 95.614 33.626 95.3216 33.1874C94.5906 32.7488 94.3713 32.6026 94.152 32.6757ZM37.7924 64.2547C37.6462 63.8892 37.2807 63.743 36.9883 63.8892C36.6959 64.0354 36.5497 64.3278 36.6228 64.6202C36.8421 65.205 37.1345 65.6436 37.5 66.0822C37.4269 66.0822 37.3538 66.0822 37.2807 66.0822C36.1111 64.8395 35.2339 63.3775 34.7222 61.6962C34.6491 61.3307 34.2836 61.1845 33.9181 61.3307C33.6257 61.4038 33.4064 61.7693 33.5526 62.0617C33.9912 63.5237 34.7222 64.8395 35.6725 66.0822C35.5263 66.0822 35.3801 66.0822 35.2339 66.0822C34.7222 65.4974 34.3567 64.6933 34.0643 63.9623C33.9181 63.5968 33.5526 63.5237 33.1871 63.5968C32.8947 63.743 32.7485 64.0354 32.8947 64.3278C32.8947 64.4009 32.9678 64.474 32.9678 64.5471C32.6023 63.8892 32.2368 63.1582 31.9444 62.4272C31.7982 62.1348 31.5058 61.9886 31.2134 62.1348C30.921 62.281 30.7017 62.6465 30.8479 63.012C31.2134 63.8161 31.652 64.6933 32.0906 65.4974C29.6052 64.7664 27.193 63.5237 25.1462 61.9155C25.2193 61.7693 25.2924 61.6231 25.3655 61.4769L25.5117 61.1114C26.0965 59.7956 26.9006 57.9681 28.1432 57.3833C28.5087 57.2371 29.0204 57.164 29.3128 57.3102C29.8976 57.5295 29.9707 57.9681 30.0438 58.6991V59.0646C30.1169 59.5032 30.1169 60.088 30.4824 60.4535C30.7017 60.6728 30.9941 60.819 31.2865 60.819C31.4327 60.8921 31.5789 60.8921 31.7982 60.819C31.9444 60.7459 32.0906 60.5997 32.1637 60.4535C32.8947 58.626 33.6988 54.6786 31.2865 52.9974C29.3128 51.6085 26.7544 52.705 25.3655 54.5324C23.9035 56.5792 23.538 59.2108 23.1725 61.6962C23.0994 62.3541 23.0263 63.012 22.8801 63.5968C22.5877 65.2781 22.2222 66.8862 21.7105 68.4944C21.345 69.7371 20.9064 71.0529 20.0292 72.0763L18.9327 69.8833C18.7865 69.5909 18.421 69.4447 18.1286 69.5909C17.8362 69.7371 17.69 70.1026 17.8362 70.4681L18.9327 72.7342C18.9327 72.8073 19.0058 72.8073 19.0058 72.8073C18.9327 72.8804 18.8596 72.8804 18.7865 72.9535C18.7134 72.9535 18.6403 73.0266 18.6403 73.0266C18.6403 73.0266 18.6403 72.9535 18.5672 72.9535C16.5204 70.1026 14.9122 66.9593 13.8158 63.5968C13.7427 63.3775 13.5965 63.2313 13.3772 63.1582C13.1579 63.0851 12.9386 63.1582 12.7924 63.3775C12.6462 63.5237 12.6462 63.743 12.7193 63.9623C13.8158 67.3979 15.497 70.6143 17.5438 73.5383C17.2514 73.6114 16.959 73.7576 16.7397 73.8307C15.6432 72.4418 14.8392 70.9067 14.1813 69.2985C14.0351 68.933 13.6696 68.8599 13.3772 68.933C13.0848 69.0792 12.9386 69.3716 13.0848 69.664C13.6696 71.1991 14.4737 72.6611 15.4239 73.9769C15.2046 73.9769 15.0584 73.9769 14.8392 73.9769C14.8392 73.8307 14.8392 73.6845 14.7661 73.6114L12.5731 69.4447C12.5 69.2254 12.2807 69.1523 12.0614 69.1523C11.9883 69.1523 11.8421 69.1523 11.769 69.2254C11.4766 69.3716 11.3304 69.7371 11.4766 70.0295L13.4503 73.6845C13.3772 73.6114 13.3041 73.6114 13.231 73.5383C13.0117 73.3921 12.7924 73.2459 12.5731 73.0997C11.9152 72.4418 11.4035 71.5646 10.8918 70.6874C9.94149 68.933 9.2105 66.9593 8.845 64.8395C8.7719 64.6202 8.6988 64.474 8.4795 64.4009C8.2602 64.3278 8.0409 64.4009 7.82161 64.5471C7.67541 64.6933 7.60231 64.9126 7.60231 65.1319C7.9678 67.1786 8.6257 69.1523 9.57599 70.9798C10.0877 71.9301 10.5994 72.7342 11.1842 73.4652C7.23681 72.0032 3.87424 68.4944 2.11985 65.7898C1.09646 64.1816 0.877163 62.5734 1.53506 61.1845C2.19295 59.9418 3.28944 58.8453 4.89763 57.7488C6.21342 56.8716 7.74851 56.2868 9.42979 55.8482L9.94149 55.702C11.2573 55.4096 12.7193 55.0441 13.962 54.3862C16.3742 53.0705 18.3479 50.1465 17.1052 47.2956C15.8625 44.5178 12.7924 44.0792 10.3801 44.8833C10.1608 44.8102 9.94149 44.8833 9.79529 45.0295C9.72219 45.1026 9.72219 45.1026 9.64909 45.1757C9.57599 45.1757 9.57599 45.2488 9.50289 45.2488C9.35669 45.3219 9.2105 45.4681 9.2105 45.6143C9.2105 45.7605 9.21049 45.9067 9.2836 46.0529C9.21049 46.4915 9.2836 46.9301 9.57599 47.2956C9.94149 47.8804 10.5263 48.1728 10.9649 48.4652C11.6959 48.8307 12.2076 49.1231 12.2076 50.1465C12.2076 50.7313 12.2076 51.4623 11.9883 52.1202C11.9152 52.2664 11.9152 52.4126 11.769 52.4857C11.6228 52.4126 11.4766 52.4126 11.4035 52.4126C11.3304 52.4126 11.1842 52.4857 11.1111 52.5588C10.7456 52.2664 10.0146 51.7547 9.94149 51.6816C9.50289 51.3161 9.1374 50.9506 8.7719 50.5851C7.89471 49.7079 7.09061 48.7576 6.50582 47.7342C5.11693 45.5412 4.38593 43.0558 4.38593 40.6436C4.38593 39.1816 4.67833 37.7196 5.26313 36.3307L5.77482 39.1816C5.84792 39.4009 5.92102 39.5471 6.14032 39.6202C6.35962 39.6933 6.57892 39.6202 6.79821 39.474C6.94441 39.3278 7.01751 39.1085 7.01751 38.8892L6.21342 34.6494C6.35962 34.4301 6.57892 34.1377 6.72512 33.9184C6.79821 35.1611 7.01751 36.3307 7.45611 37.4272C7.60231 37.7927 7.96781 37.9389 8.2602 37.7927C8.5526 37.6465 8.6988 37.3541 8.5526 37.0617C8.0409 35.6728 7.82161 34.2108 7.89471 32.7488V32.6757C8.0409 32.5295 8.1871 32.4564 8.3333 32.3102C8.3333 33.1874 8.3333 34.0646 8.4795 34.9418C8.5526 35.3073 8.845 35.5266 9.2105 35.5266C9.50289 35.5266 9.72219 35.2342 9.72219 34.8687C9.57599 33.7722 9.57599 32.6757 9.57599 31.6523C9.57599 31.5792 9.57599 31.5792 9.57599 31.5061C9.79529 31.3599 10.0146 31.2868 10.2339 31.1406C10.2339 31.2137 10.2339 31.2137 10.2339 31.2868L10.4532 32.895C10.4532 33.1143 10.5994 33.2605 10.8187 33.3336C10.8918 33.3336 10.9649 33.4067 11.038 33.4067C11.1842 33.4067 11.3304 33.3336 11.4766 33.2605C11.6228 33.1143 11.769 32.895 11.6959 32.6757L11.4766 31.0675C11.4766 30.9213 11.4035 30.8482 11.3304 30.7751C11.4766 30.702 11.6228 30.702 11.769 30.6289C11.8421 30.702 11.9883 30.702 12.0614 30.702C12.7193 30.6289 13.3041 30.6289 13.962 30.5558C16.1549 30.3365 18.421 30.1903 20.6871 30.2634C22.8801 30.3365 25.0731 31.2868 27.193 32.2371C27.6315 32.4564 28.0701 32.6026 28.4356 32.8219C33.5526 34.9418 38.0848 37.0617 41.228 41.1553C43.7865 44.5178 45.4678 48.7576 46.1257 53.436C46.4181 55.4827 46.6374 58.1874 45.9795 60.5997C45.3216 62.9389 43.5672 64.6933 41.1549 65.5704C40.497 65.7897 39.7661 66.0091 39.0351 66.0822C38.4503 65.4974 38.0117 64.9126 37.7924 64.2547ZM27.0468 54.6055C27.7046 54.0207 28.5087 53.6553 29.3128 53.6553C29.459 53.6553 29.5321 53.6553 29.6783 53.6553C30.3362 53.7284 30.8479 54.0938 31.2134 54.6055C32.0906 56.0675 31.652 58.1143 31.3596 59.2108C31.2865 59.0646 31.2865 58.8453 31.2865 58.6991C31.2865 58.4798 31.2865 58.1874 31.2134 57.9681C31.2134 57.8219 31.1403 57.6026 31.0672 57.3833C30.8479 56.8716 30.4824 56.433 29.9707 56.2137C28.9473 55.702 27.7046 55.9944 26.6813 56.8716C25.8041 57.6757 25.2193 58.7722 24.7076 59.8687C25.0731 57.895 25.6579 55.9213 27.0468 54.6055ZM13.1579 52.2664C13.3041 51.7547 13.7427 50.0003 13.231 48.7576C13.0117 48.2459 12.5731 47.9535 12.2807 47.7342C12.2076 47.6611 11.9883 47.588 11.769 47.4418C11.2573 47.2225 10.4532 46.7839 10.3801 46.3453C10.3801 46.2722 10.3801 46.2722 10.3801 46.126C12.2076 45.395 13.962 45.6143 15.1315 46.7108C16.5204 48.0266 16.3742 49.9272 15.5701 51.243C14.7661 52.5588 13.5234 53.2898 12.2076 53.8014C12.6462 53.436 13.0117 52.9243 13.1579 52.2664ZM25.3655 29.971C26.2427 25.8775 29.2397 22.5149 33.114 21.3453C34.8684 20.8336 36.769 20.6874 38.6696 21.126C40.9356 23.9038 42.4707 27.1933 43.1286 30.702C42.0321 30.4096 40.9356 30.9213 40.2777 31.3599C38.962 32.164 37.2807 33.4067 36.9883 35.5266C35.3801 34.5032 33.6257 33.6991 31.9444 32.895L30.7017 32.3102C29.0935 31.5061 27.193 30.6289 25.3655 29.971ZM42.3976 21.1991C42.4707 21.126 42.6169 21.0529 42.6169 20.9798C42.9093 20.5412 43.1286 20.1026 43.421 19.7371C43.5672 19.5178 43.7134 19.2985 43.9327 19.1523C43.9327 19.1523 44.0058 19.0792 44.0058 19.0061L44.0789 18.933C44.152 18.933 44.2982 18.8599 44.3713 18.8599C44.5906 18.7137 44.7368 18.4944 44.7368 18.202C44.7368 17.9827 44.5175 17.7634 44.2982 17.6172C44.0058 17.5441 43.7134 17.5441 43.4941 17.7634C42.7631 18.4213 42.1052 19.4447 41.6666 20.3219C41.5935 20.4681 41.5935 20.6143 41.5935 20.7605C40.8625 20.4681 40.1315 20.1757 39.4006 20.0295C39.2544 19.8833 39.0351 19.8102 38.8158 19.8833C36.769 19.5178 34.7222 19.5909 32.8216 20.1757C28.5818 21.4915 25.2193 25.1465 24.269 29.6055C23.6842 29.4593 23.2456 29.3131 22.7339 29.1669C21.8567 28.9476 21.0526 28.8745 20.1754 28.8745C19.5175 28.8745 18.7865 28.9476 18.1286 28.9476H17.69C17.1052 25.0734 19.2251 21.7108 21.1257 19.5178C23.0263 17.3248 24.7807 15.7898 26.5351 14.7664C25.9503 15.8629 25.4386 16.9593 25.0731 18.1289C25 18.3482 25 18.5675 25.1462 18.7137C25.2924 18.8599 25.5117 18.933 25.731 18.933C25.9503 18.8599 26.0965 18.7137 26.1696 18.5675C26.7544 16.9593 27.5584 15.3512 28.5818 13.8161L28.728 13.743C28.8742 13.6699 29.0204 13.5968 29.1666 13.5968C29.3859 13.5237 29.6052 13.4506 29.8245 13.3775C28.8011 14.6202 28.0701 15.936 27.6315 17.471C27.5584 17.6903 27.6315 17.9096 27.7777 18.0558C27.9239 18.202 28.1432 18.2751 28.3625 18.2751C28.5818 18.202 28.728 18.0558 28.8011 17.8365C29.3859 16.1553 30.2631 14.6202 31.5789 13.3044C31.652 13.2313 31.7251 13.0851 31.7251 12.9389C32.0906 12.8658 32.383 12.7927 32.7485 12.7927C31.7982 13.9623 30.7748 16.0091 30.7017 16.3745C30.5555 16.6669 30.7017 16.9593 30.9941 17.1055C31.2865 17.2517 31.7251 17.1055 31.8713 16.74C32.1637 16.0822 32.4561 15.4243 32.8216 14.8395C33.0409 14.474 33.2602 14.1816 33.4795 13.8892L33.5526 13.743C33.6257 13.5968 33.845 13.3775 33.9181 13.3044C34.1374 13.3044 34.3567 13.2313 34.5029 13.012C34.576 12.8658 34.6491 12.7196 34.6491 12.5734C34.9415 12.5734 35.307 12.5734 35.5994 12.5734C34.5029 13.8161 33.6257 15.2781 33.0409 16.8131C32.8947 17.1055 33.0409 17.3979 33.3333 17.5441C33.6257 17.6903 34.0643 17.5441 34.2105 17.1786C34.7953 15.6436 35.7456 14.1816 36.8421 12.9389C36.9152 12.8658 36.9883 12.7196 36.9883 12.6465C37.5731 12.7196 38.0848 12.8658 38.5965 13.0851C38.231 13.3775 37.9386 13.8161 37.6462 14.2547C37.5731 14.3278 37.5 14.474 37.5 14.5471C36.9152 15.4243 36.4035 16.3745 35.8918 17.3979C35.8187 17.5441 35.8187 17.7634 35.9649 17.9827C36.1111 18.202 36.3304 18.2751 36.5497 18.2751C36.769 18.2751 36.9152 18.1289 36.9883 17.9096C37.3538 17.1786 37.6462 16.5207 38.0848 15.8629C38.1579 15.7898 38.231 15.6436 38.3041 15.4974C38.6696 14.9126 39.1813 13.9623 39.693 13.8892C39.8391 13.8892 39.9853 13.8161 40.0584 13.6699C40.3508 13.8161 40.6432 14.0354 40.9356 14.1816C40.0584 15.4243 39.1813 16.6669 38.3041 17.9827C38.1579 18.202 38.1579 18.3482 38.231 18.5675C38.3041 18.7868 38.5234 18.933 38.7427 18.933C38.962 18.933 39.1813 18.8599 39.2544 18.6406C40.0584 17.3979 40.9356 16.1553 41.8128 14.9126C42.1783 15.205 42.5438 15.5705 42.9093 15.936C42.69 15.936 42.5438 15.936 42.3976 16.1553C41.6666 17.0324 40.9356 18.0558 40.2046 19.0792C40.0584 19.2985 40.0584 19.4447 40.2046 19.664C40.2777 19.8833 40.497 20.0295 40.7163 20.0295C40.9356 20.0295 41.0818 19.9564 41.228 19.7371C41.8859 18.7137 42.5438 17.8365 43.3479 16.9593C43.4941 16.8131 43.4941 16.6669 43.4941 16.5207C44.2251 17.3248 44.9561 18.2751 45.614 19.2985C45.3216 20.5412 45.1023 21.7839 44.9561 23.0997C44.2251 22.2956 43.3479 21.7108 42.3976 21.1991ZM39.4006 37.2079C38.962 36.8424 38.5234 36.4769 38.0848 36.1845C38.1579 36.1114 38.231 35.9652 38.231 35.7459C38.3041 34.2108 39.5467 33.2605 40.7894 32.4564C41.228 32.164 42.1783 31.5792 42.7631 31.7985C43.0555 31.8716 43.2017 32.0909 43.421 32.3833C43.421 32.4564 43.4941 32.5295 43.5672 32.6026C43.7134 32.895 43.7865 33.1874 43.8596 33.626C44.152 35.0149 43.9327 36.55 43.6403 37.7927V38.012C43.421 38.9623 43.2017 40.0588 42.5438 40.7898C41.5935 39.4009 40.5701 38.2313 39.4006 37.2079ZM44.9561 37.5734V37.4272C45.2485 35.6728 45.4678 33.4067 44.5906 31.7985C44.152 28.1436 42.7631 24.7079 40.6432 21.7108C42.2514 22.3687 43.6403 23.319 44.8099 24.5617C44.5906 27.9974 44.9561 31.6523 45.9064 35.3073C45.9064 35.4535 45.9795 35.5997 46.0526 35.7459L46.1257 35.9652C45.9064 37.1348 45.4678 37.8658 44.8099 38.5237C44.883 38.2313 44.883 37.9389 44.9561 37.5734ZM86.1842 23.1728C86.5497 25.7313 87.5731 30.1172 90.5701 31.3599L90.497 31.433C90.3508 31.3599 90.1315 31.3599 89.9122 31.5061C89.766 31.5792 89.6198 31.7254 89.6198 31.9447C89.1812 32.164 88.5234 32.3833 87.8655 32.6026C87.1345 32.6026 86.6228 31.9447 86.1842 31.3599C86.038 31.2137 85.8918 31.1406 85.6725 31.1406C85.4532 31.1406 85.2339 31.3599 85.1608 31.5792C85.0877 31.7985 85.0877 32.0178 85.2339 32.2371C85.5263 32.5295 85.8187 32.895 86.1111 33.1874C85.8918 33.2605 85.6725 33.3336 85.5994 33.3336C85.307 33.4067 85.0146 33.4798 84.7222 33.4798C83.7719 33.1143 83.0409 32.164 82.4561 31.433C82.3099 31.2868 82.1637 31.2137 81.9444 31.2137C81.7251 31.2137 81.5058 31.433 81.4327 31.6523C81.3596 31.8716 81.3596 32.0909 81.5058 32.3102C81.8713 32.8219 82.3099 33.3336 82.8216 33.8453C82.5292 33.8453 82.3099 33.9184 82.0906 33.9184C80.7748 33.6991 79.8245 32.6026 78.8742 31.3599C78.728 31.2137 78.5818 31.1406 78.3625 31.1406H78.2894C78.0701 31.1406 77.8508 31.2868 77.7777 31.5061C77.7046 31.6523 77.7046 31.8716 77.8508 32.0178C78.2894 32.6026 78.8011 33.2605 79.459 33.8453C77.8508 33.6991 76.1696 33.4067 75.2193 32.3102C74.0497 30.9944 73.0994 28.8014 72.5877 27.1933C71.9298 24.9272 72.4415 22.2225 73.9766 20.0295C73.3187 21.7108 72.8801 23.4652 72.807 25.2196C72.807 25.5851 73.0263 25.8044 73.3918 25.8044C73.6842 25.8044 74.0497 25.5851 74.0497 25.2196C74.1959 22.4418 75.1462 19.8102 76.7543 17.5441C76.7543 17.6172 76.6813 17.6903 76.6813 17.7634C76.0234 19.0061 75.3655 20.395 75.4386 22.0032C75.4386 22.3687 75.731 22.588 76.0965 22.588C76.462 22.588 76.6813 22.2956 76.6813 22.0032C76.6082 19.9564 78.1432 16.9593 79.8245 15.936C82.0906 15.205 84.4298 15.0588 86.9152 14.9126C86.6228 15.5705 86.4766 16.3745 86.4035 16.9593C86.4035 17.1055 86.3304 17.1786 86.3304 17.3248C85.8918 19.1523 85.8918 21.1991 86.1842 23.1728ZM65.2046 25.4389C65.3508 25.6582 65.5701 25.7313 65.7894 25.6582C66.0087 25.6582 66.228 25.512 66.3011 25.2927C66.3742 25.1465 66.3742 24.9272 66.228 24.7079C65.2777 23.3921 64.9122 21.857 64.6199 20.1026C64.6199 19.9564 64.6929 19.7371 64.6929 19.5909C64.9122 20.4681 65.2046 21.3453 65.5701 22.2225C65.7163 22.5149 66.0087 22.6611 66.3742 22.5149C66.6666 22.3687 66.8859 22.0032 66.6666 21.6377C66.0087 20.2488 65.6432 18.7868 65.6432 17.2517C65.6432 17.1786 65.6432 17.0324 65.5701 16.9593C65.6432 16.8862 65.6432 16.8131 65.7163 16.6669C65.7894 17.6903 66.0087 18.6406 66.3011 19.5909C66.3742 19.8102 66.5204 19.9564 66.7397 20.0295C66.959 20.1026 67.1783 20.0295 67.3245 19.8833C67.4707 19.7371 67.5438 19.5178 67.4707 19.2985C67.0321 17.8365 66.8859 16.3745 66.959 14.7664C67.1052 14.6202 67.2514 14.4009 67.3976 14.2547C67.3245 15.1319 67.3245 16.0091 67.3976 16.8131C67.3976 17.0324 67.5438 17.2517 67.69 17.3248C67.9093 17.3979 68.1286 17.3979 68.3479 17.3248C68.4941 17.1786 68.6403 17.0324 68.6403 16.8131C68.5672 15.6436 68.6403 14.4009 68.7134 13.1582C69.0058 12.9389 69.3713 12.7196 69.7368 12.5003C69.4444 13.1582 69.2982 13.8161 69.152 14.474C69.0789 14.6933 69.2251 14.9126 69.3713 15.0588C69.5175 15.205 69.8099 15.2781 70.0292 15.205C70.2485 15.1319 70.3216 14.9857 70.3947 14.7664C70.614 13.743 70.9064 12.7927 71.4912 11.8424C71.7836 11.7693 72.1491 11.6962 72.5146 11.6231C72.076 12.3541 71.7105 13.2313 71.4912 14.0354C71.4181 14.2547 71.4912 14.474 71.6374 14.6202C71.7836 14.7664 72.076 14.8395 72.2953 14.7664C72.5146 14.6933 72.6608 14.5471 72.6608 14.3278C72.8801 13.2313 73.3918 12.2079 74.1959 11.3307C74.4883 11.3307 74.8538 11.2576 75.1462 11.2576C74.4883 11.8424 73.9035 12.5734 73.4649 13.3775C73.2456 13.743 73.4649 14.1085 73.7573 14.2547C74.0497 14.4009 74.4152 14.3278 74.5614 14.0354C75.1462 12.8658 76.0965 11.9155 77.266 11.2576C77.4853 11.2576 77.6315 11.2576 77.8508 11.2576C77.1929 11.7693 76.6813 12.3541 76.2427 12.9389C76.0965 13.0851 76.0965 13.3044 76.1695 13.5237C76.2427 13.743 76.462 13.8892 76.6813 13.8892C76.9006 13.8892 77.1198 13.8161 77.266 13.5968C77.9239 12.7196 78.728 11.9886 79.7514 11.4769C80.19 11.55 80.5555 11.6962 80.9941 11.7693C79.9707 12.1348 79.0204 12.5734 78.1432 13.2313C77.9239 13.3775 77.8508 13.5968 77.8508 13.8161C77.8508 14.0354 77.997 14.2547 78.2163 14.3278C78.3625 14.4009 78.5818 14.4009 78.8011 14.2547C79.8976 13.4506 81.1403 12.9389 82.4561 12.6465C82.5292 12.6465 82.6023 12.6465 82.6023 12.5734C82.8947 12.7196 83.114 12.9389 83.3333 13.0851C82.3099 13.012 81.2865 13.1582 80.3362 13.3775C79.9707 13.4506 79.8245 13.8161 79.8976 14.1085C79.8976 14.2547 79.9707 14.3278 80.1169 14.4009C79.459 14.5471 78.8742 14.7664 78.3625 14.9857C78.2894 14.9126 78.2163 14.7664 78.1432 14.7664C77.9239 14.6202 77.6315 14.6933 77.4122 14.8395C77.0467 15.205 76.7543 15.5705 76.3889 15.936C73.8304 17.5441 72.076 20.1026 71.345 23.0997C70.9795 24.781 71.1257 26.4623 71.8567 28.2167C72.3684 29.5324 73.0994 31.2137 74.1959 32.5295C75.5848 34.2839 78.3625 35.088 82.2368 34.8687H82.3099C82.383 34.8687 82.383 34.8687 82.4561 34.8687C82.6023 34.8687 82.6754 34.8687 82.7485 34.7956C83.0409 34.7956 83.2602 34.7225 83.5526 34.7225C83.9181 34.6494 84.2836 34.6494 84.7222 34.5763C84.7953 34.5763 84.9415 34.6494 85.0877 34.6494C85.3801 34.7225 85.5994 34.5763 85.7456 34.357C86.9152 34.0646 88.0117 33.7722 89.035 33.3336C89.1082 33.2605 89.2543 33.2605 89.4006 33.1874C89.4736 33.1874 89.6198 33.1143 89.6929 33.0412C89.5467 33.6991 89.1813 34.2839 88.8158 34.8687L88.5965 35.2342C88.0117 36.1845 87.3538 37.2079 86.5497 38.012C85.0877 39.6202 83.0409 40.4974 80.7748 40.5705C76.1696 40.7898 71.4912 38.9623 68.8596 35.8921C66.3742 32.9681 64.766 28.5091 64.5468 23.7576C64.6199 24.5617 64.9122 25.0003 65.2046 25.4389ZM95.3216 29.3862C95.3216 29.4593 95.3216 29.4593 95.3216 29.5324C94.152 30.3365 92.9093 30.6289 91.7397 30.4827C91.5935 30.3365 91.3742 30.2634 91.1549 30.3365C89.5467 29.8248 88.7427 27.9974 88.0848 26.0968C87.4269 24.2693 87.1345 22.4418 87.2076 20.5412C87.2076 19.7371 87.7193 15.3512 88.231 14.8395C88.4502 14.8395 88.5965 14.7664 88.7427 14.6933C88.8158 14.5471 88.8888 14.474 88.8888 14.2547C89.6929 13.743 90.5701 13.5237 91.4473 13.5237C91.5204 13.6699 91.7397 13.743 91.8859 13.743C92.0321 13.743 92.2514 13.6699 92.3976 13.5968C94.3713 13.9623 96.345 15.4974 97.4415 17.471C99.5614 21.3453 99.1228 25.9506 96.345 28.7283C96.2719 28.8014 96.2719 28.8014 96.1988 28.8745C96.0526 28.8014 95.8333 28.8014 95.6871 28.8745C95.3947 28.9476 95.2485 29.1669 95.3216 29.3862ZM31.5789 3.50905C31.7251 3.43595 31.7982 3.36285 31.8713 3.21665C34.5029 3.43595 36.9152 4.09385 39.1813 5.11724C43.0555 6.94472 46.1988 9.9418 47.9532 13.5968C47.2222 14.9126 46.6374 16.2284 46.1988 17.6903C44.3713 15.0588 42.2514 13.2313 39.8391 12.2079C36.6959 10.819 32.6754 10.8921 28.6549 12.4272C28.5087 12.3541 28.4356 12.3541 28.2894 12.3541C28.1432 12.3541 27.997 12.5003 27.9239 12.6465L27.8508 12.7927C25.0731 14.0354 22.2953 16.3745 19.7368 19.5178C17.9824 21.7108 16.0087 25.1465 16.5935 29.0938C15.1315 29.1669 13.6696 29.24 12.2076 29.3862C12.0614 29.3131 11.9152 29.3131 11.769 29.3131C10.1608 29.6786 8.6988 30.4096 7.45611 31.5061C6.35962 29.1669 6.21342 26.6085 6.72512 23.3921C7.01751 24.1962 7.38301 24.9272 7.82161 25.6582C7.96781 25.9506 8.3333 26.0237 8.6257 25.8775C8.9181 25.7313 9.0643 25.3658 8.845 25.0734C8.114 23.7576 7.60231 22.4418 7.23681 20.9798C7.38301 20.395 7.52921 19.8102 7.67541 19.1523C7.82161 18.7137 7.96781 18.2751 8.114 17.7634C8.2602 18.7868 8.5526 19.8833 8.9181 20.8336C8.9912 21.0529 9.21049 21.1991 9.42979 21.1991C9.64909 21.2722 9.86839 21.126 10.0146 20.9798C10.1608 20.8336 10.1608 20.6143 10.0877 20.395C9.42979 18.7868 9.1374 17.1055 9.1374 15.3512C9.35669 14.9857 9.50289 14.6933 9.72219 14.3278C9.79529 15.6436 10.0146 16.9593 10.3801 18.202C10.4532 18.5675 10.8187 18.7137 11.1111 18.6406C11.4766 18.5675 11.6228 18.202 11.5497 17.9096C11.1111 16.3015 10.8918 14.6202 10.8187 12.9389C10.8187 12.8658 10.8187 12.8658 10.8187 12.7927C11.2573 12.2079 11.769 11.6962 12.2807 11.1845C12.2807 12.4272 12.2807 13.6699 12.3538 14.7664C12.3538 15.1319 12.7193 15.3512 13.0848 15.3512C13.231 15.3512 13.3772 15.2781 13.4503 15.205C13.5965 15.0588 13.5965 14.9126 13.5965 14.7664C13.4503 13.1582 13.4503 11.55 13.5234 9.9418L13.5965 9.8687C14.0351 9.43011 14.5468 8.91841 14.9853 8.47981C15.2046 8.33361 15.3508 8.11432 15.5701 7.96812L15.4239 11.6231C15.4239 11.8424 15.497 12.0617 15.7163 12.1348C15.9356 12.281 16.1549 12.281 16.3742 12.1348C16.5935 12.0617 16.6666 11.8424 16.6666 11.6231L16.8859 7.60262C17.0321 7.38332 17.0321 7.16402 16.8859 7.01782V6.94472C17.69 6.35993 18.4941 5.84823 19.2982 5.40964C18.9327 6.87162 18.6403 8.33361 18.4941 9.7225C18.4941 10.0149 18.6403 10.3073 19.0058 10.3804C19.2982 10.3804 19.6637 10.2342 19.7368 9.7956C19.883 8.11432 20.2485 6.35993 20.7602 4.67864C21.345 4.60554 21.9298 4.38624 22.4415 4.24005C21.9298 5.33654 21.4912 6.43303 21.1988 7.60262C21.1257 7.74882 21.1988 7.96812 21.2719 8.11432C21.345 8.26051 21.4912 8.33361 21.6374 8.33361C22.0029 8.40671 22.2953 8.26051 22.3684 7.89502C22.7339 6.65233 23.1725 5.40964 23.8304 4.24005C23.9035 4.09385 23.9035 3.94765 23.9035 3.72835C24.4152 3.65525 25 3.50905 25.5848 3.43595C25.0731 4.09385 24.7076 4.75174 24.4883 5.55584C24.4152 5.84823 24.5614 6.21373 24.9269 6.28683C25.2924 6.35993 25.5848 6.21373 25.731 5.84823C26.0234 4.82484 26.6082 4.02075 27.4122 3.28975L27.4853 3.21665C28.2163 3.14355 29.0204 3.14355 29.7514 3.14355C29.3128 3.50905 29.0204 3.94765 28.6549 4.38624C28.5087 4.53244 28.5087 4.75174 28.5818 4.97104C28.6549 5.19034 28.8742 5.33654 29.0935 5.33654C29.3128 5.33654 29.5321 5.26344 29.6783 5.04414C29.8976 4.67864 30.19 4.38624 30.4093 4.16695C30.5555 4.02075 30.7017 3.94765 30.8479 3.80145C30.921 3.72835 30.9941 3.65525 31.1403 3.65525H31.2134C31.3596 3.58215 31.4327 3.58215 31.5789 3.50905Z" fill="#FBDBC6"/>
<path d="M96.5642 24.6347C96.4911 24.854 96.6373 25.0733 96.7835 25.2195C96.9297 25.2926 97.0759 25.3657 97.2221 25.3657C97.2952 25.3657 97.3683 25.3657 97.4414 25.3657C97.6607 25.2926 97.7338 25.1464 97.8069 24.9271C98.5379 20.9066 97.0759 15.9358 92.2514 14.4007C92.0321 14.3276 91.8128 14.4007 91.6666 14.5469C91.5204 14.6931 91.4473 14.9124 91.4473 15.1317C91.5204 15.351 91.6666 15.4972 91.8859 15.5703C95.9794 16.8861 97.149 21.199 96.5642 24.6347Z" fill="#FBDBC6"/>
<path d="M91.8129 28.875C89.9854 28.4364 89.4737 26.5358 89.1082 24.5621C89.0351 24.2697 88.7427 24.0504 88.4503 24.1235C88.1579 24.1966 87.8655 24.489 87.9386 24.8545C88.3772 27.1937 89.1813 29.5329 91.5205 30.1177C91.5936 30.1177 91.5936 30.1177 91.6667 30.1177C91.9591 30.1177 92.1784 29.8984 92.2515 29.606C92.3246 29.2405 92.1784 28.9481 91.8129 28.875Z" fill="#FBDBC6"/>
</g>
<defs>
<clipPath id="clip0_85_244">
<rect width="100" height="75.3655" fill="white"/>
</clipPath>
</defs>
</svg>
