<svg width="100" height="107" viewBox="0 0 100 107" fill="none" xmlns="http://www.w3.org/2000/svg">
<g clip-path="url(#clip0_85_190)">
<path d="M95.1428 50.8576C95.3333 50.1909 94.6667 49.429 94.0952 49.8099C93.9048 50.0004 93.8095 50.1909 93.7143 50.4766C93.5238 50.8576 93.3333 51.1433 93.0476 51.429C92.8571 51.7147 92.5714 51.9052 92.3809 52.0956C92.1905 52.2861 91.8095 52.3814 91.7143 52.6671C91.3333 53.2385 92 54.0004 92.6667 53.7147C93.7143 53.2385 94.6667 51.9052 95.1428 50.8576Z" fill="#FBDBC6"/>
<path d="M94.3811 56.2865C94.7621 55.9055 95.0478 55.4293 95.3335 55.0484C95.524 54.7627 95.8097 54.2865 95.6192 53.9055C95.4287 53.3341 94.6668 53.2389 94.2859 53.7151C94.0002 54.2865 93.6192 54.8579 93.143 55.3341C92.8573 55.6198 92.6668 55.9055 92.7621 56.2865C92.8573 56.5722 93.0478 56.7627 93.3335 56.8579C93.8097 56.8579 94.0954 56.5722 94.3811 56.2865Z" fill="#FBDBC6"/>
<path d="M95.2381 57.1428C94.8572 57.619 94.5714 57.9999 94.1905 58.4761C94 58.6666 93.9048 58.9523 94 59.238C94.2857 59.9047 94.9524 59.7142 95.4286 59.3333C95.8095 58.9523 96.0952 58.5714 96.381 58.1904C96.5714 57.9047 96.7619 57.619 96.6667 57.3333C96.381 56.7618 95.6191 56.6666 95.2381 57.1428Z" fill="#FBDBC6"/>
<path d="M96.2858 37.1432C93.3334 32.2861 88.4763 29.3337 82.8572 28.4765C81.3334 28.2861 79.8096 28.2861 78.2858 28.1908C77.3334 28.1908 77.1429 28.3813 77.1429 27.4289C77.1429 26.667 77.7143 25.7146 78.0953 25.048C78.5715 24.2861 78.8572 24.0956 79.7143 23.7146C80.2858 23.5242 80.6667 23.6194 81.0477 23.4289C81.2382 23.3337 81.4286 23.4289 81.5239 23.3337C81.8096 23.1432 82.0001 22.7623 81.9048 22.4765C81.8096 21.9051 80.5715 21.4289 80.1905 21.1432C79.4286 20.5718 78.5715 19.9051 77.6191 19.8099C75.0477 19.4289 72.1905 21.6194 70.5715 23.4289C70.1905 23.8099 69.9048 24.1908 69.6191 24.667C69.3334 25.048 68.762 26.3813 68.381 26.7623C68.9524 26.1908 68.8572 23.8099 68.8572 23.048C68.8572 20.1908 68.2858 17.4289 68.4763 14.5718C68.5715 13.048 68.8572 11.4289 69.7143 10.0956C70.1905 9.42892 70.762 8.76225 71.5239 8.3813C72.0953 8.09559 73.0477 8.09559 73.6191 7.80987C73.9048 7.6194 74.2858 7.52416 74.2858 7.04797C74.2858 6.66702 73.8096 6.09559 73.8096 6.57178C73.8096 6.3813 73.6191 6.28606 73.5239 6.3813C71.8096 6.66702 70.5715 6.3813 68.8572 7.04797C67.4286 7.6194 65.9048 8.47654 64.762 9.42892C62.4763 11.3337 61.6191 14.3813 60.9524 17.2384C60.5715 18.9527 60.2858 20.7623 60.0001 22.4765C60.0001 21.7146 59.9048 20.9527 59.8096 20.2861C59.4286 16.667 57.7144 13.4289 57.4286 9.80987C57.3334 8.28606 57.3334 6.66702 57.8096 5.23845C58.0953 4.3813 58.5715 3.52416 59.3334 2.85749C60.0953 2.09559 61.4286 2.09559 62.0953 1.42892C62.8572 0.476541 62.2858 -0.190126 61.1429 0.000350405C58.4763 0.476541 55.4286 2.85749 53.5239 4.66702C51.2382 6.95273 49.8096 10.0956 49.7144 13.3337C49.7144 14.1908 49.8096 15.1432 50.0001 16.0004C50.0953 16.3813 51.0477 18.7623 50.9524 18.9527C50.8572 19.1432 48.381 18.667 47.7144 18.7623C46.6667 18.9527 45.5239 19.7146 45.0477 20.667C44.9524 20.8575 44.8572 21.1432 44.8572 21.3337C42.0001 14.3813 36.2858 7.42892 28.1905 8.47654C24.5715 8.95273 21.3334 10.9527 19.1429 13.8099C18.2858 14.8575 14.4763 20.7623 16.762 21.5242C17.8096 21.9051 18.1905 20.667 18.8572 20.0004C20.8572 18.0004 24.381 16.3813 27.2382 17.3337C30.4763 18.4765 32.0953 21.6194 32.9524 24.667C33.3334 25.9051 33.8096 27.3337 34.0001 28.5718C34.0953 29.048 34.381 29.1432 34.0001 29.5242C33.9048 29.6194 31.5239 28.9527 31.2382 28.9527C21.5239 27.6194 12.0001 33.5242 6.57149 41.1432C-5.14279 58.0956 -0.285648 81.7146 14.381 94.9527C21.8096 101.619 32.4763 105.905 42.4763 106.286C48.0001 106.477 52.2858 103.81 57.1429 101.715C62.9524 99.1432 69.4286 100.096 75.4286 98.0004C86.381 94.0956 92.762 84.3813 96.2858 73.8099C100 62.4765 102.476 48.0004 96.2858 37.1432ZM96.0001 69.3337C92.762 81.1432 86.5715 92.7623 74.1905 96.7623C68.762 98.4765 62.9524 97.8099 57.5239 100C52.5715 102.096 48.1905 104.953 42.5715 104.857C32.2858 104.762 21.2382 99.6194 14.0001 92.4765C6.66673 85.048 2.0953 74.9527 1.52388 64.667C0.76197 53.9051 5.42864 42.5718 14.0001 35.9051C18.0953 32.667 23.2382 30.667 28.4763 30.5718C30.9524 30.5718 34.0001 30.667 35.7144 32.667C35.9048 32.9527 37.1429 34.2861 37.1429 34.2861C37.0477 34.8575 35.3334 35.5242 34.8572 35.8099C33.0477 37.048 31.6191 38.7623 30.1905 40.2861C27.6191 42.9527 24.6667 44.9527 20.8572 45.3337C19.8096 45.4289 17.6191 44.8575 16.762 45.1432C16.381 45.2384 16.1905 45.1432 16.0001 45.5242C15.6191 46.2861 16.2858 46.2861 16.5715 46.7623C16.6667 46.8575 16.4763 47.2384 16.5715 47.4289C17.1429 48.5718 17.8096 49.5242 18.381 50.4765C19.1429 51.7146 20.0001 52.8575 20.8572 54.0004C21.1429 54.3813 21.7144 55.6194 22.381 55.7146C22.9524 55.7146 23.1429 55.4289 23.0477 54.9527C22.762 53.2384 19.3334 49.2384 19.0477 48.7623C18.1905 47.5242 17.9048 47.4289 19.4286 48.0004C20.0001 48.1908 20.4763 48.4765 20.9524 48.7623C22.6667 50.2861 24.0953 52.5718 25.6191 54.2861C26.0001 54.667 26.5715 55.6194 27.1429 54.9527C28.0001 53.9051 25.6191 52.0956 25.1429 51.5242C24.6667 50.9527 24.1905 50.3813 23.7144 49.9051C22.5715 48.7623 23.0477 49.4289 23.4286 49.3337C23.9048 49.2384 25.5239 49.7146 25.9048 50.0004C26.0953 50.0956 26.4763 50.8575 26.6667 51.048C27.2382 51.7146 28.4763 53.8099 29.3334 54.0956C29.9048 54.2861 30.2858 54.3813 30.4763 53.6194C30.5715 53.4289 30.381 53.1432 30.2858 52.9527C30.1905 52.5718 29.4286 51.9051 29.1429 51.6194C28.762 51.1432 28.381 50.7623 28.0001 50.2861C27.6191 50.0956 27.6191 50.0956 28.0001 50.1908C28.381 50.0956 29.8096 50.2861 30.0953 50.3813C30.0953 50.3813 30.1905 50.9527 30.2858 51.048C30.6667 51.6194 32.2858 54.0956 33.2382 53.9051C33.9048 53.7146 33.8096 53.1432 33.6191 52.667C33.5239 52.3813 31.9048 50.8575 31.4286 50.1908C31.9048 50.2861 32.9524 50.2861 32.9524 50.2861C33.9048 50.667 33.6191 50.2861 34.381 51.3337C34.762 51.8099 35.5239 53.7146 36.4763 53.1432C37.5239 52.5718 36.0953 51.5242 35.8096 50.9527C35.3334 49.9051 35.3334 50.3813 36.0953 49.8099C36.1905 49.7146 37.2382 49.5242 37.0477 49.4289C37.6191 49.6194 38.0001 51.4289 38.6667 51.8099C39.1429 52.0956 39.8096 52.2861 40.0001 51.5242C40.0953 51.1432 39.8096 50.8575 39.6191 50.667C39.2382 50.0004 38.5715 49.8099 39.0477 48.9527C38.8572 49.2384 40.381 48.4765 40.2858 48.3813C40.762 48.5718 41.0477 50.3813 41.9048 50.3813C42.5715 50.3813 42.762 50.0004 42.762 49.4289C42.762 49.048 42.1905 48.5718 42.0001 48.2861C43.3334 50.4765 41.5239 47.7146 41.5239 47.8099C41.9048 47.9051 42.1905 47.8099 42.5715 47.5242C42.8572 46.9527 43.1429 47.048 43.3334 47.8099C43.9048 48.1908 44.5715 49.9051 45.5239 49.6194C46.2858 49.4289 46.0953 48.9527 45.9048 48.3813C45.7144 47.8099 44.381 47.3337 44.1905 46.667C44.381 46.5718 44.4763 46.4765 44.762 46.2861C45.9048 45.4289 46.381 45.8099 47.3334 46.8575C47.7144 47.2384 48.5715 48.7623 49.3334 47.9051C50.0001 47.048 48.5715 46.0004 48.1905 45.5242C47.1429 44.4765 47.4286 44.1908 48.1905 43.048C48.2858 42.8575 49.2382 40.667 49.4286 40.667C49.9048 40.667 51.6191 44.0004 52.0001 44.3813C52.762 45.3337 53.8096 46.1908 54.762 47.048C55.2382 47.4289 56.2858 48.7623 56.9524 48.7623C59.4286 48.5718 54.9524 45.3337 53.8096 44.2861C54.2858 44.5718 55.3334 44.7623 55.7144 44.8575C56.762 45.3337 57.2382 46.1908 58.1905 46.9527C58.6667 47.3337 60.4763 48.7623 61.2382 48.1908C61.8096 47.7146 61.4286 47.2384 61.1429 46.8575C61.0477 46.7623 59.3334 45.8099 58.5715 45.3337C58.6667 45.2384 59.0477 45.4289 59.4286 45.3337C60.6667 45.048 61.0477 45.7146 61.9048 46.3813C62.4763 46.8575 64.1905 48.4765 65.0477 48.0004C66.1905 47.4289 64.8572 46.5718 64.381 46.2861C64.0953 46.0956 62.8572 45.4289 62.9524 45.048C62.9524 45.048 64.762 44.667 64.8572 44.667C65.5239 44.7623 66.6667 45.7146 67.3334 46.0956C67.8096 46.3813 69.0477 47.2384 69.4286 46.2861C70.0001 44.9527 67.2382 45.048 66.9524 44.1908C66.762 43.7146 67.0477 43.8099 67.5239 43.5242C67.7144 43.4289 68.1905 43.048 68.1905 43.048C68.9524 43.048 69.7144 45.048 70.762 45.048C71.3334 45.048 71.9048 44.9527 71.8096 44.2861C71.8096 44.0956 71.5239 44.0004 71.4286 43.8099C71.1429 43.3337 70.762 43.5242 70.381 43.4289C70.1905 43.3337 70.0001 43.1432 69.9048 43.048C69.8096 42.9527 69.8096 42.7623 69.8096 42.667C69.7144 41.9051 70.0953 42.0004 70.4763 41.5242C71.9048 39.7146 73.5239 38.3813 74.6667 36.2861C75.2382 35.3337 75.6191 34.2861 76.0001 33.2384C76.1905 32.5718 76.381 31.9051 76.5715 31.2384C76.8572 30.0004 76.8572 29.8099 78.1905 29.6194C83.3334 29.048 89.3334 30.9527 92.9524 34.667C97.1429 38.8575 98.4762 45.1432 98.762 50.8575C98.5715 57.1432 97.6191 63.3337 96.0001 69.3337ZM33.2382 21.3337C32.8572 20.1908 33.0477 18.4765 32.1905 17.5242C32.0953 17.4289 32.0001 17.4289 32.0001 17.4289C31.2382 17.6194 31.5239 18.7623 31.4286 18.7623C31.3334 18.7623 30.6667 16.0004 30.2858 15.7146C30.1905 15.6194 30.0953 15.6194 30.0953 15.6194C29.3334 15.8099 29.9048 15.9051 29.4286 16.3813C29.1429 16.667 29.8096 16.667 29.4286 16.8575C29.4286 16.8575 28.0001 16.1908 28.0953 16.1908C27.5239 15.9051 26.8572 15.8099 26.1905 15.7146C24.762 15.5242 23.4286 15.8099 22.0953 16.3813C21.8096 16.4765 21.3334 16.667 21.0477 16.8575C21.8096 16.1908 22.5715 15.5242 23.4286 14.9527C25.7144 13.4289 28.9524 12.4765 31.6191 13.3337C33.1429 13.8099 33.9048 14.667 34.6667 16.0956C34.8572 16.4765 35.1429 17.1432 35.6191 17.2384C37.5239 17.4289 35.5239 14.4765 35.3334 14.0956C33.5239 11.5242 29.8096 11.2384 27.0477 11.9051C25.4286 12.2861 23.9048 12.9527 22.5715 13.8099C21.9048 14.1908 21.3334 14.667 20.762 15.1432C20.1905 15.6194 19.1429 17.048 18.762 17.3337C19.1429 17.1432 19.8096 15.8099 20.1905 15.2384C20.762 14.4765 21.4286 13.8099 22.0953 13.1432C23.7144 11.7146 25.6191 10.667 27.8096 10.2861C29.9048 9.90511 32.0001 10.0956 33.9048 10.9527C35.4286 11.5242 36.381 12.1908 37.0477 13.8099C37.2382 14.3813 37.3334 16.3813 37.8096 16.8575C38.4763 17.5242 38.8572 17.1432 38.8572 16.5718C38.9524 17.7146 39.2382 18.7623 40.1905 18.7623C40.2858 18.7623 40.381 18.7623 40.381 18.667C40.4763 18.3813 40.5715 18.1908 40.5715 18.0956C40.5715 18.8575 40.5715 19.7146 41.5239 19.7146C41.6191 19.7146 41.7144 19.7146 41.7144 19.6194C42.0001 19.048 41.9048 17.8099 42.0001 19.5242C42.0953 20.2861 41.6191 23.1432 42.0953 23.7146C42.5715 24.2861 42.9524 24.3813 43.3334 23.6194C43.6191 23.048 43.0477 22.0956 43.3334 21.4289C43.1429 21.9051 44.0001 23.4289 44.2858 24.0956C44.9524 26.0004 45.3334 28.0956 45.4286 30.0956C45.4286 30.7623 45.5239 31.4289 45.4286 32.0956C45.4286 32.5718 45.5239 33.3337 45.1429 32.8575C44.762 32.3813 45.6191 30.7623 45.2382 30.0004C45.2382 29.9051 45.1429 29.9051 45.0477 29.9051C44.5715 29.9051 44.6667 29.9051 44.381 30.1908C44.381 30.1908 44.381 30.2861 44.2858 30.2861C44.2858 30.0004 44.0953 29.7146 43.6191 29.6194C43.5239 29.6194 43.4286 29.6194 43.4286 29.7146C43.0477 30.0956 43.0477 31.1432 43.0477 30.5718C42.9524 29.8099 43.3334 29.1432 42.9524 28.3813C42.9524 28.2861 42.8572 28.2861 42.762 28.2861C42.4763 28.2861 42.381 28.2861 42.1905 28.3813C41.7144 28.667 42.0953 29.7146 41.8096 29.2384C40.762 27.5242 41.0477 24.7623 40.0953 22.8575C39.8096 22.3813 39.1429 20.667 38.2858 20.7623C37.5239 20.8575 37.6191 21.5242 37.7144 22.0004C37.9048 22.7623 38.8572 23.8099 39.1429 24.667C39.4286 25.6194 39.6191 26.667 39.8096 27.7146C40.1905 29.4289 40.6667 31.048 41.8096 32.3813C42.0001 32.667 42.762 33.3337 43.2382 33.7146C42.5715 33.7146 41.0477 33.8099 41.0477 33.9051C40.5715 33.5242 41.5239 32.667 40.4763 32.3813C40.381 32.3813 40.2858 32.3813 40.2858 32.4765C40.0001 32.3813 40.0001 32.4765 39.9048 32.667C40.0001 32.0956 39.9048 31.5242 39.2382 31.3337C39.1429 31.3337 39.1429 31.3337 39.0477 31.3337C39.0477 30.667 38.9524 30.0956 38.8572 29.9051C38.8572 29.8099 38.762 29.8099 38.6667 29.8099C38.2858 29.8099 38.0953 29.9051 38.0001 30.0956C38.0001 30.0004 37.9048 30.0004 37.8096 30.0004L37.2382 30.0956C37.2382 30.0956 37.2382 30.1908 37.1429 30.1908C37.0477 29.5242 37.6191 29.048 36.6667 28.8575C36.6667 28.8575 36.6667 28.8575 36.5715 28.8575C36.5715 27.9051 36.5715 26.9527 36.4763 26.7623C36.2858 26.2861 36.0001 26.0956 35.5239 26.3813C35.8096 25.048 36.381 22.8575 35.1429 22.4765C35.0477 22.4765 34.9524 22.4765 34.9524 22.5718C34.8572 22.667 34.762 22.7623 34.6667 22.9527C34.5715 21.5242 34.381 20.0956 33.5239 20.4765C32.8572 20.667 33.5239 22.1908 33.2382 21.3337ZM40.1905 16.2861C40.2858 16.667 40.381 16.8575 40.4763 17.3337C40.4763 17.5242 40.5715 17.8099 40.5715 18.0956C40.5715 17.9051 40.4763 17.7146 40.4763 17.4289C40.4763 17.3337 39.8096 14.9527 40.1905 16.2861ZM53.9048 7.33368C52.6667 10.2861 52.4763 13.5242 53.4286 16.5718C53.5239 16.9527 55.0477 21.3337 56.0001 19.2384C56.2858 18.4765 55.2382 17.048 55.0477 16.4765C54.1905 14.0003 54.1905 11.2384 55.0477 8.76225C55.1429 8.3813 55.7144 7.42892 55.9048 6.85749C55.8096 7.6194 55.7144 8.95273 55.7144 8.95273C55.7144 10.9527 56.381 12.9527 56.9524 14.8575C58.381 19.3337 58.8572 23.8099 58.2858 28.4765C58.0953 30.0956 57.1429 31.2384 56.0953 32.4765C56.5715 31.6194 56.6667 30.3813 56.762 29.7146C56.8572 28.667 57.4286 24.3813 56.1905 23.9051C54.4763 23.2384 55.2382 27.048 55.2382 27.5242C55.2382 28.0956 55.4286 31.1432 54.762 31.3337C54.1905 31.6194 54.1905 30.7623 54.1905 30.7623C54.1905 30.667 54.381 30.4765 54.381 30.3813C54.0953 29.7146 52.762 28.5718 53.2382 27.7146C53.0477 28.0004 54.1905 27.6194 54.1905 27.5242C54.2858 27.4289 54.2858 27.3337 54.2858 27.3337C54.0953 26.7623 53.3334 26.0004 53.4286 25.5242C53.5239 25.048 53.9048 25.048 54.0001 24.667C54.1905 24.0004 52.9524 23.048 54.0953 23.3337C54.1905 23.3337 54.2858 23.3337 54.2858 23.2384C54.6667 22.8575 54.6667 22.8575 54.4763 22.2861C54.2858 21.8099 53.1429 20.7623 52.762 20.1908C52.762 20.0956 52.6667 20.0004 52.6667 19.8099C52.762 19.8099 52.8572 19.8099 52.9524 19.8099C53.0477 19.8099 53.1429 19.8099 53.1429 19.7146C53.7144 19.1432 53.3334 18.8575 52.8572 18.2861C51.4286 16.3813 51.0477 14.0003 51.4286 11.5242C51.9048 9.42892 52.8572 7.52416 54.381 5.90511L54.4763 5.80987C54.2858 6.47654 54.0953 6.95273 53.9048 7.33368ZM60.0953 28.8575C61.9048 23.4289 61.1429 16.8575 64.381 12.0003C65.3334 10.5718 66.6667 9.6194 68.1905 8.85749C70.762 7.52416 69.0477 8.47654 68.381 9.52416C67.0477 11.6194 66.762 14.0004 66.8572 16.3813C66.8572 16.8575 67.6191 20.9527 67.3334 21.1432C67.4286 21.048 67.1429 19.9051 66.762 19.6194C66.0953 19.3337 65.8096 19.5242 65.7143 20.1908C65.7143 20.3813 66.0953 21.2384 66.4763 22.1908C66.2858 22.0956 66.0953 22.0004 65.8096 22.0956C65.7143 22.0956 65.6191 22.1908 65.6191 22.2861C65.5239 22.8575 65.8096 24.0004 66.1905 24.8575C65.9048 24.8575 65.7144 25.048 65.6191 25.5242C65.4286 26.0004 66.1905 27.4289 66.2858 27.9051C66.4763 29.4289 66.8572 28.0004 66.0001 30.0004C65.1429 31.7146 64.381 32.9527 62.6667 34.0004C61.9048 34.3813 61.2382 34.9527 60.381 35.048C60.0001 35.1432 59.8096 35.1432 59.7144 35.2384C59.7144 34.9527 61.3334 33.8099 61.5239 33.5242C63.1429 31.8099 64.8572 29.2384 65.0477 26.7623C65.0477 25.9051 64.9524 24.8575 63.8096 25.6194C63.2382 26.0004 62.9524 28.7623 62.6667 29.3337C61.8096 31.048 60.5715 32.667 59.0477 33.9051C58.9524 34.0004 57.4286 35.1432 57.3334 35.1432C56.0001 34.2861 58.1905 32.5718 58.5715 31.9051C59.1429 31.1432 59.6191 30.0004 60.0953 28.8575ZM75.7143 21.7146C76.2858 21.5242 77.8096 21.3337 78.381 21.8099C78.1905 21.7146 78.0953 21.7146 77.8096 21.8099C76.1905 22.0004 74.762 22.3813 73.5239 23.4289C73.1429 23.7146 69.9048 27.8099 72.381 27.1432C72.762 27.048 72.8572 26.4765 73.1429 26.1908C73.8096 25.2384 75.6191 23.048 77.0477 23.3337C77.3334 23.3337 77.4286 23.3337 77.5239 23.2384C77.4286 23.3337 77.3334 23.4289 77.2382 23.8099C77.1429 24.0004 76.9524 24.2861 76.8572 24.4765C76.2858 25.4289 75.9048 26.3813 75.6191 27.4289C74.1905 32.2861 73.0477 37.1432 68.8572 40.4765C64.6667 43.9051 58.4763 45.048 53.5239 42.3813C52.2858 41.9051 51.2382 40.9527 50.4763 39.8099C50.1905 39.3337 49.8096 38.5718 49.7144 38.1908C49.7144 38.0956 49.7144 38.0004 49.6191 37.9051C49.7144 37.9051 49.8096 37.9051 50.0001 38.0004C52.0953 38.0956 54.1905 40.2861 56.381 40.7623C60.0953 41.7146 64.1905 40.7623 67.1429 38.2861C67.8096 37.8099 72.2858 33.5242 70.0953 32.9527C69.0477 32.667 68.0001 35.4289 67.4286 36.0004C65.3334 38.1908 62.381 39.5242 59.3334 39.5242C56.4763 39.5242 53.5239 38.1908 51.1429 36.667C50.381 36.1908 50.2858 36.667 50.5715 36.1908C50.5715 36.2861 52.1905 36.0956 53.0477 35.9051C52.762 36.1908 52.4763 36.7623 52.4763 36.7623C52.4763 36.8575 52.4763 36.9527 52.5715 36.9527C53.0477 37.4289 53.1429 37.2384 53.7144 37.048C53.8096 37.048 54.0001 36.9527 54.0953 36.9527C54.0001 37.048 54.0001 37.1432 54.0001 37.3337C54.0001 37.8099 54.381 38.0956 54.762 38.0956C55.1429 38.0956 55.8096 37.3337 55.8096 37.3337C56.5715 36.8575 55.5239 37.7146 55.3334 38.2861C55.3334 38.3813 55.3334 38.4765 55.4286 38.4765C55.9048 38.9527 55.8096 38.7623 56.381 38.667C56.762 38.5718 57.0477 38.3813 57.3334 38.0004C57.2382 38.667 57.5239 39.048 58.2858 38.8575C58.8572 38.667 59.3334 37.7146 59.6191 37.3337C59.9048 37.048 60.2858 36.8575 60.5715 36.5718C60.2858 36.8575 60.0953 37.2384 59.9048 37.6194C59.9048 37.8099 59.9048 37.9051 59.9048 38.0956C59.9048 38.1908 59.9048 38.2861 60.0001 38.2861C60.9524 38.8575 61.3334 37.7146 61.8096 36.9527C61.8096 36.9527 61.8096 36.8575 61.9048 36.8575C61.8096 37.1432 61.8096 37.5242 61.9048 37.7146C62.6667 38.5718 63.3334 36.9527 63.5239 36.5718C63.7143 36.1908 63.9048 35.7146 64.0953 35.3337C64.2858 34.9527 64.8572 33.6194 64.381 34.667C64.0953 35.4289 63.7144 36.0956 63.9048 36.8575C63.9048 36.9527 64.0001 37.048 64.0953 37.048C65.6191 37.4289 65.8096 34.4765 66.1905 33.5242C67.4286 30.4765 69.3334 26.9527 71.4286 24.3813C72.6667 23.5242 74.0953 22.1908 75.7143 21.7146ZM45.6191 37.6194C45.5239 37.6194 45.5239 37.7146 45.5239 37.7146C45.5239 37.7146 45.6191 37.7146 45.6191 37.6194ZM47.3334 31.4289C47.3334 31.5242 47.3334 31.5242 47.3334 31.6194C47.3334 31.2384 47.4286 31.1432 47.3334 31.4289ZM47.0477 32.8575C47.0477 32.8575 47.0477 32.9527 47.1429 32.9527C47.1429 32.8575 47.1429 32.667 47.1429 32.5718C47.1429 32.5718 47.1429 32.667 47.2382 32.667C47.2382 32.7623 47.2382 32.9527 47.2382 33.048C47.5239 33.4289 47.8096 34.5718 48.4763 34.3813C49.0477 34.2861 48.9524 33.9051 48.9524 33.4289C48.9524 32.9527 48.1905 32.0956 47.9048 31.6194H48.0001C48.762 31.1432 48.2858 30.8575 48.0953 30.0956C47.8096 29.4289 47.8096 28.9527 47.9048 28.4765C47.9048 28.3813 48.1905 28.1908 48.1905 28.0956C48.1905 27.1432 47.3334 26.4765 47.4286 25.5242C47.4286 25.3337 47.7144 25.048 47.7144 24.667C47.7144 24.1908 46.8572 24.1908 47.5239 24.1908C48.381 24.1908 48.2858 24.8575 48.2858 25.5242C48.2858 27.048 48.381 28.667 48.8572 30.0956C49.1429 30.9527 51.1429 35.048 52.2858 33.1432C52.2858 33.048 52.2858 32.9527 52.2858 32.8575C51.7144 31.9051 50.762 31.3337 50.2858 30.1908C49.7144 28.7623 49.5239 27.1432 49.5239 25.6194C49.5239 25.3337 49.5239 24.2861 49.5239 24.5718C49.6191 25.1432 49.5239 25.8099 49.6191 26.4765C49.7144 27.1432 49.7144 28.9527 50.4763 29.3337C51.9048 29.9051 50.9524 27.2384 50.9524 26.9527C50.8572 26.5718 50.2858 23.9051 51.2382 23.7146C51.6191 23.6194 51.4286 25.048 51.4286 25.2384C51.4286 26.9527 51.5239 28.5718 52.0001 30.1908C52.381 31.3337 53.0477 33.5242 54.6667 33.4289C55.0477 33.4289 55.3334 33.2384 55.5239 33.048C55.2382 33.4289 54.9524 34.3813 54.6667 34.667C54.1905 35.048 53.9048 34.8575 53.2382 34.7623C52.1905 34.5718 50.9524 34.4765 49.9048 34.8575C48.6667 35.2384 48.9524 35.6194 47.9048 34.9527C47.9048 34.9527 47.1429 34.4765 47.0477 34.3813C46.9524 34.2861 46.9524 34.2861 46.8572 34.1908C46.8572 34.0004 46.9524 33.4289 47.0477 32.9527C47.1429 32.9527 47.0477 32.9527 47.0477 32.8575ZM58.2858 37.4289C58.1905 37.5242 58.0001 37.7146 57.8096 37.8099C58.0001 37.7146 58.0953 37.5242 58.2858 37.4289ZM67.4286 24.667C67.3334 24.4765 67.2382 24.2861 67.1429 24.0004C67.3334 24.3813 67.4286 24.667 67.4286 24.667ZM44.0001 32.2861C43.8096 32.0956 43.8096 31.7146 43.9048 31.4289C43.8096 31.8099 43.8096 32.1908 44.0001 32.2861ZM46.6667 35.9051C46.5715 35.9051 46.4763 35.9051 46.2858 35.8099C45.5239 35.7146 44.762 35.7146 44.0001 35.8099C42.381 36.0004 40.9524 36.7623 39.7144 37.7146C38.9524 38.2861 38.2858 38.9527 37.8096 39.6194C37.3334 40.2861 36.762 40.9527 36.1905 41.5242C35.6191 42.0004 34.9524 42.2861 34.381 42.667C34.0953 42.8575 34.0001 42.5718 33.6191 42.8575C32.381 44.1908 34.8572 44.1908 35.5239 43.8099C36.2858 43.4289 36.6667 42.667 37.3334 42.3813C37.3334 42.3813 37.4286 42.3813 37.4286 42.2861C37.4286 42.3813 37.4286 42.3813 37.4286 42.4765C37.5239 43.048 37.1429 43.8099 37.1429 44.3813C37.0477 45.1432 36.762 45.7146 37.6191 45.9051C37.7144 45.9051 37.8096 45.9051 37.8096 45.8099C38.1905 45.4289 39.0477 39.6194 39.4286 39.8099C40.0953 40.0956 38.381 42.667 39.9048 43.1432C40.0001 43.1432 40.0953 43.1432 40.0953 43.048C40.4763 42.667 40.2858 42.7623 40.4763 42.1908C40.6667 41.5242 40.5715 40.8575 40.6667 40.1908C40.762 39.8099 40.6667 38.3813 40.9524 39.2384C41.2382 40.0956 40.762 40.9527 41.9048 40.9527C42.0001 40.9527 42.0953 40.9527 42.0953 40.8575C42.4763 40.0004 41.8096 39.048 42.381 38.2861C42.8572 37.6194 42.381 39.1432 42.4763 39.3337C42.5715 39.5242 42.5715 39.5242 42.6667 39.8099C42.6667 39.9051 42.762 39.9051 42.8572 39.9051C43.5239 39.9051 43.3334 39.8099 43.7144 39.3337C43.7144 38.8575 43.7144 38.2861 43.8096 37.8099C44.2858 37.3337 44.381 37.4289 44.1905 38.1908C44.5715 39.2384 43.9048 38.4765 44.2858 39.3337C44.2858 39.4289 44.381 39.4289 44.4763 39.4289C45.7144 39.4289 44.9524 38.1908 45.2382 37.7146C45.1429 38.0004 46.0001 38.3813 46.0953 38.3813C46.6667 38.4765 46.2858 37.9051 46.5715 37.9051C47.7144 37.7146 47.9048 37.9051 47.8096 39.048C47.4286 42.2861 44.8572 44.667 42.0953 46.0956C36.5715 48.9527 30.2858 49.6194 24.2858 48.0956C24.0001 48.0004 20.8572 47.1432 20.381 46.8575C20.8572 46.9527 23.0477 46.4765 23.1429 46.4765C24.1905 46.1908 25.2382 45.5242 26.1905 45.2384C26.2858 45.2384 26.381 45.2384 26.381 45.1432C26.381 45.2384 26.381 45.2384 26.4763 45.3337C26.4763 45.3337 26.4763 45.6194 26.5715 45.8099C26.5715 45.9051 26.6667 45.9051 26.762 46.0004C27.4286 46.1908 27.5239 45.9051 27.9048 45.3337C28.0001 45.1432 28.8572 42.7623 29.2382 43.048C29.0477 42.8575 29.0477 44.0956 29.1429 44.2861C29.1429 44.3813 29.2382 44.4765 29.3334 44.4765C30.762 44.8575 30.762 42.1908 31.1429 41.3337C31.9048 39.8099 31.1429 41.8099 31.2382 42.1908C31.4286 42.7623 31.4286 42.7623 31.9048 42.8575C32.0001 42.8575 32.0953 42.8575 32.0953 42.7623C32.5715 42.2861 32.4763 41.7146 32.6667 41.1432C32.762 40.5718 32.9524 40.0956 33.1429 39.6194C33.0477 40.2861 32.9524 40.7623 33.7144 40.9527C33.8096 40.9527 33.9048 40.9527 33.9048 40.8575C34.381 40.2861 34.0953 40.5718 34.381 39.6194C34.4763 39.048 34.6667 38.5718 34.762 38.0004C35.5239 36.7623 35.7144 36.7623 35.2382 37.9051C35.8096 38.3813 35.0477 38.4765 35.9048 38.667C36.0001 38.667 36.0953 38.667 36.0953 38.5718C36.6667 38.0004 36.2858 38.2861 36.6667 37.4289C37.3334 35.5242 38.8572 35.048 40.762 34.8575C42.0953 34.7623 43.4286 34.9527 44.762 35.3337C45.7144 35.6194 45.3334 35.6194 46.0001 35.5242C46.381 35.7146 46.5715 35.8099 46.6667 35.9051ZM49.2382 20.4765C49.9048 20.5718 52.2858 21.1432 51.0477 22.0956C50.6667 22.3813 50.0001 22.5718 49.5239 22.5718C49.6191 22.3813 49.6191 22.1908 49.4286 22.0004C49.2382 21.7146 48.762 21.7146 48.381 21.6194C48.0953 21.6194 48.0953 21.6194 48.0953 21.4289C48.0953 21.2384 48.0953 21.1432 48.0001 21.048C47.5239 20.4765 46.8572 20.9527 46.8572 21.5242C46.8572 21.9051 47.0477 22.2861 47.3334 22.4765C47.4286 22.5718 47.5239 22.5718 47.6191 22.5718C47.0477 22.4765 46.6667 22.1908 46.6667 21.5242C46.9524 20.4765 48.0953 20.2861 49.2382 20.4765ZM46.381 19.8099C46.1905 19.9051 46.0953 20.0956 45.9048 20.1908C46.0001 20.0004 46.1905 19.9051 46.381 19.8099Z" fill="#FBDBC6"/>
<path d="M47.2381 33.4293C47.2381 33.3341 47.2381 33.2388 47.2381 33.0484L47.1428 32.9531C47.1428 32.9531 47.1428 32.9531 47.1428 33.0484C47.1428 33.1436 47.2381 33.3341 47.2381 33.4293Z" fill="#FBDBC6"/>
<path d="M73.3335 42.5718C73.3335 42.4766 73.3335 42.4766 73.3335 42.5718C73.4287 42.4766 73.4287 42.5718 73.4287 42.4766C75.8097 40.3813 77.4287 37.7147 78.2859 34.667C78.3811 34.3813 79.2382 30.2861 77.524 31.7146C76.9525 32.1908 77.0478 33.7146 76.7621 34.4766C76.1906 36.4766 75.143 38.3813 73.7144 40.0004C73.3335 40.4766 71.9049 41.2385 72.0002 42.0004C72.2859 42.667 72.8573 42.667 73.3335 42.5718Z" fill="#FBDBC6"/>
<path d="M78.4764 40.0008C78.1906 40.477 77.0478 41.3341 77.4287 42.0008C77.7145 42.477 78.1906 42.477 78.5716 42.2865C80.2859 40.3817 81.3335 37.8103 81.7145 35.3341C81.8097 34.5722 82.1906 33.1436 81.524 32.477C81.2383 32.1913 80.6668 32.1913 80.3811 32.477C80.0002 32.9532 80.2859 34.5722 80.1906 35.2389C80.0002 36.8579 79.4287 38.5722 78.4764 40.0008Z" fill="#FBDBC6"/>
<path d="M85.3334 33.9053C85.0477 33.0482 84.1905 32.953 83.9048 33.8101C83.8096 35.8101 83.4286 37.7149 82.5715 39.6196C82.2858 40.2863 80.762 41.9053 80.9525 42.6673C81.2382 44.3815 82.762 42.3815 83.0477 42.0006C83.8096 40.7625 84.381 39.4292 84.762 38.0958C84.9525 37.1434 85.7144 34.953 85.3334 33.9053Z" fill="#FBDBC6"/>
<path d="M88.4762 35.3341C88.2857 34.4769 87.3333 34.3817 87.0476 35.2388C86.8571 37.0483 86.4762 38.8579 85.619 40.4769C85.2381 41.2388 83.9047 42.6674 84 43.4293C84 43.8102 84.2857 44.0007 84.6666 44.096C85.4285 44.1912 85.9047 43.0483 86.1905 42.5722C86.8571 41.5245 87.4285 40.3817 87.8095 39.2388C88.0952 38.2864 88.7619 36.4769 88.4762 35.3341Z" fill="#FBDBC6"/>
<path d="M90.2857 42.4767C90.6667 41.6195 91.4286 40.2862 91.3333 39.3338C91.3333 38.4767 90.3809 38.0957 89.9047 38.9529C89.5238 40.3815 89.0476 41.7148 88.3809 42.9529C88 43.7148 87.5238 44.2862 87.0476 44.9529C86.8571 45.1434 86.5714 45.4291 86.5714 45.7148C86.4762 46.0957 86.7619 46.4767 87.0476 46.5719C87.7143 46.7624 88.0952 46.0005 88.3809 45.6195C89.1428 44.6672 89.8095 43.5243 90.2857 42.4767Z" fill="#FBDBC6"/>
<path d="M93.3335 42.7625C93.4287 41.9054 92.4763 41.5244 92.0001 42.1911C91.524 43.3339 90.9525 44.3815 90.2859 45.4292C89.9049 46.0958 89.4287 46.6673 88.8573 47.2387C88.6668 47.5244 88.1906 47.8101 88.0954 48.1911C88.0001 48.572 88.0954 48.8577 88.4763 49.0482C89.0478 49.4292 89.4287 48.8577 89.8097 48.4768C90.4763 47.6196 91.143 46.6673 91.8097 45.7149C92.2859 44.953 93.143 43.7149 93.3335 42.7625Z" fill="#FBDBC6"/>
<path d="M94.7621 46.667C94.9525 45.9051 94.2859 45.2385 93.6192 45.7147C93.3335 46.0004 93.143 46.5718 92.9525 46.8575C92.6668 47.3337 92.3811 47.8099 92.0002 48.1909C91.7144 48.5718 91.4287 48.8575 91.0478 49.2385C90.7621 49.5242 90.2859 49.8099 90.0954 50.1909C89.7144 50.9528 90.6668 51.4289 91.3335 51.048C92.7621 50.0956 94.0002 48.1909 94.7621 46.667Z" fill="#FBDBC6"/>
<path d="M42.0002 91.9048C42.0954 91.2381 41.4287 90.8571 40.9526 91.1429C40.6668 91.3333 40.3811 91.4286 40.0954 91.5238C39.8097 91.619 39.524 91.5238 39.3335 91.619C39.0478 91.7143 38.8573 91.8095 38.8573 92.0952C38.7621 92.3809 38.8573 92.6667 38.9526 92.8571C39.143 93.1429 39.524 93.1429 39.9049 93.0476C40.4764 92.9524 41.8097 92.6667 42.0002 91.9048Z" fill="#FBDBC6"/>
<path d="M43.9048 93.7146C44.1906 93.048 43.6191 92.4765 43.0477 92.667H42.9525C42.2858 93.048 41.6191 93.3337 40.8572 93.4289C40.4763 93.4289 40.0953 93.4289 39.8096 93.7146C39.6191 94.0004 39.6191 94.2861 39.8096 94.4765C40.0001 94.8575 40.4763 94.8575 40.8572 94.8575C41.5239 94.8575 42.0953 94.667 42.6667 94.4765C43.0477 94.3813 43.7144 94.0956 43.9048 93.7146Z" fill="#FBDBC6"/>
<path d="M45.8096 95.905C45.9049 95.905 45.9049 95.905 45.8096 95.905C46.3811 95.4288 46.0954 94.3812 45.3335 94.5717C45.143 94.5717 44.9525 94.7622 44.762 94.8574C44.3811 95.0479 43.9049 95.2384 43.5239 95.3336C43.0477 95.4288 42.3811 95.1431 41.9049 95.4288C41.4287 95.7146 41.4287 96.5717 42.0001 96.7622C43.2382 97.1431 44.8573 96.5717 45.8096 95.905Z" fill="#FBDBC6"/>
<path d="M49.4286 97.5242C50 96.6671 49.1429 96.1909 48.381 96.4766C47.6191 96.7623 47.3333 97.048 46.5714 97.1433C46 97.2385 45.4286 97.3338 44.8571 97.429C44.1905 97.5242 43.4286 97.048 42.8572 97.3338C41.5238 98.0004 43.3333 98.8576 44 98.8576C45.7143 99.048 48.0952 98.6671 49.4286 97.5242Z" fill="#FBDBC6"/>
<path d="M50.9524 99.2381C50.9524 99.1428 50.9524 99.1428 50.9524 99.0476C51.1429 98.2857 50.2858 97.9047 49.7143 98.3809C49.2382 98.7619 49.0477 99.2381 48.4762 99.5238C47.9048 99.8095 47.3334 99.9047 46.6667 99.9047C46.1905 99.9047 45.5239 99.5238 45.1429 100C44.1905 101.143 46.2858 101.429 46.8572 101.429C48.5715 101.429 50.0001 100.476 50.9524 99.2381Z" fill="#FBDBC6"/>
<path d="M52.1904 100.286C51.1428 100.858 50.0952 101.334 49.0476 101.81C48.4762 102.096 48 102.096 47.4285 102.286C47.2381 102.382 47.1428 102.382 46.9524 102.477C46.6666 102.763 46.6666 103.144 46.8571 103.429C47.1428 103.81 47.7143 103.715 48.0952 103.715C48.8571 103.62 49.7143 103.239 50.3809 102.953C51.1428 102.572 52.1905 102.191 52.7619 101.62C53.619 100.953 53.0476 100.001 52.1904 100.286Z" fill="#FBDBC6"/>
<path d="M6.09531 71.9999C6.5715 71.8094 7.04769 71.5237 7.52388 71.1427L7.61912 71.0475C8.00007 70.5713 7.52388 69.8094 6.85722 69.9046C6.66674 69.9046 6.5715 69.9999 6.47626 70.0951C6.19055 70.2856 5.90483 70.4761 5.52388 70.6665C5.14293 70.857 4.47626 70.7618 4.19055 71.1427C3.8096 71.5237 4.09531 72.2856 4.66674 72.3808C5.14293 72.3808 5.71436 72.1903 6.09531 71.9999Z" fill="#FBDBC6"/>
<path d="M10.381 72.7624C11.1429 72.191 10.4763 71.2386 9.71435 71.4291C8.8572 71.7148 8.0953 72.3815 7.33339 72.7624C6.66673 73.0481 6.0953 73.1434 5.42863 73.1434C5.23816 73.1434 5.04768 73.1434 4.8572 73.2386C4.19054 73.7148 4.8572 74.5719 5.42863 74.5719C7.23816 74.8576 8.95244 73.5243 10.381 72.7624Z" fill="#FBDBC6"/>
<path d="M13.4287 74.8571C14.1906 74.1904 13.524 73.4285 12.7621 73.5237C11.6192 73.7142 10.3811 74.5714 9.42873 75.1428C8.66683 75.5237 7.80969 75.9999 6.95254 76.0952C6.66683 76.0952 6.28588 75.9999 6.00016 76.1904C5.14302 76.6666 5.71445 77.4285 6.47635 77.5237C7.52397 77.619 8.47635 77.238 9.3335 76.7618C10.6668 76.1904 12.0954 75.5237 13.4287 74.8571Z" fill="#FBDBC6"/>
<path d="M15.5239 78.1911C16.0953 77.5244 15.6191 76.6673 14.762 76.953C14.2858 77.1435 13.7143 77.6197 13.3334 77.9054C12.6667 78.3816 11.9048 78.6673 11.1429 78.8578C10.1905 79.0482 9.42862 79.1435 8.57147 79.2387C8.381 79.2387 8.09528 79.2387 7.90481 79.4292C7.61909 79.6197 7.52386 80.0959 7.71433 80.3816C8.00005 80.7625 8.381 80.6673 8.85719 80.6673C11.3334 80.572 13.3334 79.5244 15.5239 78.1911Z" fill="#FBDBC6"/>
<path d="M18.2857 80.5717C16.7619 81.3336 15.3333 82.2859 13.8095 82.7621C12.6666 83.0478 11.8095 82.8574 10.6666 83.0478C10.4761 83.0478 10.3809 83.0478 10.1904 83.0478C9.90471 83.2383 9.619 83.524 9.71424 83.905C9.90471 84.4764 10.6666 84.4764 11.1428 84.4764C13.7142 84.6669 16.5714 83.3336 18.5714 82.0002C19.5238 81.4288 19.4285 80.3812 18.2857 80.5717Z" fill="#FBDBC6"/>
<path d="M21.524 85.4286C22.0954 84.8572 21.8097 83.8096 20.8573 84.0953H20.7621C19.524 84.9524 18.2859 85.6191 16.7621 85.9048C15.9049 86.0953 15.0478 86.0953 14.0954 86.0953C13.9049 86.0953 13.6192 86.0953 13.4287 86.1905C13.143 86.381 13.0478 86.8572 13.2383 87.1429C13.524 87.7143 14.3811 87.6191 14.8573 87.6191C16.0002 87.6191 17.2383 87.4286 18.2859 87.0477C19.4287 86.762 20.8573 86.1905 21.524 85.4286Z" fill="#FBDBC6"/>
<path d="M25.4285 87.0476C25.2381 86.6667 24.7619 86.6667 24.3809 86.7619H24.2857C22.9524 87.8095 21.3333 88.4762 19.619 88.7619C18.6666 88.9524 17.7143 88.8571 16.8571 88.8571C16.6666 88.8571 16.3809 88.7619 16.1905 88.9524C15.9047 89.1428 15.8095 89.5238 16 89.9048C16.2857 90.4762 17.1428 90.3809 17.7143 90.3809C20.1905 90.3809 22.9524 89.7143 24.9524 88.1905C25.2381 88 25.7143 87.619 25.4285 87.0476Z" fill="#FBDBC6"/>
<path d="M29.2383 90.2863C29.2383 89.6197 28.7621 89.5244 28.2859 89.5244C28.2859 89.5244 28.2859 89.5244 28.1906 89.5244C26.4764 90.4768 24.7621 91.2387 22.8573 91.7149C22.0954 91.9054 21.4287 92.0958 20.6668 92.1911C20.8573 92.0958 19.2383 92.2863 18.9525 92.4768C18.0002 93.0482 18.3811 93.9054 19.4287 93.9054C22.2859 93.9054 25.524 92.6673 28.0002 91.3339C28.3811 91.1435 29.2383 90.8578 29.2383 90.2863Z" fill="#FBDBC6"/>
<path d="M31.3334 94.0953C31.9049 93.4287 31.6192 92.6668 30.6668 92.762C28.9525 93.6192 27.143 94.2858 25.143 94.6668C24.1906 94.8573 22.762 94.6668 22.0001 95.0477C21.9049 95.143 21.6192 95.143 21.5239 95.2382C20.3811 96.5715 22.762 96.4763 23.3334 96.4763C24.8572 96.2858 26.3811 96.0001 27.8096 95.6192C28.5715 95.2382 30.6668 94.8573 31.3334 94.0953Z" fill="#FBDBC6"/>
<path d="M35.0477 96.8571C35.6192 96.1904 35.3335 95.4285 34.3811 95.5237C32.762 96.3809 31.0477 96.8571 29.2382 97.238C28.2858 97.4285 27.3335 97.4285 26.2858 97.5237C26.0954 97.5237 25.5239 97.4285 25.2382 97.619C23.9049 98.7618 26.2858 99.0475 26.8573 98.9523C28.2858 98.9523 29.7144 98.6666 31.0477 98.3809C32.0954 98.0952 34.2858 97.619 35.0477 96.8571Z" fill="#FBDBC6"/>
<path d="M35.7143 98.0003C35.6191 98.0955 35.6191 98.0955 35.7143 98.0003C35.0476 98.7622 33.8095 99.1432 32.9524 99.4289C32.381 99.6194 31.5238 99.4289 31.1429 99.8098C30.2857 100.857 32 101.048 32.5714 100.953C33.5238 100.762 34.4762 100.381 35.3333 100C35.9048 99.8098 36.5714 99.3336 36.8572 98.8575C37.2381 98.0956 36.2857 97.5241 35.7143 98.0003Z" fill="#FBDBC6"/>
<path d="M28.8573 34.3809C29.5239 35.0476 30.2858 35.619 30.9525 36.1905C31.5239 36.4762 32.4763 36.0952 32.0954 35.3333C31.8096 34.7619 30.9525 34.3809 30.5715 34C29.9049 33.4286 29.3334 32.6667 28.6668 32.1905C28.0954 31.8095 27.2382 32.1905 27.4287 32.9524C27.6192 33.5238 28.4763 34 28.8573 34.3809Z" fill="#FBDBC6"/>
<path d="M26.1905 36.1904C26.6667 36.5713 27.0477 36.9523 27.3334 37.4285C27.5238 37.7142 27.6191 38.0951 27.8096 38.2856C28.0953 38.5713 28.4762 38.4761 28.7619 38.2856C29.7143 37.4285 28 35.8094 27.3334 35.238C27.0477 35.0475 26.7619 34.857 26.381 34.6666C25.9048 34.3808 25.5238 34.0951 25.1429 33.8094C24.8572 33.6189 24.5715 33.5237 24.1905 33.7142C23.1429 34.7618 25.6191 35.9047 26.1905 36.1904Z" fill="#FBDBC6"/>
<path d="M19.4287 36.8571C20.5716 37.3333 21.7144 37.8095 22.762 38.5714C23.3335 38.9523 23.7144 39.4285 24.0954 39.9047C24.2859 40.0952 24.3811 40.3809 24.5716 40.4761C24.9525 40.6666 25.4287 40.4761 25.6192 40.0952C25.8097 39.5237 25.2382 38.9523 24.9525 38.5714C23.7144 37.1428 21.8097 36.0952 20.0954 35.5237C19.0478 35.238 18.5716 36.3809 19.4287 36.8571Z" fill="#FBDBC6"/>
<path d="M13.3335 39.619C13.4287 39.5238 13.4287 39.619 13.3335 39.619C13.4287 39.619 13.4287 39.619 13.3335 39.619C14.8573 40 16.2859 40.3809 17.6192 40.9523C18.3811 41.238 19.0478 41.619 19.7145 42.1904C20.0002 42.3809 20.4764 42.9523 20.8573 43.0476C21.143 43.0476 21.524 42.9523 21.7144 42.5714C22.0002 41.9047 21.2383 41.4285 20.7621 41.0476C19.9049 40.3809 18.8573 39.8095 17.9049 39.4285C16.7621 38.9523 15.0478 38.1904 13.8097 38.1904C12.9525 38.1904 12.5716 39.1428 13.3335 39.619Z" fill="#FBDBC6"/>
<path d="M11.0476 43.0483C12.1904 43.1435 13.238 43.334 14.1904 43.8102C14.6666 44.0007 15.4285 44.6674 15.9999 44.4769C16.2857 44.3816 16.5714 44.0007 16.4761 43.6197C16.3809 43.0483 15.619 42.8578 15.238 42.6674C14.4761 42.2864 13.619 42.0007 12.7619 41.8102C12.2857 41.715 11.3333 41.4293 10.8571 41.6197C10.0952 42.0007 10.3809 42.9531 11.0476 43.0483Z" fill="#FBDBC6"/>
<path d="M9.52388 46.3817C10.0001 46.6674 10.5715 46.8579 11.0477 47.0483C11.6191 47.1436 12.0953 46.6674 11.9048 46.096C11.8096 45.8102 11.5239 45.715 11.2382 45.6198C10.6667 45.4293 10.1905 45.1436 9.61912 44.8579C9.04769 44.5721 8.47626 45.0483 8.5715 45.6198C8.76197 46.0007 9.23816 46.1912 9.52388 46.3817Z" fill="#FBDBC6"/>
<path d="M78.5714 89.9054C78.4762 90.0006 78.4762 90.0006 78.5714 89.9054C77.4285 90.8577 76.1904 91.7149 74.8571 92.2863C74.1904 92.572 73.4285 92.8577 72.7619 93.1435C72.3809 93.3339 71.9047 93.3339 71.7143 93.6197C71.5238 93.9054 71.4285 94.3816 71.7143 94.6673C72.1904 95.1435 72.8571 94.7625 73.3333 94.572C75.4285 93.8101 77.8095 92.7625 79.3333 91.1435C80.0952 90.4768 79.5238 89.4292 78.5714 89.9054Z" fill="#FBDBC6"/>
<path d="M72.5716 91.0481C74.5716 90.191 76.5716 89.0481 78.0002 87.5243C78.5716 86.8577 78.1907 85.81 77.2383 86.2862C76.9526 86.4767 76.6669 86.7624 76.3811 87.0481C75.9049 87.5243 75.3335 87.9053 74.7621 88.2862C74.2859 88.5719 73.8097 88.8577 73.3335 89.1434C72.9526 89.3338 72.2859 89.5243 71.905 89.81C71.3335 90.2862 71.8097 91.2386 72.5716 91.0481Z" fill="#FBDBC6"/>
<path d="M75.9048 83.3337C74.9524 84.0004 73.8096 84.3813 72.6667 84.5718C72 84.7623 71.7143 85.7147 72.4762 86.0004C73.0477 86.1909 73.9048 85.8099 74.4762 85.7147C75.3334 85.429 76.0953 85.048 76.8572 84.5718C77.3334 84.1909 78.8572 83.048 77.6191 82.5718C76.9524 82.2861 76.381 83.048 75.9048 83.3337Z" fill="#FBDBC6"/>
<path d="M76.5715 79.238H76.4763C75.7144 79.8094 74.8572 80.1903 73.9049 80.3808C73.3334 80.4761 72.381 80.2856 72.0001 80.7618C71.8096 80.9522 71.7144 81.3332 71.9049 81.6189C72.1906 82.0951 72.6668 81.9999 73.1429 81.9999C74.0001 81.9046 74.762 81.8094 75.5239 81.4284C76.0953 81.238 77.0477 80.857 77.3334 80.2856C77.8096 79.8094 77.2382 79.0475 76.5715 79.238Z" fill="#FBDBC6"/>
<path d="M72.0001 79.2388C73.5239 79.5246 75.2382 78.8579 76.4763 78.0007C76.9525 77.5246 76.6668 76.4769 75.9049 76.6674C75.6192 76.7626 75.3335 77.0484 75.0477 77.2388C74.6668 77.4293 74.1906 77.6198 73.8096 77.715C73.3335 77.8103 72.8573 77.9055 72.3811 77.8103C72.1906 77.8103 71.9049 77.715 71.7144 77.9055C71.0477 78.1912 71.3334 79.0484 72.0001 79.2388Z" fill="#FBDBC6"/>
<path d="M74.6668 74.0959C74.0002 74.6673 73.3335 75.0483 72.4763 75.0483C72.0954 75.0483 71.8097 75.0483 71.6192 75.5245C71.524 75.8102 71.524 76.0959 71.7144 76.3816C72.0002 76.6673 72.5716 76.6673 72.9525 76.5721C73.6192 76.4769 74.1906 76.2864 74.7621 76.0007C75.143 75.8102 75.7144 75.4292 75.9049 74.9531C76.1906 74.0959 75.2382 73.6197 74.6668 74.0959Z" fill="#FBDBC6"/>
<path d="M72 73.5245C72.6667 73.4293 73.2381 73.2388 73.7143 72.9531C74.0952 72.7626 74.7619 72.4769 75.0476 72.0007C75.4286 71.4293 74.6667 70.7626 74.0952 70.9531C73.8095 71.0484 73.619 71.2388 73.4286 71.4293C73.1429 71.6198 72.7619 71.8103 72.3809 71.9055C72 72.0007 71.4286 72.0007 71.2381 72.2864C70.8571 72.8579 71.4286 73.5245 72 73.5245Z" fill="#FBDBC6"/>
</g>
<defs>
<clipPath id="clip0_85_190">
<rect width="100" height="106.286" fill="white"/>
</clipPath>
</defs>
</svg>
