<svg width="100" height="115" viewBox="0 0 100 115" fill="none" xmlns="http://www.w3.org/2000/svg">
<g clip-path="url(#clip0_85_421)">
<path d="M14.5392 105.556C14.5392 103.901 13.239 102.246 13.3572 100.473C13.5936 97.518 16.1941 96.927 17.9671 95.154C18.6764 94.3265 19.031 93.4991 19.622 92.5535C20.3312 91.4897 21.395 90.544 21.9861 89.362C23.1681 86.9979 20.5676 82.1516 22.2225 80.615C22.8135 80.1421 21.9861 79.0783 21.5132 79.6693C20.3312 80.8514 20.6858 82.1516 20.9222 83.6883C21.395 87.3526 20.3312 90.0712 18.2035 92.9081C16.4305 95.3904 13.4754 96.0996 12.648 99.1729C12.2934 100.591 13.4754 106.738 12.2934 107.093C11.5842 107.329 11.7024 108.511 12.4116 108.275C13.5936 107.92 14.421 107.211 14.5392 105.556Z" fill="#FBDBC6"/>
<path d="M22.3405 114.539C25.0591 110.52 28.8416 110.756 29.4327 105.319C29.7873 102.482 30.8511 99.8817 31.3239 97.0448C31.9149 94.0897 31.7967 91.2529 31.3239 88.416C31.3239 88.416 31.3239 88.416 31.3239 88.2978C31.7967 87.7068 32.3877 86.9975 32.7424 86.2883C33.097 85.5791 32.1513 84.8699 31.7967 85.5791C30.4965 87.5886 28.3688 89.1252 27.4232 91.2529C27.6596 88.6524 26.8322 85.9337 28.0142 83.215C28.6052 81.7966 26.3594 80.851 25.7684 82.2694C24.7045 84.8699 25.0591 87.7068 24.8227 90.4254C24.7045 90.4254 24.5863 90.5437 24.4681 90.7801C24.1135 91.2529 23.8771 91.7257 23.7589 92.1985C24.1135 90.8983 24.3499 89.7162 24.3499 88.416C24.4681 86.8793 23.4043 82.2694 25.1773 81.5602C26.2412 81.0874 25.532 79.4325 24.4681 79.9053C22.9315 80.4964 22.3405 81.9148 22.3405 83.4514C22.3405 86.7611 22.8133 89.4798 21.7494 92.7895C21.3948 93.8533 22.9315 94.5626 23.2861 93.6169C23.1679 94.2079 23.0497 94.9172 22.9315 95.6264C21.9859 97.0448 20.922 98.2269 19.5036 99.4089C19.3854 99.5271 19.2672 99.5271 19.149 99.6453C19.2672 97.8723 19.6218 96.2174 20.4492 94.5626C21.0402 93.4987 19.3854 92.9077 18.7944 93.8533C17.4941 96.2174 17.4941 98.8179 17.3759 101.418C17.2577 101.655 17.0213 102.009 16.9031 102.364C16.6667 102.955 16.9031 103.428 17.2577 103.664C17.1395 106.028 16.6667 108.274 15.1301 110.165C14.4208 111.111 15.8393 112.175 16.5485 111.229C18.4398 108.983 18.7944 106.383 18.9126 103.664C19.0308 103.546 19.0308 103.428 19.149 103.31C19.6218 102.009 21.0402 101.064 22.2223 100.118C21.7494 103.073 20.922 105.792 19.149 108.392C18.4398 109.338 19.9764 110.402 20.5674 109.456C22.1041 107.21 23.0497 104.846 23.6407 102.128C23.8771 100.946 23.9953 99.4089 24.1135 97.9905C24.9409 96.9266 25.6502 95.7446 26.3594 94.5626C26.4776 94.3262 26.4776 94.208 26.5958 93.9715C26.3594 99.2907 29.5509 104.373 24.2317 108.392C23.6407 108.865 24.3499 109.811 24.9409 109.338C26.123 108.511 26.9504 107.447 27.6596 106.383C27.1868 108.274 26.3594 109.693 24.4681 111.111C23.1679 112.057 22.1041 112.766 21.1584 114.066C20.922 114.421 21.8676 115.13 22.3405 114.539ZM28.0142 93.9715C28.3688 92.1985 29.1963 90.8983 30.2601 89.598C30.6147 92.0803 30.6147 94.4444 30.1419 96.9266C29.9055 98.3451 29.4327 99.6453 28.9598 101.064C28.8416 98.6997 27.6596 96.3356 28.0142 93.9715Z" fill="#FBDBC6"/>
<path d="M45.272 47.8728C47.7543 43.4993 50.3548 40.7806 54.8465 38.4166C57.447 37.1163 59.811 35.8161 61.8205 33.5702C62.2933 32.9792 61.3477 32.27 60.8749 32.861C58.038 36.0525 54.0191 37.1163 50.5912 39.4804C47.6361 41.4898 45.863 44.4449 44.2082 47.4C43.7354 47.991 44.9174 48.4638 45.272 47.8728Z" fill="#FBDBC6"/>
<path d="M37.2342 32.743C37.2342 33.925 37.4706 35.2252 37.8252 36.4073C38.0617 37.1165 39.1255 36.6437 38.8891 35.9344C38.4163 34.7524 38.2981 33.4522 38.2981 32.1519C38.8891 31.9155 39.4801 31.5609 40.0711 31.3245C40.0711 32.2701 40.0711 33.0976 40.1893 34.0432C40.3075 34.7524 41.4895 34.6342 41.3713 33.925C41.1349 32.9794 41.1349 31.9155 41.2531 30.9699C41.3713 30.8517 41.6078 30.8517 41.726 30.7335C41.9624 30.6153 42.0806 30.6153 42.317 30.4971C42.317 30.8517 42.317 31.2063 42.4352 31.4427C42.5534 31.7973 42.7898 31.9155 43.0262 31.9155C43.2626 31.9155 43.6172 31.5609 43.499 31.3245C43.3808 30.9699 43.3808 30.4971 43.3808 30.1425C43.8536 30.0243 44.2082 29.9061 44.681 29.7879C44.7992 30.3789 44.9174 31.0881 45.1539 31.6791C45.3903 32.3883 46.4541 31.9155 46.2177 31.2063C46.0995 30.7335 45.9813 30.1425 45.9813 29.5515C46.4541 29.4333 46.9269 29.3151 47.3997 29.1969C47.3997 29.5515 47.3997 29.9061 47.2815 30.2607C47.2815 30.9699 48.3453 31.0881 48.4635 30.3789C48.4635 29.9061 48.4635 29.3151 48.5817 28.8422C52.3643 27.8966 56.0286 26.8328 59.4565 24.9415C60.5203 24.3505 59.8111 22.6957 58.7472 23.2867C52.4825 26.7146 45.1539 27.1874 38.5345 30.0243C32.6243 32.6248 28.2508 37.2347 24.2319 42.1992C23.5226 43.1448 24.9411 44.2087 25.6503 43.2631C29.0782 39.1259 32.7425 35.3434 37.2342 32.743Z" fill="#FBDBC6"/>
<path d="M45.8629 74.3505C44.7991 74.8233 45.5083 76.4781 46.5721 76.0053C58.2743 71.159 66.5485 60.4025 68.4398 47.8729C68.558 46.6909 66.7849 46.4545 66.6667 47.6365C64.8937 59.575 57.0922 69.7405 45.8629 74.3505Z" fill="#FBDBC6"/>
<path d="M66.5486 31.5609C65.3666 31.5609 65.603 33.334 66.785 33.334C67.4942 33.334 68.0853 33.2158 68.6763 32.9794C68.6763 33.334 68.7945 33.8068 68.7945 34.1614C68.9127 34.8706 69.9765 34.7524 69.9765 34.0432C69.8583 33.4522 69.8583 32.9794 69.7401 32.3884C70.3311 32.0337 70.9221 31.4427 71.395 30.8517C71.5132 31.2063 71.5132 31.5609 71.5132 31.9155C71.5132 32.6248 72.6952 32.5066 72.6952 31.7973C72.6952 31.0881 72.4588 30.3789 72.2224 29.7879C72.577 29.3151 72.8134 28.8423 73.0498 28.2512C73.2862 28.7241 73.4044 29.3151 73.6408 29.7879C73.8772 30.4971 74.941 30.0243 74.7046 29.3151C74.4682 28.6059 74.1136 27.7784 73.8772 27.0692C73.8772 26.951 73.759 26.951 73.759 26.8328C74.5864 24.8233 75.1775 22.6957 75.5321 21.159C75.7685 19.977 73.9954 19.7406 73.759 20.9226C73.0498 24.3505 70.9221 31.4427 66.5486 31.5609Z" fill="#FBDBC6"/>
<path d="M7.80154 100.828C8.15615 97.9909 8.51076 95.0358 10.402 92.6717C11.7022 91.1351 13.2389 89.8348 14.6573 88.4164C14.7755 88.2982 15.0119 88.0618 15.1301 87.9436C15.1301 87.9436 15.1301 87.9436 15.1301 87.8254C15.2483 87.7072 15.3666 87.589 15.4848 87.3526C14.8937 91.0169 13.9481 94.2083 10.7566 97.1634C9.9292 97.9909 10.993 99.4093 11.8205 98.5819C14.1845 96.4542 15.8394 93.9719 16.785 91.0169C17.967 86.9979 16.6668 81.6788 20.8039 79.0783C21.7495 78.4873 20.6857 77.0689 19.7401 77.6599C17.2578 79.1965 16.3122 81.6788 15.8394 84.5157C15.7212 85.1067 15.603 85.8159 15.603 86.4069L15.4848 86.2887C15.4848 85.8159 15.3666 85.3431 15.3666 84.9885C14.6573 81.206 15.603 78.7237 19.1491 76.9507C19.3855 76.8325 19.3855 76.7143 19.5037 76.4778C21.5131 76.8325 22.6952 74.7048 24.8228 76.005C26.8323 77.3053 25.7684 79.1965 27.0687 80.8514C28.1325 82.1516 29.5509 82.388 31.0876 82.5062C30.9694 83.2154 31.0876 83.9247 31.6786 84.6339C32.0332 85.1067 32.506 84.7521 32.8606 84.9885C34.3973 86.0523 33.3335 86.5251 33.9245 87.7072C32.1514 89.5984 31.4422 91.7261 31.915 94.4448C32.9788 100.237 32.1514 104.965 28.9599 109.929C28.1325 111.23 30.0238 112.648 30.8512 111.348C32.7424 108.393 34.1609 105.201 34.7519 101.773C34.7519 101.892 34.7519 102.01 34.7519 102.128C34.9883 105.201 36.7613 107.802 36.9978 110.875C36.9978 111.702 38.1798 111.466 38.1798 110.757C38.0616 108.511 37.116 106.62 36.5249 104.492C35.9339 102.364 35.8157 100.237 36.2885 98.2273C39.48 104.61 46.2176 106.856 53.1916 106.974C61.9387 107.093 71.5131 105.319 77.7779 98.8183C84.8701 91.4897 88.5344 80.8514 88.7708 70.8041C88.889 65.8396 88.1798 60.875 86.6432 56.0287C84.8701 50.5913 81.5604 45.745 79.9056 40.1894C75.7684 27.0689 87.8252 21.2769 96.5722 14.7757C96.9268 14.5393 97.045 14.1847 97.045 13.9483C97.2814 13.9483 97.3996 13.8301 97.636 13.8301C101.182 12.5299 100 7.2107 98.6999 4.84664C96.8086 1.30054 93.4989 0.000302434 89.5982 0.591319C89.2436 0.236709 88.7708 0.118506 88.298 0.236709C82.1514 2.60078 78.9599 7.91992 74.4682 12.1752C69.0309 17.3762 62.0569 19.9767 54.4918 19.3856C47.9907 18.7946 41.6077 16.667 34.9883 16.7852C28.9599 16.9034 23.0498 18.9128 17.967 21.9861C-1.65473 33.9247 -4.01879 61.7024 11.8205 77.7781C11.8205 81.6788 5.67388 84.2793 3.30981 86.2887C0.70934 88.5346 0.827544 92.1989 0.118324 95.2722C-0.118083 96.4542 1.65497 96.5724 1.89137 95.5086C2.7188 92.1989 2.60059 88.8892 5.91029 86.8797C7.68334 85.8159 9.21998 84.7521 10.6384 83.2154C12.1751 81.6788 13.4753 79.9057 13.5935 77.8963C13.8299 77.6599 14.0663 77.4235 14.0663 77.0689C14.4209 76.9507 14.6573 76.7143 14.6573 76.3596C14.7755 74.823 15.4848 74.7048 16.5486 75.0594C16.6668 75.1776 16.785 75.1776 16.9032 75.1776C17.1396 75.2958 17.4942 75.414 17.8488 75.5322C18.0852 75.6504 18.3216 75.7686 18.4398 76.005C15.7212 77.5417 13.4753 80.0239 13.8299 83.3336C14.0663 84.1611 14.1845 84.8703 14.4209 85.6977C14.0663 87.2344 13.3571 88.0618 12.0569 88.4164C11.4658 88.8892 10.6384 89.1256 10.0474 89.4802C7.80154 90.8987 6.02849 92.7899 4.61005 94.9176C4.13724 95.5086 5.08286 96.336 5.55568 95.6268C6.97411 93.6173 8.62896 91.7261 10.7566 90.4258C10.8748 90.4258 10.8748 90.3076 10.993 90.3076C10.1656 91.1351 9.45638 91.9625 8.86537 92.9081C7.44693 95.2722 7.09232 97.9909 6.73771 100.591C6.5013 101.419 7.68333 101.655 7.80154 100.828ZM34.8701 99.5275C34.6337 96.2178 33.5699 92.3171 35.2247 89.8348C35.5793 90.544 35.3429 90.8987 35.1065 92.1989C35.1065 92.5535 35.2247 94.563 35.9339 95.2722C35.3429 96.6906 34.9883 98.1091 34.8701 99.5275ZM83.8063 20.9223C83.4517 21.1587 83.2152 21.5133 82.8606 21.7497C82.8606 21.3951 82.9788 21.0405 82.9788 20.6859C83.2152 20.8041 83.5699 20.8041 83.8063 20.9223ZM81.7968 20.4495C81.6786 21.0405 81.6786 21.6315 81.5604 22.2225C81.5604 22.4589 81.6786 22.5771 81.7968 22.6953C81.324 23.1682 80.8512 23.7592 80.3784 24.232C80.6148 22.8135 80.6148 21.5133 80.8512 20.0949C81.2058 20.2131 81.4422 20.3313 81.7968 20.4495ZM86.6432 17.7308C86.6432 17.849 86.6432 17.9672 86.6432 18.2036C86.6432 18.3218 86.6432 18.44 86.6432 18.5582C86.4067 18.7946 86.1703 18.9128 85.9339 19.1492C85.9339 18.6764 85.9339 18.2036 86.0521 17.7308C86.2885 17.7308 86.5249 17.7308 86.6432 17.7308ZM84.7519 19.9767C84.1609 19.8585 83.6881 19.7403 83.0971 19.6221C83.2153 18.6764 83.3335 17.849 83.4517 16.9034C83.9245 17.1398 84.3973 17.258 84.8701 17.3762C84.8701 18.2036 84.7519 19.1492 84.7519 19.9767ZM89.5982 2.00976C89.7164 1.89156 89.7164 1.89156 89.5982 2.00976C89.8346 2.00976 89.9528 1.89156 90.071 1.89156C91.2531 2.36437 92.4351 2.95539 93.4989 3.5464C94.09 3.90101 94.7992 3.07359 94.2082 2.60078C93.4989 2.12796 92.9079 1.77335 92.1987 1.41874C93.7353 1.53695 95.272 2.12796 96.454 3.5464C97.5178 4.72844 98.3453 6.38328 98.5817 7.91992C98.6999 8.62914 98.8181 9.45657 98.5817 10.1658C98.4635 11.9388 97.6361 12.4116 96.2176 11.7024C94.9174 11.9388 94.2082 11.466 93.9717 10.1658C93.7353 9.33836 93.4989 8.62914 93.3807 7.80172C93.1443 7.2107 93.0261 6.61969 92.6715 6.02867C93.7353 6.50148 94.5628 7.0925 95.5084 7.68352C96.0994 8.03813 96.8086 7.2107 96.2176 6.73789C94.3264 5.55586 92.4351 4.37383 90.4257 3.19179C89.9528 2.71898 89.5982 2.24617 89.5982 2.00976ZM84.0427 5.55586C84.6337 5.79226 85.2247 6.02867 85.8157 6.14687C86.5249 6.26508 86.6431 5.20125 85.9339 4.96484C85.5793 4.84664 85.3429 4.72844 84.9883 4.61023C85.9339 3.78281 86.9978 3.19179 88.1798 2.60078C88.4162 3.31 89.2436 3.90101 89.9528 4.49203C88.7708 5.67406 87.3524 6.73789 85.9339 7.68352C86.2885 7.44711 86.2885 6.85609 85.9339 6.61969C85.2247 6.26508 84.5155 5.91047 83.8063 5.55586C83.9245 5.67406 84.0427 5.67406 84.0427 5.55586ZM27.0687 74.9412C25.8866 74.232 24.7046 73.8774 23.6408 73.7592C22.2223 72.3407 21.3949 70.5677 21.0403 68.44C21.6313 69.6221 22.2223 70.6859 23.0498 71.7497C23.5226 72.3407 24.35 71.6315 23.9954 71.0405C22.4587 69.1492 21.3949 67.0216 20.9221 64.6575C20.9221 64.5393 20.8039 64.4211 20.8039 64.4211C20.8039 64.4211 20.8039 64.4211 20.8039 64.3029C21.1585 64.8939 21.5131 65.4849 21.7495 65.9578C22.1041 66.5488 23.0498 65.8396 22.6952 65.2485C22.3405 64.6575 21.8677 63.9483 21.6313 63.2391C21.5131 62.8845 21.0403 62.2935 21.0403 61.8206V61.7024C21.0403 61.5842 21.0403 61.466 21.1585 61.3478C21.3949 61.1114 21.2767 60.875 21.1585 60.7568C21.1585 60.4022 21.2767 59.9294 21.3949 59.5748C21.8677 60.6386 22.4587 61.8206 22.9316 62.8845C23.2862 63.5937 24.2318 63.1209 23.9954 62.4117C23.2862 60.7568 22.4587 59.2202 21.7495 57.5653C21.7495 57.3289 21.8677 56.9743 21.8677 56.7379C22.2223 57.9199 22.6952 59.102 23.4044 60.0476C23.759 60.6386 24.7046 59.9294 24.35 59.3384C23.5226 58.1563 23.0498 56.9743 22.8134 55.5559C22.6952 55.3195 22.577 55.083 22.3405 55.083C22.577 54.3738 22.6952 53.6646 22.9316 52.9554C23.168 52.2462 21.9859 51.7734 21.8677 52.4826C20.2129 58.2745 17.8488 68.0854 22.2223 73.4046C21.9859 73.4046 21.7495 73.4046 21.5131 73.5228C18.9126 73.8774 18.9126 72.9317 17.1396 71.8679C17.0214 71.8679 16.9032 71.7497 16.9032 71.7497C16.3122 70.5677 15.7212 69.3857 15.2483 68.2036C15.603 68.5582 15.9576 68.7946 16.4304 69.1492C17.0214 69.5039 17.7306 68.6764 17.1396 68.2036C16.194 67.6126 15.3666 66.7852 14.6573 65.9578C14.6573 65.8396 14.5391 65.8396 14.4209 65.8396C14.1845 65.1303 14.0663 64.4211 13.9481 63.7119C14.3027 63.9483 14.7755 64.3029 15.1301 64.6575C15.7212 65.1303 16.3122 64.1847 15.8394 63.7119C15.2483 63.1209 14.5391 62.6481 13.7117 62.1752C13.5935 60.9932 13.4753 59.8112 13.4753 58.6291C13.8299 58.9838 14.0663 59.4566 14.4209 59.8112C14.8937 60.4022 15.7212 59.693 15.3666 59.102C14.7755 58.3927 14.1845 57.5653 13.5935 56.8561C13.5935 56.0287 13.7117 55.0831 13.8299 54.2556C14.1845 54.7284 14.4209 55.2013 14.7755 55.6741C15.1301 56.2651 16.0758 55.5559 15.7212 54.9648C15.2483 54.1374 14.7755 53.4282 14.1845 52.6008C14.4209 51.6552 14.6573 50.7095 14.8937 49.8821C15.1301 50.1185 15.2483 50.3549 15.4848 50.7095C15.9576 51.3005 16.785 50.5913 16.4304 50.0003C16.0758 49.5275 15.7212 49.0547 15.3666 48.5819C15.7212 47.6362 16.0758 46.6906 16.5486 45.8632C17.0214 44.7994 15.3666 44.0901 14.8937 45.154C10.6384 53.5464 10.7566 63.2391 14.8937 71.5133C14.6573 71.5133 14.4209 71.6315 14.3027 71.7497C8.15615 63.5937 6.14669 53.1918 8.74716 43.1445C8.98357 42.4353 7.80154 42.1989 7.56513 43.0263C4.84646 53.31 6.97412 64.1847 13.4753 72.6953C13.2389 73.2864 13.2389 73.9956 13.2389 74.823C13.0025 74.4684 12.7661 74.3502 12.4115 74.3502C2.36419 62.6481 1.77317 46.2178 9.21998 34.2793C8.98357 35.3431 8.86537 36.2887 8.74716 37.3526C8.62896 38.0618 9.811 38.18 9.9292 37.4708C10.1656 35.2249 10.6384 33.2154 11.4658 31.0878C11.9387 30.4968 12.4115 29.9057 13.0025 29.3147C12.5297 30.7332 12.2933 32.0334 12.2933 33.57C12.2933 34.2793 13.3571 34.3975 13.4753 33.6882C13.5935 31.3242 14.1845 29.1965 15.2483 27.1871C16.194 26.3596 17.2578 25.5322 18.3216 24.823C17.2578 26.4778 16.3122 28.2509 15.7212 30.1421C15.4848 30.8514 16.5486 31.3242 16.785 30.615C17.7306 27.8963 19.1491 25.414 21.0403 23.2864C21.0403 23.2864 21.0403 23.1682 21.1585 23.1682C21.5131 22.9317 21.9859 22.6953 22.3405 22.5771C21.3949 23.8774 20.6857 25.2958 20.0947 26.8325C19.8583 27.5417 20.9221 28.0145 21.1585 27.3053C21.8677 25.0594 23.0498 23.1682 24.7046 21.5133C25.4138 21.2769 26.1231 20.9223 26.8323 20.6859C33.2152 18.5582 39.48 18.9128 45.9812 20.2131C46.6904 20.3313 47.5178 20.4495 48.2271 20.6859C42.1987 21.2769 36.2885 22.5771 30.733 24.823C30.3784 24.4684 29.7874 24.7048 29.7874 25.1776C28.1325 25.8868 26.4777 26.7143 24.8228 27.6599C21.0403 29.9057 17.6124 32.7426 14.7755 36.2887C14.5391 36.2887 14.1845 36.4069 14.1845 36.7615C14.1845 36.8797 14.1845 36.9979 14.1845 37.1161C13.2389 38.5346 12.2933 39.953 11.4658 41.4897C11.1112 42.1989 12.1751 42.6717 12.5297 41.9625C13.1207 40.8987 13.7117 39.953 14.3027 39.0074C14.4209 40.0712 14.7755 41.1351 15.2483 42.1989C15.4848 42.9081 16.5486 42.4353 16.3122 41.7261C15.7212 40.4258 15.3666 39.0074 15.3666 37.589C15.8394 36.9979 16.3122 36.4069 16.785 35.8159C16.9032 36.9979 17.2578 38.0618 17.967 39.1256C18.3216 39.7166 19.3855 39.362 19.0309 38.6528C18.3216 37.3526 17.967 36.0523 17.8488 34.6339C18.558 33.8064 19.3855 33.0972 20.2129 32.388C19.7401 33.4518 19.8583 34.5157 20.5675 35.4613C21.0403 36.0523 21.9859 35.3431 21.5131 34.7521C21.0403 34.1611 20.9221 33.3336 21.2767 32.6244C21.5131 32.2698 21.2767 31.797 20.9221 31.6788C21.2767 31.3242 21.7495 30.9696 22.1041 30.7332C22.1041 31.9152 22.2223 32.979 22.6952 34.1611C22.9316 34.8703 23.9954 34.3975 23.759 33.6882C23.4044 32.7426 23.2862 31.6788 23.2862 30.615C23.2862 30.3786 23.168 30.2604 23.0498 30.1421C23.6408 29.7875 24.1136 29.4329 24.7046 29.0783C24.7046 29.7875 24.8228 30.615 24.8228 31.3242C24.8228 32.0334 26.0048 31.9152 26.0048 31.206C25.8866 30.2604 25.8866 29.4329 25.7684 28.4873C26.2413 28.2509 26.7141 27.8963 27.3051 27.6599C27.4233 28.1327 27.4233 28.6055 27.5415 29.1965C27.6597 29.9057 28.7235 29.7875 28.7235 29.0783C28.6053 28.4873 28.6053 28.0145 28.4871 27.4235C28.4871 27.3053 28.4871 27.3053 28.3689 27.1871C28.9599 26.9507 29.5509 26.596 30.2602 26.3596C29.5509 26.8325 29.5509 27.1871 29.5509 27.5417C29.5509 28.2509 30.733 28.1327 30.733 27.4235C30.733 26.9507 30.6148 26.4778 30.4966 26.005C37.3524 23.2864 45.1538 21.9861 52.4824 21.6315C55.6739 21.9861 58.9836 22.2225 62.1751 21.5133C67.376 20.4495 72.1041 17.7308 75.8866 14.0665C78.0143 12.057 79.9056 9.69298 81.915 7.68352C81.915 7.91992 82.0332 8.15633 82.3878 8.15633C82.9788 8.15633 83.4517 8.39274 83.9245 8.62914C84.5155 8.98376 85.2247 8.15633 84.6337 7.68352C83.9245 7.44711 83.2153 7.0925 82.506 7.0925C82.6242 6.9743 82.8606 6.73789 82.9788 6.61969C83.8063 7.0925 84.7519 7.44711 85.5793 7.91992C85.6975 8.03813 85.9339 8.03813 86.0521 7.91992C82.7424 10.0476 79.1963 11.8206 76.2413 14.3029C72.577 17.3762 69.6219 21.1587 67.2578 25.2958C66.9032 26.005 67.967 26.4778 68.3216 25.7686C71.2767 20.6859 75.1774 16.3124 80.0238 13.0027C83.8063 10.4022 87.8252 8.74735 91.0167 5.43765C92.1987 6.9743 92.7897 11.3478 94.5628 13.1209C93.4989 13.9483 92.3169 14.7757 91.1349 15.6031C91.2531 15.1303 90.7803 14.6575 90.3074 14.5393C89.8346 14.4211 89.3618 14.7757 89.2436 15.3667C89.1254 15.9578 89.0072 16.5488 88.889 17.1398C88.7708 17.258 88.6526 17.3762 88.4162 17.4944C88.4162 16.667 88.5344 15.8395 88.5344 15.0121C88.5344 13.8301 86.7614 13.5937 86.7614 14.7757C86.7614 15.4849 86.6432 16.1942 86.6432 16.9034C86.5249 16.5488 86.2885 16.5488 86.1703 16.5488C86.1703 16.1942 86.1703 15.8395 86.1703 15.4849C86.1703 14.6575 84.9883 14.5393 84.9883 15.3667C84.9883 15.7213 84.9883 15.9578 84.9883 16.3124C84.5155 16.1942 84.0427 15.9577 83.5699 15.8395C83.5699 15.4849 83.6881 15.2485 83.6881 14.8939C83.8063 14.0665 82.6242 13.9483 82.506 14.7757C82.3878 16.3124 82.1514 17.849 81.915 19.5038C81.5604 19.3856 81.2058 19.3856 80.9694 19.2674C81.0876 17.9672 81.324 16.5488 81.7968 15.2485C82.1514 14.1847 80.4966 13.4755 80.142 14.5393C79.6692 15.9578 79.4327 17.3762 79.1963 18.9128C78.4871 18.7946 77.7779 18.5582 77.0687 18.44C76.3595 18.3218 76.2412 19.3856 76.9505 19.6221C77.6597 19.7403 78.3689 19.9767 79.0781 20.0949C78.8417 22.2225 78.7235 24.4684 78.1325 26.596C78.0143 26.9507 78.1325 27.3053 78.4871 27.4235C77.8961 28.6055 77.3051 29.9057 76.9505 31.206C76.9505 31.4424 76.8323 31.9152 76.8323 32.2698C76.2413 32.1516 75.6502 32.5062 75.7684 33.2154C77.7779 43.7355 76.3595 54.1374 71.6313 63.7119C71.1585 64.7757 72.8134 65.4849 73.2862 64.4211C73.5226 64.0665 73.6408 63.5937 73.759 63.2391C74.2318 63.8301 74.5864 64.5393 74.8228 65.2485C74.941 65.9578 76.1231 65.8396 76.0049 65.1303C75.7684 63.9483 75.1774 63.0027 74.35 62.1752C74.5864 61.5842 74.941 60.9932 75.1774 60.284C75.6502 60.5204 76.0049 60.9932 76.1231 61.466C76.3595 62.1753 77.4233 61.7024 77.1869 60.9932C76.8323 60.1658 76.2413 59.5748 75.532 59.102C75.7684 58.2745 76.123 57.5653 76.3595 56.7379C76.8323 57.3289 77.3051 57.9199 77.6597 58.5109C78.0143 59.102 79.0781 58.7474 78.7235 58.0381C78.2507 57.0925 77.5415 56.1469 76.7141 55.4377C76.9505 54.7284 77.0687 54.1374 77.1869 53.4282C77.5415 53.7828 77.7779 54.2556 77.8961 54.7284C78.1325 55.4377 79.1963 54.9648 78.9599 54.2556C78.6053 53.4282 78.1325 52.719 77.4233 52.128C77.5415 51.6552 77.5415 51.3005 77.6597 50.8277C78.0143 51.1823 78.2507 51.537 78.3689 51.8916C78.6053 52.6008 79.6691 52.128 79.4327 51.4187C79.0781 50.5913 78.6053 50.0003 77.8961 49.5275C78.2507 47.2816 78.3689 44.9176 78.3689 42.6717C78.9599 44.2083 79.6692 45.745 80.3784 47.1634C80.6148 47.7544 80.9694 48.3455 81.2058 48.9365C82.3878 57.9199 80.142 66.7852 74.941 74.232C74.4682 74.823 75.4138 75.6504 75.8866 74.9412C80.6148 68.2036 82.9788 60.284 82.6242 52.2462C83.2152 53.6646 83.8063 55.083 84.2791 56.5015C84.7519 63.5937 83.3335 73.2864 78.2507 78.3691C77.4233 79.1965 78.8417 80.2604 79.6692 79.4329C83.4517 75.5322 85.3429 69.2674 85.9339 63.2391C86.0521 64.3029 86.2885 65.3667 86.2885 66.4306C86.6431 71.5133 86.0521 77.3053 84.2791 82.6244C84.2791 82.388 84.2791 82.1516 84.2791 81.9152C84.1609 81.206 83.0971 81.3242 83.0971 82.0334C83.2153 83.2154 83.2152 84.5157 83.2152 85.6977C82.9788 86.2887 82.7424 86.8797 82.3878 87.4708C82.3878 86.5251 82.3878 85.6977 82.3878 84.7521C82.3878 84.0429 81.2058 84.1611 81.2058 84.8703C81.2058 86.5251 81.2058 88.18 81.0876 89.8348C81.0876 89.953 80.9694 90.0712 80.9694 90.0712C81.0876 88.6528 81.0876 87.2344 81.0876 85.8159C81.0876 85.1067 79.9056 85.2249 79.9056 85.9341C80.0238 88.0618 79.9056 90.1894 79.5509 92.3171C79.4327 92.5535 79.1963 92.7899 78.9599 93.0263C79.0781 91.6079 79.0781 90.0712 78.8417 88.6528C78.7235 87.9436 77.6597 88.0618 77.6597 88.771C77.8961 90.7804 77.8961 92.7899 77.5415 94.7994C76.9505 95.5086 76.2413 96.2178 75.532 96.927C75.8866 95.2722 76.123 93.6173 76.3595 91.8443C76.4777 91.1351 75.2956 91.0169 75.1774 91.7261C74.941 93.9719 74.5864 96.0996 73.9954 98.2273C73.168 98.9365 72.2223 99.5275 71.1585 100.119C72.1041 97.6362 72.8134 95.154 73.2862 92.5535C73.4044 91.8443 72.2223 91.7261 72.1041 92.4353C71.6313 95.3904 70.8039 98.2273 69.6219 100.946C68.7944 101.301 68.0852 101.655 67.2578 101.892C58.2744 104.847 42.9079 106.383 38.0616 96.0996C38.5344 95.6268 38.5344 95.154 38.4162 94.6812C39.5982 95.2722 40.7803 95.6268 41.9623 96.0996C41.6077 97.2816 41.7259 98.5819 42.0805 99.8821C42.3169 100.591 43.3807 100.119 43.1443 99.4093C42.7897 98.4637 42.7897 97.3998 43.0261 96.4542C43.9718 96.6906 44.9174 96.8088 45.9812 96.927C45.9812 97.7544 46.0994 98.7001 46.0994 99.5275C46.0994 100.237 47.2814 100.119 47.2814 99.4093C47.2814 98.7001 47.1632 97.8727 47.1632 97.1634C48.2271 97.2816 49.2909 97.2816 50.3547 97.2816C50.2365 98.2273 50.3547 99.1729 50.8275 100C51.1822 100.71 52.1278 100.237 51.8914 99.5275C51.5368 98.8183 51.4186 98.1091 51.5368 97.2816V97.1634C52.7188 97.0452 53.9008 96.927 55.0829 96.8088C55.0829 97.7544 55.4375 98.7001 55.9103 99.4093C56.2649 100 57.2105 99.2911 56.8559 98.7001C56.3831 97.9909 56.2649 97.2816 56.2649 96.5724C57.2105 96.336 58.1561 96.0996 59.1018 95.8632C59.22 96.8088 59.5746 97.7544 60.2838 98.5819C60.7566 99.1729 61.584 98.4637 61.2294 97.8727C60.6384 97.1634 60.402 96.4542 60.2838 95.6268C65.2483 94.0901 69.8583 91.4897 73.4044 88.4164C73.9954 87.9436 73.2862 86.9979 72.6952 87.4708C68.3216 91.1351 62.4115 94.0901 56.2649 95.3904C56.0285 95.0358 55.3193 95.0358 55.2011 95.6268C51.3004 96.336 47.3996 96.336 43.7353 95.5086C44.09 94.7994 43.0261 94.4448 42.6715 95.0358V95.154C40.7803 94.563 38.889 93.7355 37.2342 92.6717H37.116C37.116 92.4353 37.116 92.1989 37.116 91.8443C37.116 91.3715 37.5888 90.7805 37.707 90.3076C37.8252 89.7166 37.8252 89.362 37.707 89.0074C38.889 89.362 40.1892 89.5984 41.3713 89.7166C41.2531 90.6623 41.1349 91.4897 41.2531 92.4353C41.3713 93.1445 42.4351 93.0263 42.4351 92.3171C42.3169 91.4897 42.3169 90.6622 42.5533 89.8348C43.3807 89.953 44.09 89.953 44.9174 89.953C45.0356 90.6622 45.1538 91.3715 45.1538 92.0807C45.272 92.7899 46.3358 92.6717 46.3358 91.9625C46.2176 91.2533 46.0994 90.6622 46.0994 89.953C47.2814 89.953 48.3453 89.8348 49.5273 89.5984L49.4091 89.7166C49.1727 90.8987 49.2909 92.0807 49.7637 93.2627C50.1183 93.9719 51.0639 93.4991 50.8275 92.7899C50.3547 91.8443 50.3547 90.8987 50.4729 89.8348C50.4729 89.5984 50.4729 89.4802 50.3547 89.362C51.4186 89.1256 52.4824 88.8892 53.5462 88.6528C53.6644 89.8348 54.1372 91.0169 54.7283 92.0807C55.0829 92.6717 56.1467 92.3171 55.7921 91.6079C55.2011 90.544 54.8465 89.4802 54.6101 88.2982C55.5557 88.0618 56.5013 87.7072 57.3287 87.3526C57.3287 87.3526 57.3287 87.3526 57.3287 87.4708C57.6833 88.2982 57.9197 89.2438 58.2743 90.0712C58.5108 90.7804 59.5746 90.3076 59.3382 89.5984C58.9836 88.771 58.7472 87.8254 58.3926 86.9979C58.3926 86.9979 58.3926 86.9979 58.3926 86.8797C59.3382 86.5251 60.2838 86.0523 61.1112 85.5795C61.2294 86.2887 61.4658 86.8797 62.0569 87.3526C62.6479 87.8254 63.2389 86.8797 62.7661 86.4069C62.2933 86.0523 62.1751 85.4613 62.2933 84.8703C62.8843 84.5157 63.3571 84.2793 63.9481 83.9247C64.0663 84.1611 64.0663 84.3975 64.3027 84.6339C64.7755 85.2249 65.603 84.5157 65.2483 83.9247C65.0119 84.0429 65.0119 83.8064 65.0119 83.57C66.3122 82.6244 67.7306 81.6788 68.9127 80.7332C69.8583 80.024 68.6762 78.6055 67.8488 79.3147C60.6384 85.1067 51.8914 89.1256 42.9079 88.4164C43.0261 87.8254 42.0805 87.4708 41.8441 88.18V88.2982C39.9528 88.0618 38.0616 87.589 36.1703 86.8797C36.0521 86.1705 36.4067 85.4613 36.1703 84.8703C36.0521 84.7521 36.0521 84.5157 35.9339 84.3975C37.3524 84.3975 38.7708 84.1611 40.3074 83.9247C40.5439 83.9247 40.8985 83.8065 41.1349 83.8065C40.8985 84.3975 40.8985 84.9885 41.0167 85.5795C41.1349 85.9341 41.3713 86.0523 41.6077 86.0523C41.8441 86.0523 42.1987 85.6977 42.0805 85.4613C41.9623 84.8703 41.9623 84.2793 42.3169 83.8065C42.3169 83.8065 42.3169 83.6883 42.4351 83.6883C43.0261 83.5701 43.4989 83.4518 44.09 83.3336C44.09 83.3336 44.09 83.3336 44.09 83.4518C44.09 83.57 44.2082 83.6883 44.2082 83.6883C44.2082 83.8065 44.2082 83.8065 44.3264 83.9247C44.4446 84.1611 44.5628 84.3975 44.681 84.7521C44.9174 85.2249 45.1538 85.8159 45.5084 86.1705C45.9812 86.6433 46.6904 85.8159 46.2176 85.2249C45.863 84.8703 45.7448 84.2793 45.6266 83.9247C45.5084 83.6883 45.3902 83.3336 45.272 82.979C45.7448 82.8608 46.2176 82.7426 46.6904 82.6244C46.8086 83.6883 47.2814 84.5157 47.9907 85.3431C48.4635 85.9341 49.4091 85.2249 48.9363 84.6339C48.3453 83.9247 47.9907 83.2154 47.8725 82.388C47.8725 82.388 47.8725 82.388 47.8725 82.2698C48.6999 82.0334 49.6455 81.6788 50.4729 81.3242C50.8275 82.5062 51.4186 83.5701 52.246 84.3975C52.7188 84.8703 53.6644 84.2793 53.1916 83.6883C52.3642 82.8608 51.8914 81.9152 51.5368 80.8514C52.3642 80.4968 53.1916 80.024 54.019 79.5511C54.3736 80.615 54.9647 81.6788 55.9103 82.388C56.5013 82.8608 57.2105 81.9152 56.6195 81.4424C55.7921 80.7332 55.3193 79.9057 55.0829 78.8419C55.9103 78.3691 56.6195 77.7781 57.3287 77.1871C57.5651 77.6599 57.9197 78.0145 58.2743 78.4873C58.7472 79.0783 59.6928 78.3691 59.22 77.7781C58.8654 77.4235 58.5108 76.9507 58.2743 76.4778C60.6384 74.3502 62.4115 71.8679 63.5935 68.9128C63.8299 68.2036 62.7661 67.7308 62.5297 68.44C61.4658 71.2769 59.6928 73.5228 57.5651 75.5322C57.2105 75.414 56.6195 75.7686 56.7377 76.2414C55.0829 77.6599 53.1916 78.7237 51.1822 79.6693C50.8275 79.4329 50.3547 79.6693 50.3547 80.0239C48.2271 80.9696 45.272 82.0334 42.3169 82.7426C42.1987 82.7426 42.1987 82.7426 42.0805 82.7426C39.0072 83.4518 35.9339 83.5701 33.6881 82.6244C33.5699 82.5062 33.4517 82.5062 33.3335 82.6244C33.3335 82.5062 33.4517 82.2698 33.5699 81.9152C33.9245 81.206 33.2152 80.615 32.6242 80.7332C32.6242 80.7332 32.506 80.7332 32.3878 80.615C39.9528 74.7048 45.5084 66.7852 48.4635 57.6835C48.8181 56.6197 47.1632 55.9105 46.8086 56.9743C43.8535 65.9578 38.4162 73.641 30.8512 79.4329C29.9056 78.4873 28.8417 77.4235 28.7235 77.1871C28.6053 76.8325 28.8417 76.2414 28.6053 76.005C27.8961 75.5322 27.5415 75.2958 27.0687 74.9412ZM45.1538 82.979C45.1538 83.0972 45.1538 83.0972 45.1538 83.0972V82.979Z" fill="#FBDBC6"/>
</g>
<defs>
<clipPath id="clip0_85_421">
<rect width="100" height="114.775" fill="white"/>
</clipPath>
</defs>
</svg>
