<svg width="100" height="113" viewBox="0 0 100 113" fill="none" xmlns="http://www.w3.org/2000/svg">
<g clip-path="url(#clip0_85_236)">
<path d="M7.53134 112.273C14.5048 105.997 22.4546 98.8837 30.1255 91.4918C40.1673 91.2129 50.4881 91.6313 57.7405 99.3021C58.7168 100.418 59.6931 101.813 60.53 103.486C62.2036 106.276 63.8772 109.205 66.6666 110.181C68.4797 110.739 70.1534 110.46 71.2691 109.344C72.3849 108.228 72.9428 106.415 72.6638 104.602C72.8033 104.741 73.0822 104.881 73.2217 104.881C74.8954 105.857 76.569 106.973 78.3821 107.67C80.1952 108.507 81.7294 108.507 82.9846 107.81C84.1004 107.112 84.6583 106.276 84.7977 105.16C85.0767 103.207 83.9609 101.255 82.9846 99.86C85.6346 100.557 88.2845 100.976 90.9344 100.836C93.8633 100.697 97.35 100.278 99.0237 98.0469C100 96.7917 100.139 95.2575 99.4421 93.7233C98.1869 91.0734 94.5606 88.8419 91.7712 88.4235C94.4212 85.913 96.9316 83.1236 93.7238 79.079C91.7712 76.5685 88.5634 76.0106 85.9135 75.7317C84.7977 75.5922 83.682 75.5922 82.5662 75.5922C78.1032 75.4528 73.9191 75.1738 70.5718 71.6871C82.7057 70.8503 90.2371 67.9214 93.5843 62.761C95.258 60.39 95.6764 58.019 94.8396 55.7875C93.4449 51.6034 88.145 49.2324 85.2161 48.2561C85.4951 48.1166 85.774 47.9772 86.053 47.8377C89.4002 46.0246 92.887 44.072 92.887 39.4695C92.887 35.4249 89.5397 33.3328 86.3319 32.496C87.8661 31.2408 89.2608 29.4277 88.9818 27.0567C88.7029 25.383 87.5871 24.1278 85.774 23.4305C87.7266 20.7805 89.2608 16.3175 88.5634 13.1097C88.145 11.2966 87.0292 9.90186 85.3556 9.20451C84.6583 8.92557 84.1004 8.7861 83.5425 8.64663C82.9846 8.50716 82.2873 8.36769 81.5899 7.94928C80.1952 7.25193 79.7768 6.27564 79.2189 5.15988C78.94 4.602 78.5216 3.90464 78.1032 3.34677C76.2901 0.975771 74.0585 -0.139982 71.4086 0.138964C71.1297 0.138964 70.8507 0.278422 70.7113 0.557368C70.2928 0.696833 69.8744 0.836314 69.5955 0.836314L68.4797 0.836314C67.7824 0.836314 67.364 1.39418 67.364 1.95207C67.364 2.37048 67.5034 2.64942 67.7824 2.78888C67.7824 2.92836 67.6429 3.20729 67.6429 3.34677C67.6429 3.48624 67.6429 3.48624 67.6429 3.62571C67.364 3.76519 67.2245 4.04412 67.2245 4.32306C67.2245 4.74147 67.364 5.02041 67.6429 5.29935C67.6429 5.43882 67.6429 5.71776 67.6429 5.85723L67.5034 5.85723C67.085 5.85723 66.8061 5.9967 66.6666 6.41511C66.5272 6.69406 66.5272 7.25193 66.8061 7.53086C66.9456 7.80981 67.2245 7.94928 67.5034 7.94928C67.364 8.64663 66.9456 8.7861 65.2719 8.92557C63.8772 9.06504 62.622 9.20451 61.9246 10.8781C61.6457 11.436 61.9246 12.5518 62.2036 14.6438C62.4825 16.4569 62.9009 19.1069 62.4825 19.5253L62.3431 19.5253C62.2036 19.5253 62.0641 19.5253 61.9246 19.5253C61.0878 19.5253 60.1115 19.8042 59.4142 20.641C58.9958 21.1989 58.9958 21.6173 58.9958 22.0358C58.9958 22.3147 58.9958 22.5936 58.8563 22.8726L58.8563 23.012L58.8563 23.5699C57.7405 23.8489 57.3221 23.8489 57.0432 23.7094C56.9037 23.5699 56.7643 23.291 56.7643 22.8726L56.7643 22.7331C56.6248 22.4542 56.6248 22.0357 56.6248 21.6173C56.6248 21.1989 56.6248 20.7805 56.4853 20.5016C56.0669 18.9674 55.3696 17.8517 54.2538 17.1543C52.1617 15.8991 49.5118 16.178 47.8382 17.9911C46.8619 18.9674 46.304 20.2226 46.0251 21.7568C45.6067 22.1752 45.6067 22.7331 45.6067 23.4305C45.6067 24.8252 45.6067 26.4988 44.7698 27.0567C44.3514 27.3356 43.5146 27.3356 42.5383 26.9172C42.2594 26.7777 41.9804 26.7777 41.7015 26.9172C41.562 27.0567 41.2831 27.1961 41.2831 27.4751C40.0279 27.4751 38.9121 27.8935 38.0753 28.7303C36.82 29.9855 36.4016 32.0776 36.6806 34.5881C36.82 35.9828 37.5174 37.238 38.0753 38.4932C38.2147 38.6327 38.2147 38.9116 38.3542 39.0511C38.0753 39.33 38.0753 39.609 38.0753 39.8879C38.0753 40.4458 38.4937 40.7247 38.9121 40.8642C39.0516 40.8642 39.0516 40.8642 39.191 40.8642C39.191 41.0037 39.3305 41.1431 39.3305 41.2826C39.6094 42.6773 39.3305 43.6536 38.7726 44.4904C38.2147 45.1878 37.2385 45.4667 35.9832 45.4667C35.8438 45.4667 35.8438 45.4667 35.7043 45.6062C35.4253 45.8851 35.1464 46.3035 34.8675 46.5825C32.9149 45.4667 32.2175 44.2115 32.7754 42.3984C32.7754 42.2589 32.7754 42.2589 32.7754 42.1194C32.6359 41.98 32.7754 41.701 32.7754 41.4221C32.7754 41.1431 32.7754 40.7247 32.6359 40.3063C32.0781 39.1906 31.1018 38.3537 30.265 37.6564C29.2887 36.8196 28.3124 36.1222 27.7545 34.7275C27.3361 33.6118 27.0571 32.3565 26.7782 31.2408C25.9414 27.8935 25.1046 24.5462 21.4783 23.1515C21.3389 22.8726 21.0599 22.5936 20.6415 22.5936C17.7126 22.1752 15.0627 23.8489 14.0864 26.4988C13.3891 28.4514 13.947 30.6829 14.5048 32.9144C15.3417 36.1222 16.039 38.7722 12.8312 40.4458C12.8312 40.4458 12.6917 40.4458 12.6917 40.5853L12.5523 40.5853C12.1339 40.7247 11.7154 40.7247 11.297 40.8642C9.06551 41.2826 6.13664 41.8405 5.29982 44.072C5.02088 44.9088 5.29981 45.6062 5.43929 46.1641C5.57876 46.5825 5.71823 46.8614 5.71823 47.2798L5.71823 47.4193C5.99717 47.8377 6.13664 48.2561 5.16035 48.9535C5.02088 48.9535 5.02088 49.0929 5.02088 49.2324C4.88141 49.7903 4.74194 50.2087 4.463 50.3482C4.18406 50.4876 3.90512 50.4876 3.48671 50.4876C3.34725 50.4876 3.34724 50.4876 3.20777 50.4876C3.0683 50.4876 2.92884 50.4876 2.78936 50.6271C2.6499 50.6271 2.37096 50.6271 2.09201 50.7666C0.836787 51.3245 0.139437 52.1613 -3.57235e-05 53.1376C-3.57113e-05 53.277 -3.57113e-05 53.277 -3.56991e-05 53.4165C-0.278974 56.7638 4.88142 61.6452 7.67082 64.2952C8.22869 64.8531 8.78658 65.2715 9.06552 65.5504L9.20498 65.6899C7.81028 67.7819 7.25241 69.595 7.81028 71.1292C8.78657 74.1975 12.9707 75.7317 17.5732 77.4054L17.9916 77.5448C17.9916 77.8238 18.1311 77.9632 18.2705 78.1027C18.5495 78.3816 18.8284 78.3816 19.1074 78.3816C19.3863 78.3816 19.6652 78.3816 19.9442 78.3816L20.5021 78.3816C25.244 80.1948 29.7071 82.7052 29.1492 87.4472C21.3389 95.118 13.1101 102.51 5.43929 109.483C4.463 110.32 4.74194 111.436 5.29983 112.133C5.71823 112.691 6.69452 112.97 7.53134 112.273ZM65.9693 99.4416C66.1088 99.4416 66.1088 99.4416 65.9693 99.4416C64.714 99.86 63.1799 99.9995 61.7852 99.9995L65.9693 99.4416ZM11.9944 72.3844C12.1339 72.5239 12.1339 72.3844 11.9944 72.3844V72.3844ZM15.0627 74.0581L16.1785 74.0581C16.039 74.0581 15.8995 74.1975 15.7601 74.1975C15.6206 74.1975 15.3417 74.1975 15.0627 74.0581ZM36.5411 84.9367L36.5411 85.0762C36.5411 85.3551 36.5411 85.6341 36.8201 85.913C37.099 86.192 37.3779 86.3314 37.7963 86.3314C42.2594 85.913 46.8619 85.913 51.6039 86.0525C54.3933 87.5867 57.0432 89.5392 59.4142 91.7708C59.6931 92.0497 59.9721 92.1892 60.3905 92.0497C60.8089 91.9102 61.0878 91.6313 61.0878 91.2129C61.2273 90.7945 61.0878 90.3761 60.8089 90.0971C59.4142 88.7024 57.88 87.5867 56.3458 86.3314C59.9721 86.7498 63.5983 87.4472 67.2245 88.284C69.0376 91.0734 71.1297 93.5839 73.5007 95.6759C73.7796 95.9549 74.198 95.9549 74.477 95.9549C74.8954 95.8154 75.1743 95.5364 75.1743 95.118C75.3138 94.6996 75.1743 94.2812 74.8954 94.1417C73.2217 92.6076 71.6875 90.9339 70.4323 89.2603C71.2691 89.5392 72.2454 89.8182 72.9428 90.0971C73.0823 90.2366 73.3612 90.3761 73.6401 90.3761C76.4295 91.2129 78.6611 92.0497 80.8926 93.026C81.311 93.1655 81.5899 93.1655 81.8689 92.8865C82.1478 92.6076 82.4267 92.1892 82.2873 91.7708C82.2873 91.3523 82.0083 91.0734 81.5899 90.9339C80.6136 90.5155 79.4979 90.0971 78.2426 89.6787C80.3347 89.3998 82.2873 89.2603 83.9609 89.1208C84.3793 89.1208 84.6583 88.9814 84.7977 88.5629C84.9372 88.284 84.9372 87.7261 84.6583 87.4472C84.3793 87.1682 84.1004 86.8893 83.682 86.8893C80.3347 87.0288 76.9874 87.4472 73.6401 88.0051C71.9665 87.4472 70.1534 86.8893 68.3403 86.4709L68.2008 86.3314C68.0613 86.0525 67.7824 85.913 67.5034 85.7735C67.2245 85.7735 66.9456 85.913 66.6666 86.0525C64.993 85.6341 63.5983 85.3551 62.0641 85.0762C66.8061 84.5183 71.4086 83.542 75.8716 82.2868C76.2901 82.1473 76.4295 82.0079 76.569 81.5894C76.7085 81.171 76.569 80.7526 76.2901 80.4737C76.0111 80.1947 75.5927 80.0553 75.1743 80.1947C67.6429 82.2868 59.8326 83.4026 52.0223 83.542C51.8828 83.542 51.8828 83.542 51.7433 83.542L51.4644 83.4026C51.1855 83.2631 50.9065 83.1236 50.6276 82.9842C50.3486 82.8447 49.9302 82.8447 49.6513 82.9842C49.3724 83.1236 49.2329 83.4026 49.2329 83.542C45.1882 83.4026 41.2831 83.542 37.3779 83.821C37.2385 83.821 37.2385 83.821 37.099 83.9604C37.7963 83.2631 38.3542 82.7052 39.0516 82.0079L46.583 82.0079C47.2803 82.0079 47.6987 81.45 47.6987 80.7526C47.6987 80.1947 47.2803 79.7763 46.7224 79.7763L41.0041 79.7763C41.4226 79.3579 41.841 78.9395 42.1199 78.5211C43.5146 78.6606 44.6304 78.8 45.6067 78.9395C46.304 79.079 46.7224 78.6606 46.7224 78.1027C46.7224 77.8238 46.7224 77.4054 46.583 77.2659L47.0014 77.2659C47.6987 77.2659 48.1171 76.708 48.1171 76.1501C48.1171 75.5922 47.6987 75.1738 47.1408 75.0344L45.1882 74.8949C48.675 70.9897 51.8828 67.224 54.6722 63.3189C56.4853 62.4821 58.2984 61.7847 59.9721 61.2268C60.1115 61.3663 60.251 61.3663 60.3905 61.3663C64.5746 61.9242 68.7587 62.761 72.8033 63.7373C73.2217 63.8768 73.5007 63.7373 73.7796 63.4583C74.0585 63.1794 74.198 62.761 74.0585 62.3426C73.9191 61.9242 73.6401 61.6452 73.2217 61.5058C70.7113 60.9479 68.2008 60.39 65.2719 59.9716C69.8744 59.1348 74.7559 58.9953 79.4979 59.5532L79.6373 59.5532C79.7768 59.6927 80.0557 59.6927 80.1952 59.6927L87.4477 59.8321C87.8661 59.8321 88.145 59.5532 88.2845 59.2742C88.424 58.8558 88.4239 58.4374 88.145 58.1585C87.8661 57.8795 87.5871 57.6006 87.1687 57.7401L80.1952 58.1585C80.0557 58.1585 79.9163 58.019 79.7768 58.019C78.94 57.8795 78.1032 57.8795 77.2663 57.7401C78.3821 57.6006 79.3584 57.6006 80.4742 57.4611C80.8926 57.4611 81.1715 57.3217 81.311 56.9033C81.4504 56.6243 81.4504 56.0664 81.1715 55.7875C80.8926 55.5086 80.6136 55.2296 80.1952 55.2296C77.4058 55.3691 74.4769 55.648 71.6875 56.2059C71.2691 56.3454 70.9902 56.6243 70.8507 56.9033C70.8507 57.0427 70.8507 57.3217 70.8507 57.4611C66.2482 57.7401 61.7852 58.5769 57.4616 60.2505C60.5299 56.0664 63.3193 51.7429 65.8298 47.6982C69.8744 43.5141 75.8716 41.1431 83.8214 40.3063C84.2398 40.3063 84.5188 40.0274 84.6583 39.7484C84.7977 39.33 84.7977 38.9116 84.5188 38.6327C84.2398 38.3537 83.9609 38.2143 83.5425 38.2143C80.1952 38.4932 77.1269 39.1906 74.4769 40.0274C76.4295 38.2143 78.1032 36.6801 79.9163 35.4249C80.1952 35.1459 80.3347 34.867 80.3347 34.4486C80.3347 34.0302 80.0557 33.7512 79.6373 33.4723C79.3584 33.3328 78.94 33.3328 78.661 33.6118C75.4532 36.1222 72.3849 38.9116 69.5955 41.8405C69.456 41.98 69.3166 42.2589 69.3166 42.3984C69.1771 42.5378 68.8981 42.5378 68.7587 42.6773C70.5718 39.4695 72.106 36.1222 73.5007 32.9144L81.5899 31.1013C82.0083 30.9618 82.2873 30.6829 82.4267 30.4039C82.5662 29.9855 82.4267 29.5671 82.1478 29.2882C81.8689 29.0092 81.5899 28.8698 81.1715 29.0092L80.7531 29.1487C80.7531 29.0092 80.7531 28.8698 80.7531 28.7303C80.6136 28.4514 80.4742 28.1724 80.3347 28.033C80.4742 28.033 80.7531 28.033 80.8926 28.033C81.311 28.033 81.5899 27.754 81.7294 27.4751C81.8689 27.0567 81.8689 26.6383 81.5899 26.3593C81.311 26.0804 81.032 25.9409 80.6136 25.9409C80.4742 25.9409 80.4742 25.9409 80.3347 25.9409C80.7531 25.662 80.8926 25.2436 80.8926 24.8252C80.8926 24.5462 80.7531 24.2673 80.4742 24.1278C80.6136 24.1278 80.7531 23.9883 80.8926 23.8489C81.1715 23.5699 81.1715 23.012 81.032 22.7331C80.8926 22.4542 80.6136 22.1752 80.1952 22.1752C79.4979 22.0357 78.8005 22.1752 77.9637 22.4542C77.6848 22.5936 77.5453 22.7331 77.4058 23.012C78.3821 19.9437 79.3584 16.7359 80.1952 13.6676C80.3347 13.1097 80.1952 12.5518 79.7768 12.1334C79.3584 11.715 78.5216 11.5755 77.9637 11.715C77.2663 11.8544 76.8479 12.4123 76.569 13.1097C75.7322 16.4569 74.7559 19.9437 73.5007 23.291C73.5007 22.7331 73.6401 22.3147 73.6401 21.7568C73.7796 20.5016 74.198 19.2463 74.4769 17.9911C74.8954 16.4569 75.3138 14.7833 75.4532 12.9702C75.4532 12.2729 74.8954 11.8544 74.3375 11.8544C73.7796 11.8544 73.3612 12.1334 73.2217 12.8307C73.0822 14.5044 72.6638 16.0385 72.2454 17.7122C71.9665 18.9674 71.5481 20.2226 71.4086 21.6173C71.2691 22.8726 71.1297 24.2673 71.1297 25.5225C70.9902 27.1961 70.9902 28.8698 70.5718 30.5434L69.735 15.0623C69.735 14.6438 69.5955 14.3649 69.1771 14.2254C68.8981 14.086 68.3403 14.086 68.0613 14.3649C67.7824 14.6438 67.5034 14.9228 67.5034 15.3412L68.4797 35.1459C65.1325 42.2589 61.0878 49.0929 56.2064 56.0664C56.2064 53.8349 56.2064 51.4639 56.0669 49.2324C57.1827 49.0929 58.159 49.0929 58.9958 49.0929C59.4142 49.0929 59.8326 48.9535 59.9721 48.5351C60.251 48.1166 60.251 47.6982 59.9721 47.4193C59.8326 47.1404 59.5537 47.0009 59.1352 47.0009C58.0195 47.0009 56.9037 47.0009 55.788 47.1404C55.788 47.0009 55.788 46.8614 55.788 46.7219L59.5537 46.443C59.9721 46.443 60.251 46.1641 60.3905 45.8851C60.5299 45.4667 60.5299 45.0483 60.251 44.7694C60.251 44.6299 60.1115 44.6299 60.1115 44.4904C60.251 44.4904 60.251 44.4904 60.3905 44.4904C60.8089 44.4904 61.0878 44.351 61.3668 43.9325C61.6457 43.5141 61.6457 43.0957 61.3668 42.8168C61.2273 42.5378 60.9484 42.3984 60.5299 42.2589C58.7168 42.2589 57.0432 42.3984 55.3696 42.6773C55.2301 42.2589 55.2301 41.8405 55.0906 41.5616C55.3696 41.8405 55.6485 42.1194 56.0669 41.98L58.4379 41.5615C58.8563 41.5615 59.1352 41.2826 59.2747 41.0037C59.4142 40.7247 59.4142 40.1669 59.1352 39.8879C58.8563 39.609 58.5774 39.33 58.159 39.4695L55.9274 39.609C55.509 39.609 55.2301 39.8879 55.0906 40.1669C55.0906 40.3063 55.0906 40.3063 54.9511 40.4458C54.6722 38.9116 54.2538 37.3775 53.8354 35.9828C53.6959 35.4249 53.138 35.1459 52.5802 35.2854C52.0223 35.4249 51.6039 35.9828 51.7433 36.6801C53.6959 43.9325 54.5327 51.4639 53.9749 58.9953C51.8828 61.9242 49.5118 64.853 47.1408 67.7819C46.8619 67.6424 46.5829 67.503 46.304 67.6424C45.0488 67.9214 44.0725 68.0609 43.0962 68.3398C42.8173 68.4793 42.3988 68.6187 42.1199 68.7582C42.2594 68.3398 42.2594 67.9214 42.3988 67.6424L45.7461 66.8056C46.1645 66.6662 46.4435 66.3872 46.583 65.9688C46.7224 65.5504 46.5829 65.132 46.304 64.853C46.0251 64.5741 45.7461 64.5741 45.3277 64.5741L42.6778 65.2715C42.6778 64.9925 42.6778 64.7136 42.8173 64.5741C43.6541 64.4346 44.4909 64.4346 45.3277 64.4346C46.0251 64.4346 46.4435 63.8768 46.4435 63.4583C46.4435 62.9005 46.1645 62.3426 45.4672 62.3426C44.6304 62.3426 43.7935 62.3426 42.9567 62.3426C42.9567 62.2031 42.9567 61.9242 42.9567 61.7847C44.3514 61.9242 45.7461 61.9242 47.1408 61.7847C47.5592 61.7847 47.8382 61.5058 47.9776 61.2268C48.1171 60.8084 48.1171 60.39 47.8382 60.1111C47.5592 59.8321 47.2803 59.5532 46.8619 59.6927C45.6067 59.8321 44.3514 59.8321 43.0962 59.6927L42.9567 59.6927C42.9567 59.1348 42.8173 58.5769 42.8173 58.1585C42.6778 57.4611 42.1199 57.1822 41.562 57.3217C41.0041 57.4611 40.5857 57.8795 40.5857 58.5769C40.8647 60.39 40.8647 62.3426 40.5857 64.4346C39.3305 61.6452 38.0753 58.9953 37.099 56.4848C36.9595 56.0664 36.6806 55.927 36.2622 55.7875C35.8438 55.7875 35.4253 55.927 35.1464 56.2059C35.0069 56.3454 35.0069 56.6243 34.8675 56.7638C34.8675 56.9033 34.8675 57.0427 35.0069 57.3217C36.4016 60.9479 37.9358 64.4346 39.7489 67.9214C39.7489 68.0609 39.8884 68.0609 39.8884 68.0609C39.6094 69.595 39.191 70.9897 38.9121 72.245C38.7726 72.6634 38.9121 72.9423 39.191 73.2213C39.47 73.5002 39.8884 73.6397 40.3068 73.5002C40.7252 73.3607 41.0041 73.0818 41.1436 72.6634C41.2831 72.245 41.4226 71.8265 41.4226 71.2687C41.562 71.4081 41.7015 71.4081 41.841 71.5476C42.3988 71.6871 43.0962 71.4081 43.2357 70.7108C43.3751 70.5713 43.7935 70.4318 44.4909 70.2924C44.6304 70.2924 44.7698 70.2924 44.7698 70.2924C44.9093 70.2924 45.0488 70.2924 45.0488 70.1529C40.8647 75.0344 36.1227 80.0553 30.8228 85.4946C30.4044 82.7052 28.5913 80.3342 25.8019 78.5211C27.4756 78.5211 29.0097 78.5211 30.5439 78.5211C30.9623 78.5211 31.3807 78.3816 31.5202 77.9632C31.7991 77.5448 31.7991 77.1264 31.5202 76.8475C31.3807 76.5685 31.1018 76.4291 30.6834 76.4291C29.4281 76.4291 28.0334 76.4291 26.6387 76.4291C26.7782 76.1501 26.7782 75.7317 26.6387 75.4528C26.4993 75.1738 26.2203 74.8949 25.8019 74.8949C24.5467 74.7554 23.4309 74.8949 22.1757 74.8949C20.0836 75.0344 18.2705 75.0344 16.318 74.4765L18.9679 74.616C19.6652 74.616 20.0836 74.0581 20.0836 73.5002C20.0836 72.9423 19.8047 72.3844 19.1074 72.3844C19.2468 72.245 19.3863 72.245 19.5258 72.1055C19.8047 71.6871 19.8047 71.2687 19.5258 70.9897C19.3863 70.8503 19.2468 70.7108 19.1074 70.5713C19.2468 70.4318 19.3863 70.2924 19.3863 70.0134C19.3863 69.874 19.3863 69.7345 19.3863 69.595L19.8047 69.595C20.2231 69.595 20.5021 69.4556 20.781 69.1766C21.0599 68.8977 21.0599 68.3398 20.9205 68.0609C20.781 67.7819 20.5021 67.503 20.0836 67.503L16.4574 67.0846C17.1548 67.0846 17.5732 66.5267 17.5732 65.9688C17.5732 65.4109 17.1548 64.9925 16.5969 64.9925L12.6917 64.9925C11.9944 64.9925 11.576 65.5504 11.576 66.1083C11.576 66.1083 11.576 66.1083 11.576 66.2478C11.576 66.8056 11.9944 67.224 12.5523 67.224L12.9707 67.224C12.8312 67.3635 12.6917 67.6425 12.6917 67.9214C12.6917 68.2003 12.6917 68.3398 12.8312 68.6187L12.2733 68.6187C11.576 68.6187 11.1576 69.1766 11.1576 69.7345C11.1576 70.1529 11.4365 70.5713 11.7154 70.7108L11.576 70.7108C11.1576 70.7108 10.8786 70.9897 10.7392 71.2687C10.0418 69.874 10.0418 68.2003 11.1576 66.8056C11.4365 66.5267 11.4365 66.1083 11.297 65.8293C11.1576 65.5504 11.0181 65.4109 10.8786 65.2715C10.8786 64.9925 10.8786 64.8531 10.5997 64.5741C11.297 64.7136 11.8549 64.7136 12.4128 64.7136C13.1101 64.7136 13.5286 64.1557 13.5286 63.5978C13.5286 63.0399 13.1101 62.6215 12.5523 62.4821C11.297 62.4821 9.90233 62.2031 8.64711 61.9242C8.36816 61.9242 8.22869 61.9242 7.94976 62.0637C7.81028 61.9242 7.53134 61.7847 7.39187 61.5058C8.08922 61.5058 8.92604 61.5058 9.62339 61.6452C10.3207 61.7847 10.7392 61.2268 10.7392 60.6689C10.8786 60.1111 10.4602 59.5532 9.76287 59.4137C8.50764 59.2743 7.39187 59.2743 6.13664 59.4137C5.8577 59.4137 5.57876 59.5532 5.43929 59.8321C5.02088 59.4137 4.60247 58.9953 4.32354 58.5769C4.60247 58.4374 4.74195 58.298 5.02088 58.019C5.16036 57.7401 5.29982 57.4611 5.16035 57.0427L6.55505 57.1822C7.2524 57.3217 7.67082 56.7638 7.67082 56.2059C7.67082 55.648 7.39187 55.0901 6.69452 54.9507L2.37095 54.3928C2.09201 53.4165 2.23148 52.9981 2.37095 52.8586C2.51042 52.5797 3.0683 52.5797 3.76565 52.5797C4.60247 52.5797 5.57876 52.5797 6.41558 52.0218C7.39187 51.4639 7.81028 50.7666 7.94975 49.5113C7.94975 49.3719 7.94975 49.3719 7.94975 49.2324C7.94975 48.5351 7.81028 48.2561 7.67082 47.9772C7.53134 47.8377 7.53134 47.8377 7.53134 47.1404C7.53134 43.7931 8.92604 43.5141 11.7154 42.9563L12.5523 42.8168C12.6917 42.8168 12.8312 42.6773 12.8312 42.6773C12.9707 42.6773 13.1101 42.6773 13.2496 42.5378C14.9232 41.701 16.1785 40.4458 16.7364 38.9116C16.8758 51.7429 21.3389 63.5978 25.523 72.8028C25.8019 73.5002 26.4993 73.5002 26.9177 73.3607C27.3361 73.0818 27.7545 72.6634 27.4756 71.966C27.3361 71.6871 27.1966 71.2687 27.0571 70.9897L31.1018 71.2687C31.7991 71.2687 32.2175 70.7108 32.2175 70.2924C32.2175 69.7345 31.9386 69.1766 31.2412 69.1766L26.6387 68.8977C26.4993 68.8977 26.3598 68.8977 26.2203 69.0372C25.9414 68.3398 25.6624 67.6424 25.3835 67.0846C27.1966 67.3635 29.0097 67.503 30.5439 67.6425C31.2412 67.6425 31.6597 67.0846 31.6597 66.6662C31.6597 66.1083 31.3807 65.5504 30.6834 65.5504C28.5913 65.4109 26.4993 65.132 24.4072 64.853L24.2677 64.5741C26.2203 64.7136 28.3124 64.853 30.265 64.853C30.6834 64.853 30.9623 64.7136 31.1018 64.4346C31.2412 64.1557 31.2412 63.5978 31.1018 63.3189C30.8228 62.9005 30.5439 62.761 30.1255 62.761C28.0334 62.761 25.8019 62.6215 23.5704 62.4821C23.4309 62.2031 23.2915 61.7847 23.152 61.5058L28.8703 61.3663C29.2887 61.3663 29.5676 61.2268 29.8465 60.9479C30.1255 60.669 30.1255 60.1111 29.986 59.8321C29.8465 59.5532 29.5676 59.2742 29.1492 59.2742L23.4309 58.8558C23.2915 58.8558 23.152 58.8558 22.873 58.9953C22.7336 58.7164 22.7336 58.4374 22.5941 58.1585C22.7336 58.1585 22.7336 58.298 22.873 58.298C24.6862 58.5769 26.6387 58.7164 28.4518 58.7164C29.1492 58.7164 29.5676 58.1585 29.5676 57.6006C29.5676 57.1822 29.2887 56.7638 28.8703 56.6243C29.1492 56.6243 29.5676 56.6243 29.7071 56.3454C29.986 56.0664 29.986 55.648 29.8465 55.2296C29.7071 54.8112 29.4281 54.6717 29.0097 54.5323C28.8702 54.5323 28.5913 54.5323 28.4518 54.3928C28.7308 54.2533 28.8703 53.9744 28.8703 53.6954C28.8703 53.4165 28.8703 53.1376 28.7308 52.9981C28.5913 52.7192 28.3124 52.5797 28.0334 52.5797L22.873 51.8823C22.4546 51.8823 22.1757 52.0218 21.8968 52.3007C21.7573 52.4402 21.6178 52.7192 21.6178 52.8586C21.6178 52.9981 21.6178 53.277 21.7573 53.4165C21.8968 53.6954 22.1757 53.9744 22.5941 53.9744L23.4309 54.1139C23.152 54.2533 23.0125 54.6717 22.873 54.9507C22.873 55.5086 23.152 56.0664 23.8493 56.0664C25.244 56.2059 26.7782 56.3454 28.1729 56.6243C26.4993 56.4848 24.6862 56.3454 23.0125 56.2059C22.5941 56.2059 22.1757 56.3454 22.0362 56.7638C21.1994 53.8349 20.5021 50.906 20.0836 48.2561C20.2231 48.3956 20.5021 48.5351 20.6415 48.5351C22.7336 48.3956 24.6862 48.5351 26.7782 48.5351C27.1966 48.5351 27.4755 48.3956 27.615 48.1166C27.7545 47.8377 27.7545 47.2798 27.615 47.0009C27.3361 46.5825 27.0571 46.443 26.6387 46.443C24.8256 46.443 23.0125 46.3035 21.1994 46.1641C20.6415 46.0246 20.3626 46.3035 20.0836 46.7219C19.9442 45.7457 19.8047 44.6299 19.6652 43.6536C20.3626 43.6536 20.9205 43.6536 21.6178 43.7931C22.0362 43.7931 22.3152 43.7931 22.5941 43.5141C22.873 43.2352 22.873 42.8168 22.7336 42.3984C22.5941 41.98 22.3152 41.8405 21.8968 41.701C21.1994 41.5616 20.3626 41.5616 19.5258 41.5616C19.3863 38.4932 19.3863 35.5643 19.6652 32.6355C19.6652 31.9381 19.2468 31.5197 18.6889 31.5197C18.1311 31.5197 17.5732 31.7987 17.5732 32.496C17.5732 33.0539 17.4337 33.6118 17.4337 34.0302C17.4337 34.3091 17.4337 34.5881 17.4337 34.867C17.2942 34.5881 17.2942 34.1696 17.1548 33.8907L17.0153 33.3328C16.1785 30.9618 16.039 27.754 17.1548 26.0804C17.7126 25.383 18.5495 24.9646 19.6652 24.8252C19.8047 24.9646 19.9442 24.9646 20.0836 25.1041C24.2677 26.0804 24.8256 29.4277 25.244 32.9144C25.523 34.5881 25.6624 36.4012 26.3598 37.7959C26.9177 38.9116 27.615 39.1906 28.3124 39.609C28.7308 39.8879 29.1492 40.0274 29.5676 40.4458C30.1255 41.1431 30.265 42.5378 30.265 44.072C30.4044 46.8614 30.6834 50.2087 33.8912 50.0692C35.1464 50.0692 35.8438 49.3719 36.5411 48.6745C37.099 48.1166 37.7963 47.4193 38.7726 47.2798C39.191 47.1404 39.47 47.2798 39.8884 47.2798C40.4463 47.4193 41.1436 47.4193 41.9804 46.8614C43.933 45.4667 42.9567 43.0957 42.6778 42.2589C42.5383 41.8405 42.2594 41.4221 41.9804 41.0037C44.0725 41.0037 46.304 40.7247 48.3961 40.0274C49.0934 39.7484 49.2329 39.1906 48.9539 38.7722C48.8145 38.2143 48.2566 37.7959 47.5592 38.0748C45.3277 38.9116 42.9567 39.0511 40.4463 38.7722C40.3068 38.4932 40.1673 38.0748 39.8884 37.5169L45.7461 37.6564C46.1645 37.6564 46.5829 37.5169 46.7224 37.0985C47.0014 36.6801 47.0014 36.2617 46.7224 35.9828C46.5829 35.7038 46.304 35.5643 45.8856 35.5643L42.5383 35.5643C43.6541 35.4249 44.6304 35.2854 45.7461 35.1459C46.4435 35.0065 46.7224 34.4486 46.5829 33.8907C46.4435 33.3328 46.0251 32.9144 45.3277 33.0539C43.2357 33.4723 41.0041 33.7512 38.7726 33.8907C38.6332 32.496 38.6332 30.8224 39.7489 30.125C39.8884 30.2645 40.1673 30.2645 40.4463 30.2645L43.2357 29.9855C43.5146 29.9855 43.6541 29.8461 43.7935 29.7066C46.1645 30.125 47.2803 29.0093 47.8382 28.033C48.2566 27.0567 48.1171 25.8014 47.9776 24.6857C47.8382 23.9883 47.8382 23.291 47.8382 22.7331C48.1171 20.92 49.2329 18.8279 51.7433 18.6885C53.8354 18.549 54.1143 20.0832 54.2538 22.3147C54.2538 22.7331 54.3933 23.012 54.3933 23.291C54.5327 24.5462 55.0906 27.754 58.0195 27.754C60.251 27.754 60.5299 25.9409 60.8089 24.5462C61.0878 23.012 61.3668 22.0358 62.622 21.8963C64.1562 22.0358 65.2719 21.1989 65.6903 19.8042C65.9693 18.8279 65.6903 17.9911 65.5509 17.1543C65.4114 16.8754 65.2719 16.5964 65.1325 16.3175C65.1325 16.178 64.993 16.0385 64.993 15.8991L64.1562 14.3649L66.3877 11.436C66.8061 11.1571 67.2245 11.1571 67.6429 11.1571C68.0613 11.1571 68.4797 11.1571 68.8981 10.8781C70.7113 10.8781 72.9428 11.0176 75.3138 11.0176C76.0111 11.0176 76.4295 10.4597 76.4295 9.90187C76.4295 9.34398 76.0111 8.92557 75.4532 8.92557C73.6401 8.92557 71.827 8.92557 70.0139 8.7861C70.0139 8.64663 70.0139 8.50715 70.0139 8.36769L70.2928 8.36769C70.9902 8.36769 71.6875 8.36769 72.3849 8.36769C73.0822 8.36769 73.5007 7.80981 73.5007 7.25193C73.5007 6.69405 73.0822 6.27564 72.5244 6.27564C71.6875 6.27564 70.9902 6.27564 70.1534 6.27564L69.735 6.27564C69.735 6.13616 69.735 5.9967 69.735 5.9967L71.827 5.29935C72.3849 5.29935 72.8033 4.88095 72.8033 4.32306C72.8033 3.76518 72.3849 3.2073 71.6875 3.2073L70.5718 3.2073C70.9902 2.78889 71.5481 2.37047 72.5244 2.09153C75.5927 2.231 76.4295 4.18359 77.2663 6.41511C77.9637 8.22822 78.8005 10.0413 80.7531 10.8781C81.5899 11.1571 82.4267 11.1571 82.9846 11.1571C84.1004 11.1571 84.9372 11.1571 86.053 13.1097C87.7266 16.178 86.053 20.0832 83.682 22.5936C83.5425 22.7331 83.5425 22.7331 83.5425 22.8726C83.1241 23.1515 82.8451 23.5699 82.9846 23.9883C82.9846 24.5462 83.403 24.8252 83.9609 24.8252C85.2161 24.8252 87.1687 25.5225 87.1687 27.4751C87.0292 29.1487 85.4951 30.4039 84.2398 31.3802L84.1004 31.5197C83.8214 31.7986 83.682 32.0776 83.682 32.496C83.682 32.7749 83.9609 33.1933 84.2398 33.3328C84.3793 33.7512 84.6583 34.0302 85.0767 34.0302C87.5871 34.3091 89.6792 35.5643 90.6555 37.238C91.2133 38.7721 91.0739 40.3063 90.2371 41.98C89.1213 44.072 87.1687 45.0483 85.0767 46.0246C84.1004 46.443 83.2636 47.0009 82.2873 47.5588C82.0083 47.8377 81.8689 48.1166 81.8689 48.3956C81.8689 48.814 82.1478 49.0929 82.4267 49.2324C82.5662 49.3719 82.7057 49.6508 82.9846 49.6508C86.4714 50.6271 92.4686 52.3007 93.0265 57.0427C93.4449 60.2505 90.2371 63.4583 88.145 64.7136C87.1687 65.2715 86.053 65.8293 84.7977 66.2477C80.4742 67.9214 75.5927 68.8977 70.1534 69.3161C69.8744 69.0371 69.456 68.8977 69.0376 69.0371C68.7587 69.1766 68.4797 69.1766 68.2008 69.3161C68.0613 69.3161 67.7824 69.4556 67.6429 69.4556C67.5034 69.4556 67.364 69.4556 67.364 69.4556C67.2245 69.4556 67.085 69.4556 66.9456 69.4556C66.5272 69.4556 66.2482 69.595 66.1087 69.874C61.0878 71.5476 56.0669 72.5239 51.046 73.0818C50.6276 73.0818 50.3486 73.3607 50.2092 73.6397C50.0697 74.0581 50.0697 74.4765 50.3486 74.7554C50.6276 75.0344 50.9065 75.1738 51.3249 75.1738C56.9037 74.6159 62.4825 73.3607 68.0613 71.4081L68.2008 71.4081C68.2008 71.6871 68.3403 71.8265 68.4797 72.1055C70.7113 74.7554 73.5007 76.4291 77.2664 77.1264C78.94 77.4053 80.4742 77.4053 82.0083 77.4053C83.2636 77.4053 84.5188 77.4053 85.774 77.5448L85.9135 77.5448C87.1687 77.6843 90.6555 78.1027 91.3528 79.2185C92.1896 80.7526 90.7949 86.0525 89.5397 87.1682C89.2608 87.4472 89.1213 87.7261 89.2608 88.1445C89.2608 88.4235 89.5397 88.7024 89.6792 88.8419C89.6792 89.1208 89.8187 89.3998 89.9581 89.5392C90.2371 90.3761 90.516 90.5155 90.9344 90.5155C92.7475 90.3761 96.2343 92.0497 97.0711 94.0023L96.7922 97.3496C96.0948 97.768 95.3975 98.0469 94.5606 98.1864C93.8633 98.3258 93.1659 98.4653 92.1896 98.6048C88.5634 99.0232 84.9372 98.4653 81.1715 97.0706C80.7531 96.9312 80.4742 96.9311 80.1952 97.2101C79.9163 97.489 79.7768 97.9074 79.7768 98.3258C79.7768 98.6048 79.9163 98.7443 80.0558 98.8837C80.0558 99.0232 79.9163 99.1627 79.9163 99.3021C79.9163 99.4416 79.9163 99.7205 80.1952 99.9995L80.4742 100.139C81.4505 101.115 82.8452 102.649 82.7057 103.905C82.5662 104.741 82.2873 105.299 81.7294 105.578C81.032 105.997 80.0558 105.857 78.94 105.439C77.2664 104.741 75.7322 103.765 74.198 102.789C73.5007 102.37 72.8033 101.952 72.106 101.534C71.6876 101.255 71.1297 101.394 70.8507 101.813C70.5718 102.092 70.5718 102.649 70.7113 103.068C70.4323 103.347 70.2929 103.626 70.2929 104.044C68.6192 105.997 67.085 106.834 66.1088 106.694C65.4114 106.555 64.8535 105.857 64.2956 104.741C66.1087 104.463 67.9219 104.184 69.5955 103.765C70.2929 103.626 70.5718 102.928 70.4323 102.37C70.2928 101.813 69.8744 101.394 69.3166 101.534C67.364 101.952 65.4114 102.37 63.4588 102.649C63.3194 102.649 63.3194 102.649 63.1799 102.649L62.7615 102.092C64.5746 101.952 66.5272 101.673 68.2008 100.976C68.8982 100.697 69.0376 100.139 68.7587 99.7206C68.6192 99.1627 68.0613 98.7443 67.364 99.0232C66.9456 99.1627 66.5272 99.3021 66.2482 99.4416C66.8061 99.3021 66.9456 98.7443 66.9456 98.3259C66.9456 97.768 66.3877 97.2101 65.6903 97.3496L60.6694 97.9074C60.3905 97.9074 60.1115 98.0469 59.9721 98.3259C59.6931 98.0469 59.5537 97.768 59.2747 97.6285L62.3431 97.2101C62.7615 97.2101 63.0404 96.9312 63.1799 96.5127C63.3193 96.0943 63.3193 95.6759 63.0404 95.397C62.7615 95.118 62.4825 94.9786 62.0641 94.9786L58.2984 95.5365C58.0195 95.5365 57.7405 95.6759 57.6011 95.9549C56.0669 94.6996 54.3933 93.5839 52.5802 92.6076C46.0251 89.3998 38.7726 89.1208 32.2175 89.1208C33.7517 87.7261 35.1464 86.3314 36.5411 84.9367ZM77.1269 28.4514C76.569 28.4514 76.0111 28.5908 75.4532 28.5908C75.4532 28.5908 75.4532 28.4514 75.5927 28.4514C75.7322 28.4514 75.7322 28.4514 75.8716 28.4514C76.2901 28.4514 76.7085 28.4514 77.1269 28.4514ZM76.9874 24.4067C77.1269 24.1278 77.1269 23.7094 77.2663 23.4305C77.2663 23.7094 77.4058 24.1278 77.6848 24.2673L76.9874 24.4067Z" fill="#2D1310"/>
<path d="M21.7573 50.4881C21.7573 51.046 22.0362 51.6039 22.7336 51.6039L26.9177 51.8828C27.615 51.8828 28.0334 51.3249 28.0334 50.767C28.0334 50.2092 27.7545 49.7908 27.0572 49.6513L22.8731 49.3723C22.1757 49.3723 21.7573 49.9302 21.7573 50.4881Z" fill="#2D1310"/>
<path d="M43.2356 57.8799C43.2356 58.0194 43.0961 58.1588 43.0961 58.2983C43.0961 58.5773 43.0961 58.8562 43.2356 58.9957C43.5145 59.2746 43.7935 59.5535 44.2119 59.4141L46.4434 59.2746C46.8618 59.2746 47.1407 58.9957 47.2802 58.7167C47.4197 58.2983 47.4197 57.8799 47.1407 57.601C46.8618 57.322 46.5829 57.0431 46.1645 57.1826L43.9329 57.322C43.654 57.322 43.3751 57.601 43.2356 57.8799Z" fill="#2D1310"/>
<path d="M82.2872 20.9198C82.9846 20.6409 82.9846 19.9436 82.8451 19.5251C82.7056 18.9673 82.1477 18.6883 81.4504 18.9673L80.1952 19.5251C79.7767 19.6646 79.6373 19.9436 79.4978 20.362C79.4978 20.7804 79.6373 21.1988 79.9162 21.3383C80.1952 21.6172 80.6136 21.6172 80.8925 21.4777L82.2872 20.9198Z" fill="#2D1310"/>
<path d="M39.0515 31.3807C39.0515 31.5201 39.0515 31.5201 39.0515 31.6596C39.0515 31.9385 39.0515 32.2175 39.3305 32.4964C39.6094 32.7754 39.8883 32.9148 40.3068 32.7754C41.9804 32.4964 43.654 32.357 45.3277 32.2175C45.7461 32.2175 46.025 31.9385 46.1645 31.6596C46.304 31.3807 46.304 30.8228 46.025 30.5438C45.7461 30.2649 45.4671 29.986 45.0487 29.986C43.3751 30.1254 41.7015 30.2649 40.0278 30.5438C39.4699 30.8228 39.191 30.9623 39.0515 31.3807Z" fill="#2D1310"/>
</g>
<defs>
<clipPath id="clip0_85_236">
<rect width="100" height="112.692" fill="white" transform="translate(100 112.691) rotate(180)"/>
</clipPath>
</defs>
</svg>
