<svg width="100" height="63" viewBox="0 0 100 63" fill="none" xmlns="http://www.w3.org/2000/svg">
<g clip-path="url(#clip0_85_386)">
<path d="M99.6469 23.5436L99.588 23.4847C98.9994 20.6595 97.8811 17.9521 96.2331 15.5389C96.1742 15.4212 96.0565 15.3623 95.8799 15.3623C95.8211 15.2446 95.7622 15.1857 95.7034 15.1269C95.6445 15.068 95.5268 15.0092 95.3502 15.068C94.5262 15.3035 93.8199 15.2446 93.2313 14.8326C91.4067 13.5966 90.9947 9.59422 90.877 8.29934C90.877 8.12276 90.7593 8.00504 90.6416 7.94619C90.5238 7.88733 90.4061 7.88733 90.2296 7.94619C87.3455 5.17985 83.814 3.41411 79.8705 2.82553C79.6351 2.76667 79.4585 2.88439 79.3997 3.06096C77.6928 3.82612 75.5739 3.7084 73.5727 3.64954C72.9841 3.64954 72.4544 3.59068 71.8658 3.59068C69.3349 3.59068 66.7451 3.59068 64.2142 3.59068C59.0936 3.59068 53.9141 3.47297 48.8523 3.35525C38.5521 3.06096 28.1931 2.53124 17.9517 1.76608C12.4191 1.35407 6.70983 0.883208 1.00059 0.353485C1.00059 0.353485 1.00059 0.294627 0.94173 0.294627C0.94173 0.235768 0.882872 0.235768 0.882872 0.17691C0.706298 -0.0585224 0.412007 -0.0585224 0.176574 0.118052C0 0.235768 -0.0588582 0.530059 0.117716 0.82435C0.117716 0.883208 0.117716 0.942066 0.176574 1.00092C0.0588582 1.05978 0 1.23636 0 1.35407C0.588582 5.82729 0.765156 10.4182 0.588582 14.9503C0.529723 15.068 0.470865 15.1857 0.529723 15.3035C0.588582 15.4212 0.64744 15.48 0.824014 15.5389C0.94173 15.6566 1.1183 15.6566 1.23602 15.5977C3.17834 16.1863 3.00177 19.7178 2.94291 20.071C2.82519 21.4836 2.29547 22.543 1.4126 23.367C1.29488 23.4259 1.17716 23.4847 1.1183 23.5436L1.05945 23.6025C1.00059 23.6613 0.94173 23.6613 0.882872 23.7202C0.765156 23.8379 0.706298 23.9556 0.765156 24.1322C0.824014 24.2499 0.94173 24.3088 1.05945 24.3676L1.58917 38.4936C1.58917 38.6701 1.64803 38.7879 1.8246 38.9056C1.8246 39.0233 1.8246 39.141 1.88346 39.2587C1.94232 39.4353 2.06004 39.4942 2.23661 39.553C6.53326 40.4947 10.771 41.8485 14.8911 43.1434C20.0706 44.7914 25.4856 46.4983 30.9594 47.44C31.136 47.44 31.3125 47.3812 31.4303 47.2046C31.548 47.028 31.6657 46.8514 31.8423 46.616C34.1377 46.0274 36.8452 46.0863 39.3172 46.7926C40.4944 47.1457 41.4361 47.852 42.4956 48.6172C43.0253 49.0292 43.555 49.4412 44.1436 49.9121C44.2025 49.9709 44.379 50.0886 44.5556 50.2063C44.7911 50.3829 45.1442 50.6184 45.3796 50.7949C45.3796 50.9126 45.4385 51.0304 45.4974 51.1481C45.6739 51.2658 45.7328 51.3835 45.9682 51.3835C46.0859 51.3835 46.1448 51.3835 46.2625 51.3246C46.3214 51.3835 46.4391 51.4424 46.4979 51.4424C51.854 52.0309 57.0924 53.7967 62.1542 55.4447C63.3902 55.8567 64.6851 56.2687 65.9211 56.6807L74.3379 59.3294C74.3967 59.3882 74.5144 59.3882 74.6321 59.3882L82.99 62.0368C83.0489 62.0957 83.1077 62.0957 83.1666 62.0957L85.7563 62.9197C85.8152 62.9197 85.874 62.9197 85.9329 62.9197C86.0506 62.9197 86.1683 62.8608 86.2272 62.802C86.3449 62.7431 86.4038 62.5666 86.4038 62.4488C86.4626 56.3276 88.1695 50.3829 91.4656 45.2034C91.5244 45.0857 91.5833 44.968 91.5244 44.8503C91.6422 44.8503 91.701 44.7914 91.7599 44.7325C91.8776 44.6148 91.9364 44.4382 91.8776 44.2617C91.0536 41.0245 92.8782 38.2581 94.9382 35.7861C95.0559 35.7861 95.1736 35.845 95.2914 35.845C95.4091 35.845 95.5268 35.845 95.6445 35.7272C95.7622 35.6684 95.8211 35.4918 95.8211 35.3741C95.9977 32.902 97.0571 30.6654 98.2343 28.4288C98.352 28.1934 98.4697 27.958 98.5874 27.7814C98.9406 27.0751 99.3526 26.3688 99.6469 25.6625C99.9412 25.0739 100.235 24.3088 99.6469 23.5436ZM87.5221 37.1987C86.2861 39.8473 88.1107 42.9668 90.2884 45.0268C87.2278 50.0886 85.462 55.8567 85.3443 61.7425L84.8735 61.566C84.6969 59.8002 84.5792 58.0933 84.5203 56.4453C84.5203 56.2687 84.3437 56.0922 84.1672 56.0922C83.9317 56.0922 83.6963 56.2687 83.7552 56.5042C83.814 58.0345 83.9317 59.6236 84.0494 61.2717L83.5197 61.0951C83.3431 59.1528 83.1666 57.2105 83.1077 55.3859C83.1077 55.1504 82.9311 55.0327 82.6957 55.0327C82.4603 55.0327 82.2837 55.2093 82.2837 55.5036C82.3426 57.2105 82.5191 58.9762 82.6957 60.8597L82.166 60.6831C81.6363 57.3282 81.2831 53.9144 81.0477 50.5006C81.0477 50.3241 80.93 50.2063 80.8122 50.1475C80.6945 50.0886 80.518 50.0886 80.4002 50.1475C80.2825 50.2063 80.2237 50.3241 80.2237 50.5006C80.4591 53.7967 80.8122 57.0927 81.342 60.3888L80.4002 60.0945C80.0471 57.3282 79.7528 54.5618 79.5174 51.9132C79.5174 51.7955 79.4585 51.6778 79.3408 51.6189C79.2231 51.5601 79.0465 51.5601 78.9288 51.6778C78.8111 51.7367 78.7522 51.9132 78.7522 52.0309C78.9288 54.5619 79.2231 57.1516 79.5762 59.8002L79.1054 59.6825C78.5168 56.3276 78.0459 52.9138 77.8105 49.5589C77.8105 49.3235 77.6339 49.2058 77.3985 49.2058C77.163 49.2058 76.9865 49.3823 76.9865 49.6766C77.2219 52.9138 77.6928 56.151 78.2225 59.3882L77.0453 59.0351C76.8099 57.2693 76.6333 55.5036 76.5745 53.7967C76.5745 53.5024 76.339 53.3847 76.1036 53.3847C75.8682 53.3847 75.7504 53.5613 75.7504 53.7378C75.8093 55.3859 75.927 57.0928 76.1625 58.7408L74.9853 58.3876C74.8676 57.1516 74.7499 56.0333 74.8087 54.915C74.8087 54.7973 74.7499 54.6796 74.6321 54.6207C74.5144 54.5619 74.279 54.5619 74.1613 54.6207C74.0436 54.6796 73.9847 54.7973 73.9847 54.915C73.9847 55.9156 73.9847 56.975 74.1613 58.1522L65.8034 55.5036C64.6263 55.1504 63.5079 54.7384 62.3308 54.3853C58.2696 53.0904 54.1495 51.7367 49.9706 50.9715L50.1471 48.0286C50.1471 47.9109 50.0883 47.7932 49.9706 47.6754C49.8529 47.6166 49.6763 47.6166 49.5586 47.6754C49.4408 47.7343 49.3231 47.852 49.3231 48.0286L49.1466 50.7949C48.9111 50.7361 48.6757 50.7361 48.4991 50.6772L48.6757 44.7914C48.6757 44.6148 48.6168 44.4971 48.4991 44.4382C48.3814 44.3794 48.2048 44.3205 48.0871 44.4382C47.9694 44.4971 47.9105 44.6148 47.9105 44.7914L47.734 50.6772C47.5574 50.6772 47.4397 50.6184 47.2631 50.6184C47.4397 49.0292 47.5574 47.4989 47.5574 45.9686C47.5574 45.792 47.4985 45.6743 47.3808 45.6154C47.2631 45.5565 47.0865 45.5565 46.9688 45.6154C46.8511 45.6743 46.7922 45.792 46.7922 45.9097C46.7922 46.9691 46.7334 48.0286 46.6157 49.1469C46.5568 48.9115 46.4979 48.7349 46.4391 48.5583C46.7334 47.3223 46.6745 46.0274 46.6157 44.7914C46.6157 44.556 46.6157 44.3205 46.6157 44.0851C46.5568 42.5548 46.4979 40.9656 46.3802 39.2587C46.3802 39.141 46.3214 39.0233 46.2037 38.9644C46.0859 38.9056 45.9094 38.9056 45.7916 39.0233C45.6739 39.0822 45.6151 39.2587 45.6151 39.3764C45.7328 41.0245 45.7916 42.5548 45.8505 44.0851C45.8505 44.3205 45.8505 44.556 45.8505 44.7914C45.9094 45.5565 45.9094 46.3217 45.8505 47.0869C45.7328 46.8514 45.5562 46.616 45.4385 46.3806C45.2031 42.3782 45.0853 38.2581 45.0853 34.3146C45.0853 34.1381 45.0265 34.0204 44.8499 33.9615C44.7322 33.9026 44.5556 33.9026 44.4379 33.9615C44.3202 34.0204 44.2613 34.1381 44.2613 34.2558C44.2613 37.7873 44.379 41.4365 44.5556 45.2623C44.379 45.0857 44.1436 44.8503 43.9082 44.6737C43.9082 44.6148 43.9082 44.6148 43.9082 44.556L43.2019 29.8414C43.2019 29.606 43.0253 29.4883 42.7899 29.4883C42.5544 29.4883 42.3779 29.6648 42.3779 29.9591L43.0842 44.0262C42.9665 43.9674 42.9076 43.9085 42.7899 43.8497C42.7899 43.8497 42.7899 43.8497 42.7899 43.7908C42.319 40.2593 41.9659 36.6101 41.7304 33.0198C41.7304 32.902 41.6716 32.7843 41.5539 32.7255C41.4361 32.6666 41.2596 32.6666 41.1419 32.7843C41.0241 32.8432 40.9653 33.0198 40.9653 33.1375C41.2007 36.4335 41.5539 39.9062 41.9659 43.3199C41.7304 43.2022 41.5539 43.1434 41.3184 43.0257L40.8476 35.845C40.8476 35.6095 40.671 35.4918 40.4356 35.4918C40.2001 35.4918 40.0235 35.6684 40.0235 35.9627L40.4356 42.7314C40.1413 42.6725 39.7881 42.5548 39.435 42.4959C39.3172 38.7879 39.0818 35.0209 38.611 31.3717C38.611 31.254 38.4932 31.1363 38.3755 31.0774C38.2578 31.0186 38.0812 31.0186 37.9635 31.1363C37.8458 31.254 37.7869 31.3717 37.7869 31.4894C38.1989 35.0798 38.4932 38.7879 38.611 42.3782C38.4344 42.3782 38.2578 42.3782 38.0812 42.3782V42.3194C37.8458 40.1416 37.7281 37.905 37.7281 35.7272C37.7281 35.5507 37.6692 35.4329 37.5515 35.3741C37.4338 35.3152 37.2572 35.3152 37.1395 35.3741C37.0218 35.4329 36.9629 35.5507 36.9629 35.6684C36.9629 37.905 37.0806 40.2005 37.3161 42.4371C36.9629 42.4959 36.5509 42.5548 36.1389 42.6136C35.9623 39.4942 35.8446 36.257 35.7858 33.1375C35.7858 32.8432 35.5503 32.7255 35.3149 32.7255C35.0795 32.7255 34.9617 32.902 34.9617 33.0786C35.0206 36.3158 35.1383 39.6119 35.3149 42.8491C35.0795 42.9668 34.844 43.0257 34.6086 43.1434L34.1966 30.3123C34.1966 30.1357 34.1377 30.018 33.9612 29.9591C33.8434 29.9003 33.6669 29.9003 33.5491 29.9591C33.4314 30.018 33.3726 30.1357 33.3726 30.2534L33.7846 43.4965V43.5554C33.608 43.6731 33.3726 43.7908 33.196 43.9085L32.6074 36.4335C32.6074 36.3158 32.5486 36.1981 32.4308 36.1392C32.3131 36.0804 32.1366 36.0804 32.0188 36.1981C31.9011 36.257 31.8423 36.4335 31.8423 36.5513L32.4308 44.4971C31.96 44.9091 31.548 45.3211 31.1948 45.7331L30.7828 33.4906C30.7828 33.1963 30.5474 33.0786 30.312 33.0786C30.0765 33.0786 29.9588 33.2552 29.9588 33.4318L30.3708 46.3806C30.1942 46.3806 29.8999 46.3217 29.7234 46.2628L29.6645 37.905C29.6645 37.6107 29.4291 37.493 29.2525 37.493C29.0171 37.493 28.8994 37.6696 28.8994 37.8461L28.9582 46.0863C28.8405 46.0863 28.7228 46.0274 28.6051 46.0274C28.4873 46.0274 28.4285 45.9686 28.3108 45.9686L27.7222 37.9638C27.7222 37.7284 27.5456 37.6107 27.3102 37.6107C27.0748 37.6107 26.8982 37.7873 26.8982 38.0816L27.4868 45.7331L27.1925 45.6743C26.8982 45.6154 26.6039 45.5566 26.3096 45.4977C26.0742 42.9079 26.0153 40.3182 26.1919 37.6696C26.1919 37.4341 26.0153 37.2575 25.7799 37.2575C25.6033 37.2575 25.3679 37.3753 25.3679 37.6107C25.1913 40.1416 25.2501 42.7314 25.4856 45.2623C25.309 45.2034 25.1324 45.1445 24.9559 45.1445L24.7204 45.0857C24.5439 43.1434 24.3673 41.201 24.3084 39.3176C24.3084 39.1999 24.2496 39.0822 24.1318 39.0233C23.8376 38.8467 23.661 38.8467 23.5433 38.9056C23.4255 38.9644 23.3667 39.141 23.3667 39.2587C23.4255 41.0245 23.6021 42.8491 23.7787 44.7325C23.249 44.6148 22.7192 44.4382 22.1895 44.2617L21.8952 37.7284C21.8952 37.493 21.7187 37.3753 21.4832 37.3753C21.2478 37.3753 21.0712 37.5518 21.0712 37.8461L21.3655 44.0262L21.1301 43.9674C20.8358 43.9085 20.5415 43.7908 20.2472 43.7319C19.8941 40.3182 19.6586 36.8455 19.5998 33.4906C19.5998 33.1963 19.3643 33.0786 19.1289 33.0786C18.8935 33.0786 18.7758 33.2552 18.7758 33.4318C18.8346 36.7867 19.07 40.1416 19.4232 43.4965C19.1878 43.4377 19.0112 43.3788 18.7758 43.3199H18.7169C18.3637 40.5536 18.0695 37.7284 17.834 34.9621C17.834 34.8444 17.7752 34.7267 17.6574 34.6678C17.5397 34.6089 17.3632 34.6089 17.2454 34.7266C17.1277 34.7855 17.0689 34.9621 17.0689 35.0798C17.2454 37.6696 17.5397 40.377 17.8929 43.0845C17.5397 42.9668 17.1277 42.8491 16.7746 42.7314C16.186 39.4353 15.774 36.0804 15.4797 32.7843C15.4797 32.5489 15.3031 32.4312 15.0677 32.4312C14.8323 32.4312 14.6557 32.6078 14.6557 32.902C14.8911 36.0804 15.3031 39.2587 15.8917 42.4959L14.7145 42.1428C14.126 38.7879 13.6551 35.3152 13.3608 31.9015C13.3608 31.7837 13.3019 31.666 13.1842 31.6072C13.0665 31.5483 12.8899 31.5483 12.7722 31.666C12.6545 31.7249 12.5956 31.9015 12.5956 32.0192C12.8899 35.2564 13.3019 38.6113 13.8317 41.8485C13.2431 41.6719 12.6545 41.4953 12.0659 41.3188C11.6539 37.905 11.3008 34.4324 11.0653 31.0186C11.0653 30.7832 10.8888 30.6654 10.6533 30.6654C10.4179 30.6654 10.2413 30.842 10.2413 31.1363C10.4179 34.4324 10.771 37.7284 11.1831 41.0245C11.0653 40.9656 10.9476 40.9656 10.8888 40.9068L10.5945 40.789C10.359 39.0822 10.1825 37.3753 10.1825 35.7272C10.1825 35.4329 9.94703 35.3152 9.7116 35.3152C9.47616 35.3152 9.35845 35.4918 9.35845 35.6684C9.4173 37.2575 9.53502 38.8467 9.77045 40.4948C7.00412 39.6707 4.76751 39.0822 2.64862 38.6113V38.5524L2.06004 24.3088C3.35491 24.191 4.59094 23.6025 5.47381 22.7196C6.4744 21.719 6.94526 20.4241 6.8864 19.0704C6.82755 17.4812 5.7681 15.7743 4.41436 14.8914C3.47263 14.3029 2.47204 14.1263 1.53031 14.3617C1.64803 10.2417 1.53031 6.06273 1.05945 1.94265C1.4126 2.35466 1.76574 2.70781 2.17775 3.06096C2.23661 4.94442 2.41318 6.76902 2.64862 8.59363C2.70748 8.82906 2.88405 8.94678 3.11948 8.94678C3.29606 8.88792 3.53149 8.7702 3.47263 8.47591C3.2372 7.00446 3.11948 5.41529 3.00177 3.82612C3.17834 3.88497 3.35491 4.06155 3.53149 4.17927C3.53149 4.23812 3.53149 4.29698 3.53149 4.35584C3.64921 7.12217 3.82578 9.88851 4.17893 12.6548C4.17893 12.8314 4.3555 12.9491 4.59094 12.9491C4.82637 12.9491 5.00294 12.7726 5.00294 12.5371C4.70865 10.0062 4.53208 7.41646 4.41436 4.8267C4.64979 5.00328 4.94409 5.17985 5.23838 5.35643C5.41495 8.7702 5.88582 12.184 6.4744 15.5389C6.4744 15.6566 6.59211 15.7743 6.70983 15.8332C6.82755 15.892 7.00412 15.8332 7.12184 15.7743C7.23955 15.6566 7.29841 15.5389 7.23955 15.4212C6.65097 12.3017 6.23896 9.12335 5.94467 5.88615C6.41554 6.18044 6.82755 6.41587 7.29841 6.65131V6.71017C7.5927 10.1828 8.06357 13.6554 8.65215 17.0692C8.65215 17.1869 8.76987 17.3046 8.88758 17.3635C9.0053 17.4223 9.18187 17.3635 9.29959 17.3046C9.4173 17.1869 9.47616 17.0692 9.4173 16.9515C8.82872 13.7143 8.41672 10.4182 8.12243 7.06331C8.35786 7.18103 8.59329 7.29875 8.82872 7.41646C8.94644 7.47532 9.12301 7.53418 9.24073 7.59304C9.29959 7.6519 9.4173 7.6519 9.47616 7.71075C9.7116 10.5359 10.0059 13.42 10.359 16.1863C10.4179 16.4218 10.5945 16.5395 10.8299 16.5395C11.0065 16.5395 11.2419 16.3629 11.1831 16.0686C10.8299 13.4789 10.5356 10.8302 10.3002 8.12276L10.4768 8.24048C10.771 8.41705 11.0653 8.53477 11.4185 8.65248C11.6539 12.1251 12.0659 15.5977 12.5956 19.0115C12.6545 19.247 12.8311 19.3647 13.0077 19.3058C13.2431 19.247 13.4197 19.0704 13.3608 18.8349C13.0077 15.6566 12.5956 12.3605 12.3602 9.12335C12.7722 9.29992 13.1842 9.4765 13.5962 9.65307C13.5962 9.71193 13.5962 9.77079 13.5962 9.82965C13.714 11.8897 13.8317 13.9497 14.0671 16.0098C14.0671 16.2452 14.2437 16.3629 14.4791 16.3629C14.7145 16.3629 14.8911 16.1863 14.8911 15.892C14.7145 13.9497 14.538 12.0074 14.4202 10.0062C14.8323 10.1828 15.1854 10.3005 15.5974 10.4771H15.6563C15.7151 12.2428 15.8328 14.0086 16.0094 15.6566C16.0094 15.7743 16.0683 15.892 16.186 15.9509C16.3037 16.0098 16.4803 16.0098 16.6569 15.892C16.7746 15.8332 16.8334 15.6566 16.8334 15.5389C16.6569 14.0086 16.598 12.4783 16.4803 10.8302C17.8929 11.4188 19.1289 11.8897 20.3061 12.3017C28.0753 15.1269 36.0212 17.1869 43.9082 18.3641C48.3814 19.0115 52.9723 19.4235 57.6221 19.5412C58.0341 21.719 59.0936 24.4853 61.9776 25.6036C64.4497 26.6042 67.3337 25.9568 69.0995 23.9556C69.3938 23.6613 69.6292 23.3082 69.8646 22.8962C69.7469 23.8967 69.7469 24.7796 69.6881 25.6625C69.6881 25.9568 69.9235 26.0745 70.1001 26.0745C70.3355 26.0745 70.5121 25.8979 70.5121 25.7213C70.5709 24.0733 70.6886 22.3664 70.9241 20.6007C70.9829 20.5418 71.0418 20.4241 71.1007 20.3653C71.2184 20.9538 71.2772 21.5424 71.2772 22.131C71.2772 22.3076 71.3361 22.4253 71.5127 22.4842C71.6304 22.543 71.8069 22.543 71.9247 22.4842C72.0424 22.4253 72.1012 22.3076 72.1012 22.1899C72.1012 21.4836 72.0424 20.8361 71.8658 20.1887C72.2778 20.1887 72.6898 20.1887 73.043 20.2475C73.2195 20.2475 73.3961 20.2475 73.5727 20.3064C74.6321 20.3653 75.515 20.4241 76.339 20.483C78.5756 20.6595 80.7534 21.1893 82.8134 21.719C84.1672 22.0721 85.5798 22.3664 86.9924 22.6607C87.9341 22.8373 88.8758 22.955 89.6998 23.0727C89.1112 24.6619 88.6404 26.0745 88.2284 27.3694C88.1695 27.546 88.2872 27.7814 88.5227 27.8402C88.7581 27.8991 88.9935 27.8402 89.0524 27.6048C89.5233 26.1922 89.9941 24.7796 90.5827 23.1316C90.9358 23.1904 91.289 23.2493 91.6422 23.2493L89.6998 28.6054C89.641 28.7231 89.6998 28.8408 89.7587 28.9585C89.8764 29.0763 90.053 29.1351 90.1707 29.1351C90.2884 29.1351 90.4061 29.0174 90.465 28.8997L92.4662 23.4259H92.525C92.6427 23.4259 92.7605 23.4259 92.8782 23.4847L90.877 29.0763C90.8181 29.194 90.877 29.3117 90.9359 29.4294C91.0536 29.5471 91.2301 29.606 91.3479 29.5471C91.4656 29.5471 91.5833 29.4294 91.6422 29.3117L93.7022 23.6025H93.761C93.9376 23.6613 94.173 23.6613 94.3496 23.7202L92.3484 29.1351C92.2896 29.3117 92.4073 29.5471 92.5839 29.606C92.7605 29.6648 93.0547 29.606 93.1136 29.3706L95.1148 23.8967C95.2325 23.8967 95.4091 23.9556 95.5268 23.9556L93.8788 29.1351C93.8199 29.3117 93.9376 29.5471 94.173 29.606C94.4085 29.6648 94.5851 29.5471 94.7028 29.3706L96.3508 24.1322C96.6451 24.191 96.9394 24.2499 97.1748 24.3676C96.7628 25.8391 96.2331 27.2517 95.7622 28.6054C95.7034 28.7231 95.7622 28.8408 95.8211 28.8997C95.9388 29.0174 96.0565 29.0763 96.2331 29.0174C96.4097 29.0174 96.4685 28.8997 96.5274 28.782C97.0571 27.4282 97.4691 26.0745 97.94 24.603C98.2343 24.7208 98.5286 24.7796 98.764 24.8973C98.8817 24.9562 98.9994 24.9562 99.1171 24.8973C99.0583 25.6036 98.4697 26.6042 98.0577 27.1928C97.94 27.3694 97.8811 27.546 97.8223 27.6637L97.6457 28.0168C97.2925 28.6643 96.9394 29.3706 96.5862 30.0769C95.8211 31.666 95.3502 33.0786 95.1148 34.4912C95.0559 34.4912 94.9971 34.5501 94.9382 34.6089C94.8205 34.7266 94.7616 34.8444 94.6439 34.9032C90.8181 34.3146 88.5227 35.0798 87.5221 37.1987ZM39.7881 43.4377C42.8487 44.144 45.2619 46.7926 45.7328 50.0298C45.6739 49.9709 45.6151 49.9121 45.5562 49.9121C44.9088 49.3823 44.2613 48.8526 43.6139 48.3229L43.2607 48.0874C42.2013 47.2634 41.1418 46.3806 39.847 45.9686C38.3755 45.4388 36.7275 45.2034 35.0795 45.2034C34.3143 45.2034 33.5491 45.2623 32.8428 45.38C34.7852 43.6142 37.3749 42.8491 39.7881 43.4377ZM4.06121 15.8332C5.12066 16.6572 5.88582 18.1286 5.88582 19.4235C5.82696 21.2481 4.3555 22.8962 2.47204 23.2493C3.35491 22.1899 3.70806 20.7184 3.59035 18.9527C3.47263 17.0692 3.00177 15.892 2.11889 15.3035C2.94291 15.1269 3.59035 15.48 4.06121 15.8332ZM87.2866 10.7125C86.8746 11.8897 87.0512 13.1846 87.6987 14.3029C89.4644 17.1281 92.937 17.3046 95.5856 16.4218C96.9982 18.5995 97.9988 20.9538 98.5285 23.4847L98.4108 23.4259C98.352 23.367 98.2343 23.367 98.1754 23.367C98.1165 23.367 98.0577 23.367 97.94 23.4259C95.9977 22.7784 93.9965 22.4841 92.2896 22.2487C92.2307 22.1899 92.113 22.1899 92.0542 22.1899C91.6421 22.131 91.2301 22.0721 90.877 22.0133C89.6998 21.8367 88.4049 21.719 87.2278 21.4836C85.874 21.2481 84.4615 20.895 83.1666 20.5418C82.3426 20.3064 81.5185 20.1298 80.6357 19.9533C78.8111 19.5412 76.751 19.3058 74.3967 19.1881C74.1613 19.1881 73.9258 19.1881 73.6904 19.1292C72.8664 19.0704 72.0424 19.0115 71.2184 19.0704C70.8652 19.0704 70.5121 19.1292 70.2178 19.247C66.4509 16.3629 60.7416 14.8914 57.4456 17.9521C57.3278 18.0698 57.269 18.1875 57.269 18.3052C57.269 18.3641 57.269 18.3641 57.269 18.4229C41.9659 18.0109 26.133 14.244 11.4185 7.53418C8.12243 6.06273 4.64979 4.23812 1.94232 1.41293C22.425 3.35525 43.0842 4.4147 63.4491 4.65013C66.392 4.65013 69.3349 4.70899 72.2778 4.70899C72.8075 4.70899 73.2784 4.70899 73.867 4.76785C75.9859 4.8267 78.1636 4.88556 80.0471 4.00269C80.0471 4.00269 80.106 4.00269 80.106 3.94383C83.5786 4.53241 86.7569 6.06273 89.3467 8.47591C88.3461 8.88792 87.6398 9.71193 87.2866 10.7125ZM69.6292 20.071C69.5115 20.3064 69.4526 20.6007 69.4526 20.8361C69.3938 21.1304 69.3349 21.4247 69.2172 21.6601C68.8052 22.6019 68.1577 23.4259 67.2749 24.0145C65.6268 25.1916 63.3314 25.2505 61.5068 24.2499C59.8587 23.3082 58.8582 21.5424 58.3873 18.9527C58.3873 18.8938 58.3284 18.8349 58.3284 18.7761C58.3284 18.7172 58.2696 18.6584 58.2107 18.5995C60.2119 16.8926 63.2725 17.3046 64.5085 17.5989C66.3331 18.0109 68.04 18.8349 69.6292 20.071ZM88.9935 14.4206C88.1695 13.5377 87.8752 12.2428 88.1695 11.1245C88.405 10.2417 89.0524 9.59421 89.8764 9.24107C90.1707 11.4188 90.9359 14.8914 92.9959 15.9509C91.7599 15.9509 90.1707 15.7155 88.9935 14.4206ZM90.7004 44.0262C89.5821 42.8491 87.4632 40.2593 88.2872 37.8461C88.817 36.3158 90.2296 35.5507 92.525 35.5507C92.8782 35.5507 93.2902 35.5507 93.7022 35.6095C91.9364 37.8461 90.1118 40.7302 90.7004 44.0262Z" fill="#2D1310"/>
<path d="M21.8951 18.0693C21.1889 18.0693 20.4826 18.3048 20.0117 18.8345C19.894 18.7756 19.7174 18.7756 19.5997 18.8345C16.8333 20.7768 16.5979 25.0735 17.1865 28.1341C17.9517 31.7244 20.306 34.2553 23.3666 34.7262C23.7198 34.7851 24.014 34.7851 24.3672 34.7851C26.957 34.7851 29.1936 33.0782 29.841 30.3707C30.5473 27.3689 29.3701 24.2494 26.2507 20.7768C25.2501 19.7762 23.7786 18.1282 21.8951 18.0693ZM28.7227 31.3124C28.2518 32.4896 27.369 33.3725 26.1329 33.7845C26.0741 33.7256 26.0152 33.6667 25.9564 33.6667C23.3666 32.9604 21.2477 31.077 20.0117 28.4872C18.8345 25.9563 18.7757 23.1311 19.8351 20.718C19.9528 20.718 20.0117 20.6591 20.0705 20.6002C20.1294 20.5414 20.1883 20.4237 20.1883 20.3059C20.1883 20.2471 20.1883 20.1882 20.1883 20.1294V20.0705C20.306 19.8351 20.4826 19.5408 20.6591 19.3054C20.6591 19.3054 20.6591 19.2465 20.718 19.2465C21.3066 18.8934 22.3072 18.9522 22.9546 19.1876C23.7198 19.5408 24.3672 20.1294 24.9558 20.718C26.4861 22.2483 27.5455 23.7197 28.2518 25.1323C29.2524 27.1335 29.429 29.5467 28.7227 31.3124ZM24.9558 34.0788C22.0129 34.4319 19.3054 32.0776 18.3637 29.429C17.4219 26.8392 17.1865 22.4248 19.3642 20.1294C18.0694 22.6603 18.0105 25.662 19.1877 28.4284C20.3648 31.077 22.4249 33.137 24.9558 34.0788Z" fill="#2D1310"/>
<path d="M49.7352 27.3692C48.8523 27.6635 48.2049 28.311 48.0283 29.2527C47.4397 30.0767 47.4986 31.1361 47.5575 32.1367V32.2545C47.6163 33.667 47.7929 35.2562 48.8523 36.3745C49.5586 37.1985 50.6181 37.6105 51.6775 37.6105C51.8541 37.6105 51.9718 37.6105 52.1484 37.6105C53.3844 37.4928 54.5027 36.7277 55.0913 35.6682C56.3273 33.4316 55.2679 29.9001 53.4433 28.2521C52.4427 27.3104 50.9124 26.9572 49.7352 27.3692ZM49.0289 28.9584C49.3821 28.3698 50.0295 28.0167 50.7358 27.9578C49.2055 29.135 48.4992 31.0184 48.9701 32.843C49.3821 34.3733 50.3238 36.1391 51.8541 36.7865C50.7358 36.8454 49.6175 36.2568 49.0289 35.2562C48.4992 34.3733 48.3815 33.3728 48.3226 32.4899V32.3133C48.2638 31.6659 48.2049 30.9007 48.4403 30.2533C48.4992 30.2533 48.5581 30.1944 48.6169 30.1944C48.6758 30.1356 48.7346 30.0178 48.7346 29.9001C48.7346 29.7824 48.7346 29.7236 48.7935 29.6647V29.6058C48.8523 29.547 48.8523 29.547 48.9112 29.4881C48.9701 29.4293 49.0289 29.3115 49.0289 29.1938C49.0878 29.135 49.0878 29.0761 49.0289 28.9584ZM53.2667 36.3745C53.2078 36.3745 53.149 36.3157 53.0901 36.3157C51.3244 36.3157 50.1472 34.4911 49.6764 32.6665C49.2055 30.783 50.0295 29.0173 51.7364 28.0755C52.5015 28.3698 53.2078 28.9584 53.6787 29.7824C54.6204 31.3716 55.209 33.667 54.3262 35.1974C54.0907 35.7859 53.6787 36.1391 53.2667 36.3745Z" fill="#2D1310"/>
<path d="M75.8682 44.1443L76.0448 41.2014C76.0448 40.966 75.8682 40.7894 75.6328 40.7894C75.4562 40.7894 75.2208 40.9071 75.2208 41.1425L75.0442 43.5557C74.8088 43.438 74.5733 43.2614 74.3379 43.1437C74.5145 41.2603 74.6322 39.3179 74.7499 37.3756C74.7499 37.199 74.6911 37.0813 74.5733 37.0225C74.4556 36.9636 74.2791 36.9048 74.1613 37.0225C74.0436 37.0813 73.9848 37.199 73.9848 37.3168C73.867 39.0825 73.7493 40.966 73.5728 42.7906C73.3373 42.6729 73.1019 42.614 72.8076 42.5551L73.455 35.4333C73.455 35.1979 73.2785 35.0213 73.1019 35.0213C72.8665 35.0213 72.6899 35.139 72.6899 35.3744L72.1013 42.3197C71.9836 42.2608 71.8659 42.2609 71.7482 42.2609L72.3367 35.2567C72.3367 35.0213 72.1602 34.8447 71.9836 34.8447C71.807 34.8447 71.5716 34.9624 71.5716 35.1979L70.983 42.0843C70.7476 42.0254 70.571 42.0254 70.3356 41.9666L70.9241 35.551C70.9241 35.3156 70.7476 35.139 70.571 35.139C70.3356 35.139 70.159 35.2567 70.159 35.4922L69.6293 41.9077C69.4527 41.9077 69.335 41.9077 69.1584 41.8488L69.4527 35.9042C69.4527 35.6099 69.2761 35.4922 69.0407 35.4922C68.8053 35.4922 68.6287 35.6099 68.6287 35.8453L68.3344 41.8488C68.1578 41.8488 68.0401 41.8488 67.8635 41.9077C68.0401 39.9654 68.2167 37.9642 68.511 36.0219C68.511 35.9042 68.511 35.7276 68.3932 35.6687C68.2755 35.551 68.099 35.551 67.9812 35.6099C67.8635 35.6687 67.7458 35.7865 67.7458 35.9042C67.4515 37.9053 67.2161 39.9654 67.0395 41.9666C66.9218 41.9666 66.8041 42.0254 66.6864 42.0254C66.8041 40.142 67.0395 38.2585 67.3927 36.375C67.3927 36.2573 67.3927 36.1396 67.2749 36.0219C67.1572 35.9042 66.9806 35.9042 66.8629 35.963C66.6864 36.0219 66.6275 36.1396 66.5686 36.2573C66.2155 38.0819 65.9801 39.9065 65.8623 41.8488C65.8035 41.9077 65.8035 41.9666 65.8035 42.0843V42.3197C65.8035 42.3197 65.8035 42.3197 65.7446 42.3197C65.8035 39.1414 66.0389 35.9042 66.3921 32.7258C66.3921 32.6081 66.3332 32.4315 66.2155 32.3727C66.0978 32.255 65.9212 32.255 65.8035 32.3138C65.6858 32.3727 65.5681 32.4904 65.5681 32.6081C65.156 35.9042 64.9795 39.2002 64.9206 42.4963C64.9206 42.5551 64.9206 42.5551 64.9206 42.614C64.744 42.6729 64.6263 42.7317 64.5086 42.8494C64.2732 42.9671 64.0377 43.1437 63.8612 43.2614L64.9206 32.4315C64.9206 32.1961 64.8029 32.0195 64.5675 32.0195C64.3909 32.0195 64.1555 32.1372 64.0966 32.3727L62.9194 44.3797C62.9194 44.4975 62.9783 44.6152 63.0371 44.7329C63.0371 44.9683 63.096 45.1449 63.2137 45.3215C63.2137 45.3803 63.2726 45.3803 63.2726 45.4392C63.2137 45.498 63.2137 45.5569 63.2137 45.6746C63.2137 45.7923 63.2726 45.9689 63.3903 46.0278C63.92 46.3809 64.3909 46.7929 64.8618 47.2049C65.7446 47.9112 66.6275 48.6764 67.6281 49.2061C68.3344 49.5593 69.0995 49.8536 69.8647 50.0301C69.9824 50.089 70.0413 50.1478 70.159 50.2067C70.2178 50.2656 70.3356 50.2656 70.4533 50.2656C70.5121 50.2656 70.571 50.2067 70.6299 50.1478C71.2773 50.2656 71.807 50.3244 72.3367 50.3244C73.9848 50.3244 76.2214 49.8536 77.1631 48.5587C77.634 47.9112 77.7517 47.0872 77.4574 46.1455C76.9865 45.3803 76.5157 44.7329 75.8682 44.1443ZM76.3391 48.0289C75.2796 49.8535 71.807 49.7358 69.747 49.2061C68.5698 48.3821 67.2749 47.2638 67.6281 45.6158C68.099 43.438 70.3356 43.2026 72.1013 43.3792C72.1602 43.3792 72.2779 43.3792 72.3367 43.3203C73.3373 43.6146 74.1025 43.9089 74.7499 44.3209C75.8682 45.0272 77.1631 46.6164 76.3391 48.0289ZM63.8023 45.0272C63.7434 44.8506 63.6846 44.7329 63.7434 44.5563C63.92 43.9677 64.9206 43.5557 65.2738 43.3792C65.8623 43.0849 66.5098 42.9083 67.1572 42.7906C67.9224 42.6729 68.7464 42.6729 69.6881 42.7906H69.747C69.747 42.7906 69.747 42.7906 69.8058 42.7906C68.3344 43.0849 67.3927 43.9677 66.9806 45.2626C66.6864 46.3809 66.9218 47.3815 67.8047 48.3821C66.8629 47.8524 66.0978 47.2049 65.2149 46.4986C64.744 46.1455 64.332 45.7923 63.8023 45.4392C63.8612 45.3803 63.8612 45.2038 63.8023 45.0272Z" fill="#2D1310"/>
<path d="M78.8111 26.1921C78.6934 26.3098 78.6346 26.4275 78.6934 26.6041C77.8105 27.4281 77.2808 28.6053 77.2808 29.7824C77.222 30.9596 77.6928 32.0779 78.458 32.9608C79.3997 33.9614 80.8712 34.4911 82.5192 34.4911C82.5781 34.4911 82.5781 34.4911 82.6369 34.4911C82.6958 34.4911 82.7546 34.4911 82.8135 34.4322C83.9318 34.3734 84.9912 34.0202 85.6975 33.4317C86.345 32.9019 86.6981 32.1956 86.8158 31.2539C86.9924 29.547 86.1684 27.6047 85.2267 26.4864C83.5786 24.4852 80.6357 24.8384 78.8111 26.1921ZM80.3414 28.8996C79.7529 30.4299 80.1649 32.2545 81.1655 33.4905C80.4003 33.3139 79.694 33.0196 79.2231 32.6076C78.3991 31.9013 77.9871 30.9008 77.9871 29.8413C77.9871 28.723 78.5168 27.6636 79.3997 26.9573C79.5174 26.8984 79.5763 26.7807 79.5174 26.663C80.6946 25.9567 82.1072 25.7801 83.1666 26.1332C81.9895 26.4864 80.6946 27.899 80.3414 28.8996ZM81.0477 29.1939C81.2832 28.4876 82.2838 27.2515 83.2844 26.8395C83.4609 26.7807 83.6964 26.7218 83.8729 26.7218C84.0495 26.7218 84.2261 26.7807 84.3438 26.8395C84.4027 26.8984 84.4615 26.8984 84.5204 26.8984C85.3444 27.7813 86.1684 29.6059 85.9918 31.1362C85.933 31.9013 85.6387 32.4899 85.109 32.9019C84.4615 33.3728 83.5198 33.6671 82.4603 33.6671C80.9889 32.7842 80.518 30.6653 81.0477 29.1939Z" fill="#2D1310"/>
<path d="M72.8075 6.65092C71.1007 6.41549 69.2761 6.5332 67.4515 7.00407C66.5097 7.2395 65.2148 7.65151 64.744 9.00525C64.6851 9.12296 64.6851 9.24068 64.8028 9.35839C64.8028 10.1236 65.568 10.8887 65.6857 11.0064C66.9217 12.1836 68.3343 13.1253 69.8058 13.7139C70.9241 14.1259 72.1013 14.3613 73.2784 14.3613C73.867 14.3613 74.4556 14.3025 74.9853 14.1848C76.2213 13.9493 77.9282 13.4196 78.3991 11.8304C78.6345 10.8887 78.5168 10.0058 77.9871 9.24068C76.9865 7.71037 74.691 6.82749 72.8075 6.65092ZM66.0977 8.76981C66.0977 8.6521 66.0977 8.53438 65.98 8.47552C66.8629 7.65151 68.7463 7.2395 71.6304 7.35722C72.5721 7.35722 75.515 7.59265 76.9276 9.12296C75.103 8.29895 72.3955 8.47552 70.6298 9.53497C70.1001 9.88812 69.6881 10.4767 69.6292 11.2419C69.5704 11.8304 69.7469 12.3602 69.9824 12.831C69.3349 12.5956 68.7463 12.3013 68.1578 11.9482C67.628 11.6539 65.5091 9.94698 65.568 9.29954C65.568 9.24068 65.568 9.18182 65.7446 9.12296C65.98 9.0641 66.0977 8.94639 66.0977 8.76981ZM71.3361 10.0058C71.6892 9.82926 72.3367 9.71154 72.8664 9.59383L73.1607 9.53497C74.3379 9.29954 75.8682 9.12296 77.2219 10.1236C77.2808 10.1824 77.3985 10.1824 77.4573 10.1824C77.4573 10.1824 77.4573 10.1824 77.5162 10.1824C77.5751 10.3001 77.5751 10.4178 77.6339 10.4767C77.8105 11.2419 77.6339 11.8304 77.1631 12.3013C75.9859 13.4785 73.2196 13.5962 71.6892 13.3019C71.6304 13.3019 71.5715 13.3019 71.5127 13.243C71.5127 13.1253 71.395 13.0076 71.2772 12.9487C70.7475 12.7722 70.4532 12.3013 70.4532 11.7716C70.3355 11.0653 70.7475 10.359 71.3361 10.0058Z" fill="#2D1310"/>
<path d="M5.70919 28.6646C5.59147 28.6058 5.4149 28.6058 5.29718 28.7235C5.17946 28.7824 5.12061 28.9589 5.12061 29.0766L5.8269 38.3762C5.8269 38.4939 5.88576 38.6117 6.00348 38.6705C6.06234 38.6705 6.12119 38.7294 6.18005 38.7294C6.23891 38.7294 6.35663 38.7294 6.41548 38.6705C6.5332 38.6117 6.59206 38.4351 6.59206 38.3174L5.88576 29.0178C5.88576 28.7824 5.8269 28.7235 5.70919 28.6646Z" fill="#2D1310"/>
<path d="M7.65149 32.6074C7.41606 32.6074 7.29834 32.784 7.29834 32.9606C7.29834 35.1383 7.47491 37.3161 7.82806 39.435C7.82806 39.5527 7.94578 39.6704 8.0635 39.7293C8.12235 39.7293 8.18121 39.7293 8.24007 39.7293C8.35779 39.7293 8.41665 39.6704 8.53436 39.6115C8.65208 39.4938 8.71094 39.3761 8.65208 39.2584C8.29893 37.1984 8.12235 35.0795 8.12235 32.9606C8.0635 32.7251 7.82806 32.6074 7.65149 32.6074Z" fill="#2D1310"/>
<path d="M48.6168 12.3601C47.4985 12.3601 46.3802 12.1247 45.3207 11.6538C45.1442 11.5361 44.9087 11.6538 44.8499 11.8304C44.7322 12.007 44.791 12.3013 45.0264 12.419C46.0859 12.9487 47.2042 13.1841 48.3814 13.1841C48.4402 13.1841 48.4991 13.1841 48.5579 13.1841C48.8522 13.1841 48.9699 12.9487 48.9699 12.7133C48.9699 12.5367 48.8522 12.3601 48.6168 12.3601Z" fill="#2D1310"/>
<path d="M49.5586 10.1238C47.4397 10.3004 45.3797 9.77063 43.5551 8.59347C43.3196 8.47575 43.0842 8.53461 42.9665 8.71119C42.8488 8.88776 42.8488 9.12319 43.0842 9.24091C44.8499 10.3592 46.7334 10.9478 48.7934 10.9478C49.0877 10.9478 49.382 10.9478 49.6763 10.8889C49.9117 10.8889 50.0295 10.7124 50.0295 10.4769C50.0295 10.3592 49.8529 10.1238 49.5586 10.1238Z" fill="#2D1310"/>
<path d="M48.6757 9.06488C48.7345 9.06488 48.7934 9.06488 48.7934 9.06488C48.8523 9.06488 48.97 9.00603 49.0288 8.94717C49.1465 8.82945 49.2054 8.71173 49.2054 8.53516C49.2054 8.41744 49.0877 8.29973 48.97 8.24087C48.4402 8.06429 47.9694 7.77 47.4985 7.41686C47.3808 7.29914 47.2631 7.29914 47.1454 7.358C47.0276 7.41686 46.9099 7.53457 46.8511 7.71115C46.8511 7.88772 46.8511 8.00544 46.9688 8.12315C47.4985 8.53516 48.0871 8.88831 48.6757 9.06488Z" fill="#2D1310"/>
<path d="M51.7363 5.35675C51.5598 5.47446 51.5009 5.7099 51.6186 5.88647C52.3249 7.06363 52.7369 8.2408 52.9135 9.53568C52.9724 9.77111 53.1489 9.88882 53.3255 9.88882H53.3844C53.5609 9.82997 53.7964 9.71225 53.7375 9.41796C53.5021 8.06422 53.0312 6.71048 52.3249 5.53332C52.1483 5.23903 51.9129 5.23903 51.7363 5.35675Z" fill="#2D1310"/>
<path d="M53.7965 5.29785C53.6199 5.29785 53.5022 5.35671 53.4433 5.53328C53.3845 5.651 53.3845 5.76872 53.4433 5.88643C54.0319 6.88702 54.3262 8.00533 54.2673 9.18249C54.2673 9.35906 54.3262 9.47678 54.4439 9.53564C54.5028 9.5945 54.6205 9.5945 54.6793 9.5945C54.7382 9.5945 54.797 9.5945 54.8559 9.53564C54.9736 9.47678 55.0325 9.35906 55.0325 9.24135C55.0913 7.88761 54.7382 6.65159 54.0908 5.53328C54.0908 5.41557 53.973 5.29785 53.7965 5.29785Z" fill="#2D1310"/>
<path d="M55.6209 6.18093C55.4443 6.29864 55.3854 6.53408 55.5031 6.71065C55.7386 7.12266 55.9151 7.53467 55.974 8.06439C56.0329 8.29982 56.2094 8.41754 56.386 8.41754H56.4449C56.6214 8.41754 56.8569 8.24096 56.798 7.94667C56.7392 7.41695 56.5626 6.88723 56.2683 6.3575C56.0917 6.12207 55.7974 6.06321 55.6209 6.18093Z" fill="#2D1310"/>
<path d="M60.9182 14.0675C59.9176 13.8321 59.0936 13.2435 58.505 12.3606C58.3873 12.184 58.1519 12.1252 57.9753 12.2429C57.7988 12.3606 57.681 12.596 57.8576 12.8315C58.5051 13.8321 59.5056 14.5384 60.6828 14.8326C60.7417 14.8326 60.7417 14.8326 60.8005 14.8326C60.9182 14.8326 61.036 14.7738 61.0948 14.7149C61.2125 14.5972 61.2714 14.4206 61.2125 14.3029C61.1537 14.1852 61.0359 14.0675 60.9182 14.0675Z" fill="#2D1310"/>
<path d="M61.2126 12.1252C60.5651 11.8309 60.0354 11.4189 59.6234 10.8304C59.4468 10.6538 59.2114 10.6538 59.0937 10.7715C58.9171 10.8892 58.8583 11.1246 59.0348 11.3601C59.5646 12.0075 60.212 12.5372 60.9772 12.8904C61.036 12.8904 61.0949 12.9492 61.1537 12.9492C61.2714 12.9492 61.448 12.8904 61.5069 12.7138C61.5069 12.5372 61.448 12.2429 61.2126 12.1252Z" fill="#2D1310"/>
<path d="M62.1543 10.1824C62.0954 10.1236 62.0366 10.0647 61.9777 10.0058C61.6245 9.65269 61.036 9.06411 61.0948 8.59325C61.0948 8.47553 61.0948 8.29896 60.9771 8.2401C60.8594 8.12238 60.6828 8.12238 60.5651 8.18124C60.4474 8.2401 60.3297 8.35781 60.3297 8.47553C60.212 9.18183 60.7417 9.77041 61.1537 10.1824L61.2714 10.3001C61.8011 10.8887 62.3897 11.4184 63.096 11.9482C63.1549 12.007 63.2726 12.007 63.3314 12.007C63.4491 12.007 63.5669 11.9482 63.6257 11.8304C63.7434 11.6539 63.7434 11.4184 63.5669 11.2419C62.9783 10.9476 62.5074 10.5944 62.1543 10.1824Z" fill="#2D1310"/>
<path d="M79.8117 16.7156C79.7528 16.8922 79.8117 17.0099 79.9294 17.1276C79.9882 17.1865 80.106 17.2453 80.1648 17.2453C80.2237 17.2453 80.2237 17.2453 80.2825 17.2453C82.2248 16.7156 83.6963 15.4796 84.5792 13.655C84.6969 13.4784 84.5792 13.243 84.4026 13.1253C84.226 13.0075 83.9317 13.0664 83.814 13.3018C83.1077 14.8322 81.754 15.9505 80.106 16.4213C79.9882 16.4802 79.8705 16.5979 79.8117 16.7156Z" fill="#2D1310"/>
<path d="M84.3438 15.8916C84.2261 15.8916 84.1084 15.9505 83.9907 16.0682C83.6964 16.4802 83.3432 16.8333 82.9312 17.1276C82.8135 17.1865 82.7546 17.3631 82.7546 17.4808C82.7546 17.6573 82.8724 17.7751 82.9901 17.8339C83.0489 17.8339 83.1078 17.8928 83.1666 17.8928C83.2255 17.8928 83.2844 17.8928 83.3432 17.8339C83.8729 17.4808 84.3438 17.0688 84.697 16.539C84.7558 16.4213 84.7558 16.2448 84.697 16.127C84.6381 15.9505 84.4615 15.8916 84.3438 15.8916Z" fill="#2D1310"/>
<path d="M84.0493 18.953C84.1082 19.1296 84.2259 19.3061 84.4025 19.3061H84.4614C85.1088 19.1884 85.5797 18.7176 85.7562 18.129C85.8151 18.0113 85.7562 17.8347 85.6385 17.717C85.5208 17.5993 85.3442 17.5404 85.2265 17.5993C85.1088 17.6581 84.9911 17.717 84.9322 17.8347C84.8145 18.1878 84.5791 18.4233 84.2259 18.4821C84.1082 18.541 83.9905 18.7764 84.0493 18.953Z" fill="#2D1310"/>
<path d="M90.7003 36.198C88.9934 36.9631 88.4048 39.1409 88.5225 40.7889C88.5225 40.9066 88.5814 41.0244 88.6991 41.0832C88.758 41.0832 88.8168 41.1421 88.8757 41.1421C88.9346 41.1421 89.0523 41.1421 89.1111 41.0832C89.2288 41.0244 89.2877 40.9066 89.2877 40.7301C89.17 39.3175 89.6997 37.4929 91.0534 36.9043C91.23 36.8454 91.2889 36.61 91.23 36.4334C91.1123 36.198 90.8769 36.1391 90.7003 36.198Z" fill="#2D1310"/>
<path d="M65.2149 23.1909H65.1561C64.332 23.1909 63.4492 23.1909 62.6252 22.9555C61.6834 22.6023 61.0948 21.8372 60.5063 20.9543C60.4474 20.8366 60.3297 20.7777 60.212 20.8366C60.0943 20.8366 59.9765 20.9543 59.9177 21.072C59.8588 21.1897 59.8588 21.3074 59.9177 21.4251C60.5063 22.308 61.1537 23.132 62.0954 23.544C62.9194 23.8972 63.8612 23.956 64.6852 23.956C64.8618 23.956 64.9795 23.956 65.1561 23.956C65.3915 23.956 65.5092 23.7795 65.5092 23.544C65.5681 23.3086 65.4503 23.1909 65.2149 23.1909Z" fill="#2D1310"/>
<path d="M63.1548 19.1297C63.0959 19.2474 63.0371 19.3651 63.0959 19.4828C63.1548 19.6006 63.2725 19.6594 63.3902 19.6594C64.5085 19.7771 65.5091 20.1891 66.392 20.8366C66.4508 20.8954 66.5097 20.8954 66.6274 20.8954C66.7451 20.8954 66.804 20.8366 66.9217 20.7777C67.0394 20.66 67.0394 20.4246 66.8628 20.248C65.8622 19.4828 64.7439 19.0708 63.5079 18.9531C63.3313 19.012 63.2136 19.012 63.1548 19.1297Z" fill="#2D1310"/>
<path d="M65.9801 45.7915C66.039 45.7915 66.039 45.7915 66.0978 45.7915C66.2744 45.7326 66.3921 45.5561 66.3332 45.3795C66.1567 44.6143 66.0978 44.0258 66.6275 43.8492C66.7453 43.7903 66.8041 43.7315 66.863 43.6138C66.863 43.496 66.863 43.3783 66.7453 43.2606C66.6275 43.1429 66.5098 43.1429 66.3921 43.2017C65.8624 43.3783 65.2738 43.9669 65.6858 45.4972C65.6269 45.7326 65.8035 45.7915 65.9801 45.7915Z" fill="#2D1310"/>
<path d="M89.4644 11.7135C89.4644 11.4781 89.2878 11.3604 89.1112 11.3604C88.9346 11.3604 88.7581 11.4781 88.7581 11.7135C88.7581 12.6552 89.1112 13.4792 89.7586 14.0678C89.8175 14.1267 89.9352 14.1855 89.9941 14.1855C90.0529 14.1855 90.0529 14.1855 90.1118 14.1855C90.2295 14.1267 90.3472 14.0678 90.3472 13.9501C90.3472 13.8324 90.3472 13.7147 90.2295 13.6558C89.7586 13.0084 89.4644 12.4198 89.4644 11.7135Z" fill="#2D1310"/>
<path d="M22.7192 20.8362C22.6015 20.7773 22.4838 20.7773 22.366 20.7773C22.2483 20.8362 22.1895 20.9539 22.1306 21.0716C22.1306 21.1894 22.1895 21.3071 22.3072 21.3659C24.8381 23.1317 26.1918 25.9569 25.8975 29.0175C25.8975 29.1352 25.9564 29.2529 26.0153 29.3118C26.0741 29.3706 26.133 29.3706 26.2507 29.3706C26.3095 29.3706 26.3684 29.3706 26.4273 29.3118C26.545 29.2529 26.6038 29.1352 26.6038 29.0175C26.957 25.8391 25.4855 22.7197 22.7192 20.8362Z" fill="#2D1310"/>
<path d="M51.2067 29.6056C51.089 29.7233 51.089 29.9587 51.2067 30.0764C52.2073 30.9593 52.5016 32.3131 52.0307 33.5491C51.9719 33.6668 52.0307 33.7845 52.0896 33.9022C52.1484 33.9611 52.2661 34.0199 52.3839 34.0199H52.4427C52.5604 34.0199 52.6781 33.9022 52.737 33.7845C53.3256 32.3131 52.9136 30.665 51.7953 29.6056C51.5598 29.429 51.3244 29.4879 51.2067 29.6056Z" fill="#2D1310"/>
<path d="M72.5133 44.4971C72.3956 44.4971 72.2779 44.5559 72.2191 44.6736C72.1602 44.7914 72.1602 44.9091 72.2191 45.0268C72.2779 45.1445 72.3956 45.2034 72.5133 45.2034C72.8076 45.2034 73.0431 45.3211 73.1608 45.4977C73.2785 45.6742 73.3374 45.8508 73.3374 46.0862C73.2785 46.5571 72.8665 46.7925 72.2779 47.028C72.1602 47.0868 72.0425 47.1457 72.0425 47.3223C72.0425 47.44 72.0425 47.6166 72.1602 47.6754C72.2191 47.7343 72.2779 47.7343 72.3368 47.7343C72.3956 47.7343 72.3956 47.7343 72.4545 47.7343C73.1608 47.4988 74.0437 47.0868 74.0437 46.0274C74.0437 45.2034 73.3374 44.5559 72.5133 44.4971Z" fill="#2D1310"/>
<path d="M79.6352 27.4287C79.1643 27.5464 79.0466 28.135 79.0466 28.4882V28.6059C78.9289 29.2533 78.9877 30.0185 79.1054 30.7248C79.1054 30.8425 79.2232 30.9602 79.3409 30.9602C79.3997 30.9602 79.3997 30.9602 79.4586 30.9602C79.5763 30.9602 79.6352 30.9013 79.694 30.8425C79.8117 30.7836 79.8117 30.6659 79.8117 30.5482C79.694 30.0773 79.694 29.6065 79.694 29.1945C79.694 28.547 79.8117 28.1939 79.8117 28.0762C79.9883 28.0173 80.106 27.7819 80.0472 27.6641C79.9883 27.4876 79.8117 27.4287 79.6352 27.4287Z" fill="#2D1310"/>
<path d="M83.5785 32.5488C83.6374 32.5488 83.6963 32.5488 83.7551 32.49C84.9911 31.6659 85.2266 30.1945 84.4025 28.0756C84.3437 27.899 84.1671 27.8402 83.9905 27.899C83.814 27.9579 83.6963 28.1345 83.7551 28.3699C84.4614 30.1356 84.2848 31.3128 83.3431 31.9602C83.1665 32.078 83.1665 32.2545 83.2254 32.4311C83.3431 32.49 83.4608 32.5488 83.5785 32.5488Z" fill="#2D1310"/>
<path d="M4.17902 18.482C4.0613 18.5408 4.00245 18.6585 4.0613 18.8351C4.23788 19.8946 4.23788 21.0717 3.59044 22.0723C3.47272 22.1312 3.47272 22.2489 3.53158 22.3666C3.59044 22.4843 3.70816 22.5432 3.82587 22.602C3.82587 22.602 3.82587 22.602 3.88473 22.602C4.00245 22.602 4.12016 22.5432 4.17902 22.4255C5.00304 21.2483 4.94418 19.7769 4.82646 18.6585C4.82646 18.5408 4.70874 18.4231 4.64989 18.3643C4.41445 18.3643 4.29674 18.3643 4.17902 18.482Z" fill="#2D1310"/>
<path d="M3.82578 17.0108C3.88464 17.1285 3.9435 17.2462 4.06122 17.2462C4.12008 17.2462 4.12008 17.2462 4.17893 17.2462C4.29665 17.2462 4.35551 17.1873 4.41437 17.1285C4.47322 17.0696 4.53208 16.9519 4.47322 16.8342C4.41437 16.5399 4.29665 16.3633 4.06122 16.1868C3.9435 16.1279 3.88464 16.069 3.76693 16.1279C3.64921 16.1868 3.53149 16.3045 3.53149 16.4222C3.53149 16.5399 3.53149 16.6576 3.64921 16.7753C3.76693 16.8342 3.82578 16.8931 3.82578 17.0108Z" fill="#2D1310"/>
</g>
<defs>
<clipPath id="clip0_85_386">
<rect width="100" height="62.8605" fill="white"/>
</clipPath>
</defs>
</svg>
